<?xml version="1.0" encoding="UTF-8"?>
<svg width="413px" height="446px" viewBox="0 0 413 446" version="1.1" xmlns="http://www.w3.org/2000/svg" xmlns:xlink="http://www.w3.org/1999/xlink">
    <title>blob-11</title>
    <defs>
        <radialGradient cx="51.3898873%" cy="20.6332521%" fx="51.3898873%" fy="20.6332521%" r="108.096154%" gradientTransform="translate(0.513899,0.206333),scale(1.000000,0.925102),rotate(90.000000),translate(-0.513899,-0.206333)" id="radialGradient-1">
            <stop stop-color="#00DD8A" offset="0%"></stop>
            <stop stop-color="#009145" offset="100%"></stop>
        </radialGradient>
    </defs>
    <g id="blob-11" stroke="none" stroke-width="1" fill="none" fill-rule="evenodd">
        <g id="blob-10" fill="url(#radialGradient-1)" fill-rule="nonzero">
            <path d="M348.618697,23.0187058 C385.31608,42.9473157 411.487858,83.943313 412.910237,124.93931 C414.617092,165.935308 391.574549,206.931305 378.48866,244.510969 C365.402771,282.090634 361.989061,315.96927 349.472124,356.111184 C336.670711,396.253098 314.766071,442.373595 283.758204,445.789928 C253.034813,449.206262 222.438137,405.390528 190.007891,378.629252 C157.577645,351.867976 88.844263,402.505138 56.6984928,384 C24.8371984,365.494862 40.0248146,273.386527 23.2407399,239.792585 C6.17218934,206.198642 -7.82953449,170.775113 6.10978181,126.078088 C20.0490981,81.0963688 42.2382139,36.1146494 78.6511217,15.6166508 C115.06403,-4.59665348 165.416254,-0.0415426648 214.630575,1.66662389 C263.56042,3.65948487 311.636837,3.09009602 348.618697,23.0187058 Z" id="Path"></path>
        </g>
    </g>
</svg>