<?xml version="1.0" encoding="UTF-8"?>
<svg width="404px" height="360px" viewBox="0 0 404 360" version="1.1" xmlns="http://www.w3.org/2000/svg" xmlns:xlink="http://www.w3.org/1999/xlink">
    <title>blob-10</title>
    <defs>
        <radialGradient cx="51.3898873%" cy="20.6332521%" fx="51.3898873%" fy="20.6332521%" r="100%" gradientTransform="translate(0.513899,0.206333),scale(0.891089,1.000000),rotate(90.000000),translate(-0.513899,-0.206333)" id="radialGradient-1">
            <stop stop-color="#00DD8A" offset="0%"></stop>
            <stop stop-color="#009145" offset="100%"></stop>
        </radialGradient>
    </defs>
    <g id="blob-10" stroke="none" stroke-width="1" fill="none" fill-rule="evenodd">
        <g id="blob-9" fill="url(#radialGradient-1)" fill-rule="nonzero">
            <path d="M319.356486,47.8269859 C353.987121,72.2441314 390.145577,92.8460978 400.585695,122.604494 C410.771176,152.617235 395.747592,192.295097 387.089933,230.701232 C378.686911,269.361712 376.649815,307.004811 356.788128,327.352432 C336.671804,347.700054 298.476251,351.006542 264.609527,355.076066 C230.488167,359.145591 200.440999,363.978151 175.741208,354.567376 C151.041418,345.410946 131.943641,322.265527 101.896473,300.900525 C71.594668,279.535523 30.5981082,260.459628 11.7549688,228.666469 C-6.83353345,197.127657 -3.2686152,153.125926 21.6858125,127.437054 C46.6402403,102.002527 93.2388145,94.6265147 129.397271,70.7180598 C165.555728,46.8096048 191.528703,6.62305292 221.321234,0.773111817 C251.113766,-5.07682928 284.471215,23.4098404 319.356486,47.8269859 Z" id="Path"></path>
        </g>
    </g>
</svg>