<?xml version="1.0" encoding="UTF-8"?>
<svg width="249px" height="274px" viewBox="0 0 249 274" version="1.1" xmlns="http://www.w3.org/2000/svg" xmlns:xlink="http://www.w3.org/1999/xlink">
    <title>blob-5</title>
    <defs>
        <radialGradient cx="58.9399904%" cy="-15.7446418%" fx="58.9399904%" fy="-15.7446418%" r="110.225045%" gradientTransform="translate(0.589400,-0.157446),scale(1.000000,0.905109),rotate(104.260148),translate(-0.589400,0.157446)" id="radialGradient-1">
            <stop stop-color="#FBD76D" offset="0%"></stop>
            <stop stop-color="#F6AE3B" offset="100%"></stop>
        </radialGradient>
    </defs>
    <g id="Symbols" stroke="none" stroke-width="1" fill="none" fill-rule="evenodd">
        <g id="blob-5" fill="url(#radialGradient-1)" fill-rule="nonzero">
            <g id="Path">
                <path d="M200.493099,53.1888794 C217.384258,71.4064366 229.449371,91.2970348 238.358993,115.834969 C247.454233,140.372903 253.393981,169.186387 243.370656,191.121813 C233.532948,213.243132 207.54655,228.114607 177.662191,244.287337 C147.592216,260.460066 113.809898,277.748156 81.8837511,273.286713 C49.9576044,268.825271 19.887629,242.428402 7.82251537,210.826517 C-4.42821536,179.410526 1.32591574,142.603625 7.26566397,105.053149 C13.0197951,67.5026744 18.7739262,29.394519 40.8623649,12.106429 C63.1364207,-5.18166104 101.559167,-1.64968566 131.81476,8.38856015 C161.884735,18.426806 183.60194,34.9713222 200.493099,53.1888794 Z"></path>
            </g>
        </g>
    </g>
</svg>