<svg id="Calque_3" data-name="Calque 3" xmlns="http://www.w3.org/2000/svg" xmlns:xlink="http://www.w3.org/1999/xlink" viewBox="0 0 620.39 787.09"><defs><style>.cls-1,.cls-10,.cls-11,.cls-2{fill:none;}.cls-1{clip-rule:evenodd;}.cls-2,.cls-3{fill-rule:evenodd;}.cls-3{fill:#093280;}.cls-4{opacity:0.7;}.cls-5{clip-path:url(#clip-path);}.cls-6{opacity:0.25;}.cls-7{fill:#87cee0;}.cls-8{fill:#fff;}.cls-9{fill:#f6921e;}.cls-10{stroke:#00555b;}.cls-10,.cls-11{stroke-linecap:round;stroke-miterlimit:10;stroke-width:3px;}.cls-11{stroke:#fff;}</style><clipPath id="clip-path"><path class="cls-1" d="M620.39.61H0V759.13l25.85-10.85c25.85-10.86,77.55-32.57,129.25-32.57,44.31,0,88.62,15.95,132.94,31.9,7.38,2.66,14.77,5.32,22.15,7.9,51.7,18.1,103.4,32.58,155.1,32.58s103.4-14.48,129.25-21.72l25.85-7.24V.61Z"/></clipPath></defs><path class="cls-3" d="M620.39-.39H0V758.13l25.85-10.85c25.85-10.86,77.55-32.57,129.25-32.57,44.31,0,88.62,15.95,132.94,31.9,7.38,2.66,14.77,5.32,22.15,7.9,51.7,18.1,103.4,32.58,155.1,32.58s103.4-14.48,129.25-21.72l25.85-7.24V-.39Z"/><g class="cls-4"><g class="cls-5"><g id="Calque_2-2" data-name="Calque 2-2"><g id="Calque_2-2-2" data-name="Calque 2-2-2"><g class="cls-6"><path class="cls-7" d="M319.44,53.73a271.35,271.35,0,0,1-37.22,6.5c-5.41.58-5.47,9.09,0,8.62A285.37,285.37,0,0,0,321.7,62c5.33-1.3,3.09-9.62-2.16-8.23Z"/></g><g class="cls-6"><path class="cls-7" d="M327.18,293.4c-13.12-4.51-29.05-6.49-41.58.67-4.78,2.72-.48,10.11,4.31,7.36,10.56-6,24.2-3.52,35.09.21C330.12,303.44,332.37,295.17,327.18,293.4Z"/></g><g class="cls-6"><path class="cls-7" d="M332.67,533.09c-10.05-3.52-34.39-12.44-38.13,4.11-1.22,5.35,7,7.64,8.23,2.16,1.92-8.43,22.84.19,27.62,1.87,5.2,1.84,7.44-6.5,2.18-8.24Z"/></g><g class="cls-6"><path class="cls-7" d="M339,779.76,304.12,774l-2.41,8.57h.43c5.64.94,8.07-7.71,2.28-8.62H304c-5.66-.94-8.08,7.7-2.4,8.62l34.95,5.7c5.64.91,8.06-7.74,2.27-8.66Z"/></g><g class="cls-6"><path class="cls-7" d="M408.45,171.09a135.14,135.14,0,0,0-34,1.3c-5.39.86-3.1,9.1,2.29,8.21a127.27,127.27,0,0,1,31.74-.95c5.48.48,5.44-8.07,0-8.63Z"/></g><g class="cls-6"><path class="cls-7" d="M420.34,411.35,387.46,406c-5.38-.88-7.68,7.37-2.16,8.23l32.88,5.35c5.38.88,7.71-7.36,2.26-8.24Z"/></g><g class="cls-6"><path class="cls-7" d="M414.85,661.75l-27.39-4.46c-5.38-.86-7.68,7.37-2.16,8.25L412.7,670c5.38.88,7.7-7.36,2.26-8.24Z"/></g><g class="cls-6"><path class="cls-7" d="M256,159.21,217.61,153c-5.38-.88-7.71,7.36-2.28,8.24l38.35,6.24C259.08,168.32,261.39,160.12,256,159.21Z"/></g><g class="cls-6"><path class="cls-7" d="M245,389.76l-27.39-4.45c-5.38-.89-7.71,7.37-2.28,8.22l27.4,4.47c5.38.87,7.69-7.35,2.15-8.24Z"/></g><g class="cls-6"><path class="cls-7" d="M248.2,623c-9.59,1.73-20.92,2.9-30.59,1.1-5.38-1-7.7,7.25-2.28,8.24,11.32,2.16,23.89.94,35.09-1.09,5.39-1,3.11-9.23-2.29-8.25Z"/></g><g class="cls-6"><path class="cls-7" d="M156.19,26.83a121.56,121.56,0,0,1-31.73-5.2c-5.28-1.53-7.57,6.72-2.29,8.25a131.26,131.26,0,0,0,34,5.59C161.69,35.47,161.69,27,156.19,26.83Z"/></g><g class="cls-6"><path class="cls-7" d="M157.33,252.9l-27.39-4.41c-5.41-.87-7.71,7.36-2.29,8.24l27.4,4.44C160.44,262,162.75,253.77,157.33,252.9Z"/></g><g class="cls-6"><path class="cls-7" d="M162.82,486.11c-13.15-4.51-29.09-6.49-41.67.68-4.78,2.71-.48,10.1,4.32,7.35,10.55-6,24.2-3.5,35.09.23C165.76,496.16,168,487.89,162.82,486.11Z"/></g><g class="cls-6"><path class="cls-7" d="M148.55,743.8c-9.59,5.2-19.62,4.31-29.58.69-5.2-1.9-7.41,6.5-2.16,8.25,12.16,4.45,24.6,4.67,36.16-1.56,4.86-2.6.54-10-4.32-7.38Z"/></g><g class="cls-6"><path class="cls-7" d="M69.64,128.54l-32.85-5.35c-5.41-.86-7.71,7.37-2.3,8.25l32.88,5.35c5.38.86,7.72-7.36,2.17-8.25Z"/></g><g class="cls-6"><path class="cls-7" d="M71,357.38c-6.23,6.5-15.93,3.9-23.25.91-5.09-2.17-7.3,6.17-2.16,8.21,10.32,4.33,23.14,5.71,31.56-3.08,3.8-4-2.16-10-6-6Z"/></g><g class="cls-6"><path class="cls-7" d="M75.12,607.4C63.73,603.09,49.34,601.06,39,609c-4.32,3.27,0,10.79,4.33,7.38,8.63-6.61,20.11-4.33,29.56-.69C78,617.56,80.19,609.34,75.12,607.4Z"/></g><g class="cls-6"><path class="cls-7" d="M-1.68,730.47c-10.39-2.6-28.07-5.36-37,2.17-4.31,3.53,1.86,9.55,6,6,2.6-2.16,8.65-1.86,11.84-1.91a63.74,63.74,0,0,1,16.9,1.91c5.35,1.3,7.61-6.91,2.28-8.25Z"/></g><g class="cls-6"><path class="cls-7" d="M664.24,766.27l-43.85-7.14c-5.37-.88-7.68,7.37-2.16,8.26l43.85,7.12C667.46,775.38,669.76,767.15,664.24,766.27Z"/></g><g class="cls-6"><path class="cls-7" d="M577.92,154.46c-6.21,6.49-15.91,3.89-23.25.88-5.07-2.17-7.29,6.19-2.16,8.24,10.4,4.21,23.17,5.7,31.57-3.08,3.79-4-2.16-10.05-6-6Z"/></g><g class="cls-6"><path class="cls-7" d="M582.05,404.44c-11.42-4.32-25.9-6.35-36.18,1.56-4.31,3.27,0,10.78,4.32,7.35,8.64-6.5,20.11-4.31,29.57-.66C584.92,414.57,587.15,406.31,582.05,404.44Z"/></g><g class="cls-6"><path class="cls-7" d="M567.78,648.82c-8.74,6.23-20.14,4.08-29.57.68-5.2-1.88-7.43,6.5-2.16,8.23,11.46,4.12,25.64,5.95,36.15-1.53,4.46-3.16.2-10.58-4.31-7.38Z"/></g><g class="cls-6"><path class="cls-7" d="M483.42,27.07l-32.86-5.35c-5.38-.86-7.7,7.37-2.26,8.25l32.86,5.4c5.36.85,7.68-7.36,2.15-8.26Z"/></g><g class="cls-6"><path class="cls-7" d="M494.36,266.68,467,262.24c-5.36-.9-7.68,7.33-2.15,8.21l27.34,4.5c5.38.87,7.71-7.36,2.27-8.24Z"/></g><g class="cls-6"><path class="cls-7" d="M505.37,527.46c-10.4-2.59-28.06-5.35-37,2.16-4.31,3.54,1.85,9.57,6,6,2.6-2.15,8.63-1.85,11.83-1.89a63.65,63.65,0,0,1,16.89,1.89c5.33,1.3,7.6-6.91,2.16-8.25Z"/></g><g class="cls-6"><path class="cls-7" d="M489.12,756.81c.14,1-.39,2.32.24,1.9-1,.67-3.24,0-4.32-.15a75.11,75.11,0,0,1-12.66-4.1c-5.13-2-7.35,6.27-2.15,8.25,6.08,2.35,13.67,5.82,20.37,4.46,6.37-1.3,7.71-6.94,6.8-12.62s-9.1-3.12-8.24,2.15Z"/></g></g></g></g></g><g class="cls-5"><rect class="cls-8" x="308.48" y="540.9" width="40.08" height="70.79" transform="matrix(0.99, -0.13, 0.13, 0.99, -69.62, 45.71)"/><path class="cls-9" d="M625.07,585.63c-6.62-12.28-15.52-21.26-28-27.61-12.84-6.55-26-12.48-39.09-18.58v0c.4-8.71-7-18.18-2.85-26.48,3.89-7.76,13.26-11.43,19.73-16.6a28.85,28.85,0,0,0,8-9.38c1.15-2.27,1.94-4.7,3-7a61.22,61.22,0,0,0,3.13-6.41c2.76-8.07-1.78-18.67-5.72-26.21.94-6.16,1.74-12.77-1.72-18.34-3.12-5-8.29-6.95-14-6.07-6.08.93-11.31,1.41-15.92-3.5-3.68-3.91-2.88-11.1-8.62-13-5.21-1.75-13.07.4-18.27,1.42A104.08,104.08,0,0,0,506,413.39a110.15,110.15,0,0,0-29,17.2,3.26,3.26,0,0,0-3.35,2c-.28.59-.58,1.17-.87,1.75a3.39,3.39,0,0,0-.57,1.14,223.94,223.94,0,0,1-20.69,33.72c-3.57,4.78-9.49,10.06-7.68,16.69.76,2.78,2.36,5.17,3,8a46.13,46.13,0,0,1,.7,10c0,6.16-.34,12.59,1.57,18.53a29.93,29.93,0,0,0,9.59,13.67c4.41,3.69,9.39,6.56,14.19,9.71a76.23,76.23,0,0,1,12.69,10.51c-6.45,3.74-11.79,9.54-8.57,17.61.42,1.07,1.32,2.12,1.41,3.28.12,1.54-1.15,2.84-2,4.14-1.56,2.34-3.18,4.64-4.9,6.87a126.33,126.33,0,0,1-9.56,11,44.43,44.43,0,0,1-14-7.53,149.09,149.09,0,0,0-12.3-9.35,88.57,88.57,0,0,0-28.31-12.4,65.25,65.25,0,0,0-28.73-.43c-1.27.28-2.63.84-3.91,1-1.95.23-2.52-.38-4.1-1.23a20.73,20.73,0,0,0-7-2.54,17.36,17.36,0,0,0-3.67-.2,11.12,11.12,0,0,1-2.36.3c-.26-.16-.39-7.07-.52-8.08-1.22-9.24-4-22.05-12.56-27.4s-19.64-1.47-28.65.53-22.61,2.42-25.35,13.25c-2.58,10.16,3.72,20.85,7.22,30a123.85,123.85,0,0,1,7.89,38c.25,4.82,1.06,9.45,5.41,12.23,3,1.9,9,2,10.94,4.95a3.88,3.88,0,0,0,2.84,1.78l.19.12a84.62,84.62,0,0,1,8.15,5.08c2.32,1.65,7.1,4.23,6.67,7.39-.35,2.48-2.19,4.54-2.37,7.18-.23,3.27,1.12,6.25,2.56,9.09,6.2,12.23,13.16,24.7,21.74,35.42s20.13,16.41,33.46,19.26c13.62,2.9,26.6,3.67,39.65-1.93,12.25-5.26,23.45-13.34,34.51-21,.49,4,1.8,8,2,12.15.24,4.9-1.11,9.76-2.2,14.49s-2.21,9.29-3.41,13.91q-6.5,24.91-15.48,49.07a4.28,4.28,0,0,0-.88,1.06c-4,6.86-7.22,14.74-7.94,22.73a11.9,11.9,0,0,0,2.42,9c.94,1.09,3.42,2.13,4,3.4.73,1.53-.4,4.08-.9,5.52-5.82,16.8-14.16,32.86-23.65,47.85-2.74,4.32,4.11,8.29,6.83,4l.44-.72a3.94,3.94,0,0,0,1.66.31l151.67-2a4,4,0,0,0,3.82-2.91L592,849.22c1.22-6.29,2-12.86,3.91-19,1.92-6.35,6.55-7.12,11.74-10,4.73-2.64,7.11-7,8.49-12.09,3.45-12.78,2.82-26.21,2.76-39.31-.06-13.66,1.47-26.39,5.95-39.35,4.24-12.28,9.68-24.12,13-36.73a149.15,149.15,0,0,0-12.69-107.11ZM350.48,604c-2.13,4.27-7.77,5.42-12,6.06-4.67.71-9.87.69-14.24,1.45-2.5.43-4.9.89-7.06-.82-2.33-1.86-2.76-5.18-3.28-7.92-1.76-9.28-3-18.66-4.74-27.95s-3.49-18.42-4.74-27.71c-.56-4.08,4.45-6.25,6.66-4.15,4-3.31,11.06-2.54,15.79-2.7,4.39-.14,11.6-4,15.28.32,1.72,2,1.75,4.95,2,7.46.4,3.47,1.28,6.87,1.72,10.35,1.14,9,.51,18.2,2.36,27.13C349.35,590.92,353.16,598.64,350.48,604Zm76.28,40.3c-8.91,3.93-18.15,3.87-27.36,1.2-4.1-1.19-8.42-2.81-11.57-5.82a11.32,11.32,0,0,1-2.46-3.41,8.08,8.08,0,0,1-2.13-2.71c-1.12-2.37-.28-4.24,0-6.26a4.16,4.16,0,0,1,.08-1.84c0-.16,0-.31-.06-.47-.66-3.62,3.71-7,6.61-3.85a11.87,11.87,0,0,1,1.57,2.05,3.28,3.28,0,0,1,2.42.58c3.69,2.54,6.41,6.48,11.15,6.78a16.66,16.66,0,0,0,5.55-.44,37.44,37.44,0,0,1,4.77-1.44c2.81-.39,5.52.61,6.31,3.56.22.82-.15,2.4.23,3.15.65,1.31,2.64,1.4,3.91,1.69C429,637.77,429.89,642.92,426.76,644.3Z"/><path class="cls-10" d="M502.31,573.72s-.48-24.21-24.29-34.17-26.39-12.17-23.29-39c0,0,2.81-10.75-5-15.61s11.64-12.33,14.92-22.14c2.44-7.3,13.43-31.15,30.33-36.35s37.31-20,44.56-16.86-.91,7.38,5.46,14.86,27.38,0,31.34,5.91,3,7.35-4.69,25.66c0,0-3.35,3,4.83,4.64s10.46,3.84,7.49,9.39a37,37,0,0,1-7.42,9.4s9,4.95-7.12,15.35-22.94,24.13-21.75,31.66,7.37,26.19,15.77,32.69"/><path class="cls-10" d="M483,525.73s18.29,5.73,38-16"/><path class="cls-10" d="M552.86,543.43c3-1.42,7.22-1.42,8.91,1,2.53,2.37,2.53,6.33,5.91,7.91,15.22,5.54,32.13,9.5,44.81,19.79,10.15,14.25,12.69,31.66,18.6,48.29a87.66,87.66,0,0,0,3.39,14.25,5.88,5.88,0,0,1,1.69,3.16c1.69,7.92,2.53,15,1.69,22.17-2.54,12.66-9.3,24.54-10.15,37.2A194.59,194.59,0,0,1,626,719.33c-.84,4.75-2.53,10.29-3.38,15-2.54,7.91-6.76,15-7.61,23-1.69,17.42.85,35.63-5.07,52.25a18.77,18.77,0,0,1-16.07,10.29c-1.69.79-1.69,3.17-2.53,4.75-4.23,15-8.46,29.29-11.84,44.33-48.19,0-97.23.79-145.43-.42,2.55-5.59.59,0,0,0l7.66-16.78L454,824.85l2.81-6.14a14.49,14.49,0,0,1-9.11-9.16c-2.65-9.48,3.27-19,7.5-27.69,14.37-34,25.06-66.6,23-102.81"/><path class="cls-10" d="M462.31,607.66C463.39,599,482,585,485.18,577.9c3.16-5.54-4.47-9.35-.52-14.89s1.69-2.79,8.83-5.21"/><path class="cls-10" d="M580.68,619.75s-18.48,35.42-52.63,23.36-80.1-43.9-91.14-52.38-22.33-22.33-58.28-16.68c0,0-7.44,1.79-6.67,7.19s6.93,5.39,14.12,5.9,9,3.08,8.21,4.88-8,15.15-3.59,22.85,16.43,10.27,24.39,7.19,15.66-1.54,15.66.51-5.39,7.44-3.34,10,7.19.26,9,2.31,34.4,46.21,53.91,54.69,36.71,16.94,68.81,9.75"/><path class="cls-10" d="M371.07,576.43c-6-4.37-15.62-9.21-21.43-1.81-6.38,8.13,11.9,13.85,13,21.11.48,3.11-5.37,3.56-5.4,6.92"/><path class="cls-10" d="M441.06,640.6C430,647,422.23,655.21,408.77,655.21c-15.83.79-33.25-12.67-31.66-30.08,1.58-12.67,9.49-24.54,5.2-36.64"/><path class="cls-10" d="M321.47,621.74s3.25,4.94,13.26,10.33,12.07,8,11.81,10.52-5.13,6.42-3.85,9.5,19.25,55.71,55.2,58.54S467,685.47,475.42,686"/><line class="cls-10" x1="489.21" y1="454.93" x2="483.89" y2="464.48"/><line class="cls-10" x1="506.72" y1="458.1" x2="501.4" y2="467.65"/><path class="cls-10" d="M351.87,572l-5.5-32.91a5.51,5.51,0,0,0-6-4.57l-37.27,4a5.53,5.53,0,0,0-4.86,6.4l12.24,72.54a5.53,5.53,0,0,0,6.29,4.54l36.86-5.75a5.51,5.51,0,0,0,4.59-6.36l-3.9-23.35a4,4,0,0,1-3.95-2.88"/><path class="cls-10" d="M308.7,542,338,538.6a4.41,4.41,0,0,1,4.73,3.9L352,602.78a4.66,4.66,0,0,1-3.6,5.42l-28.93,4.89a4.37,4.37,0,0,1-4.93-3.86l-9.61-61.8A4.64,4.64,0,0,1,308.7,542Z"/><path class="cls-11" d="M492.37,568.4s25.41,42.36,75.47-9.24"/><path class="cls-11" d="M368.36,633.87s3.08,2.31-33.89,10"/><path class="cls-11" d="M454.63,601.52s-2.32,14.63-20,26.18"/></g></svg>