<?xml version="1.0" encoding="UTF-8"?>
<svg width="150px" height="201px" viewBox="0 0 150 201" version="1.1" xmlns="http://www.w3.org/2000/svg" xmlns:xlink="http://www.w3.org/1999/xlink">
    <title>Man 1</title>
    <g id="Page-1" stroke="none" stroke-width="1" fill="none" fill-rule="evenodd">
        <g id="Onboarding-1" transform="translate(-225.000000, -237.000000)">
            <g id="Group" transform="translate(-25.000000, 201.000000)">
                <g transform="translate(249.949843, 37.000000)" id="Man-1">
                    <g id="Group" transform="translate(-0.000000, 0.000000)">
                        <polygon id="Rectangle" fill="#FFFFFF" fill-rule="nonzero" transform="translate(16.847118, 71.812491) rotate(-7.480886) translate(-16.847118, -71.812491) " points="8.36368075 56.8464946 25.3269416 56.848541 25.3305555 86.7784873 8.36729462 86.7764409"></polygon>
                        <path d="M142.19813,76.169051 C139.393502,70.9713285 135.624784,67.1676043 130.348578,64.4776779 C124.9076,61.7036912 119.31938,59.1923926 113.783746,56.6110439 L113.783746,56.6110439 C113.952023,52.9194 110.814346,48.9055253 112.577756,45.4030169 C114.225475,42.117664 118.187011,40.5660527 120.935546,38.376985 C122.337511,37.3097287 123.493625,35.9540274 124.32564,34.4016379 C124.812944,33.4419506 125.145994,32.4122131 125.608757,31.4420183 C126.039969,30.5383711 126.607906,29.690764 126.933944,28.7310767 C128.104876,25.3126285 126.176694,20.8259152 124.511447,17.63513 C124.9076,15.0257612 125.247662,12.227257 123.782244,9.87006878 C122.457057,7.73704114 120.276459,6.92445918 117.853962,7.29572508 C115.273704,7.68800602 113.058048,7.89465402 111.105326,5.81766652 C109.545252,4.15747752 109.885313,1.11379768 107.448793,0.294210709 C105.240149,-0.44832108 101.909653,0.462331114 99.7080205,0.89664216 C96.9868622,1.4315831 94.3223303,2.22198674 91.7498894,3.25733285 C87.3068636,5.03186788 83.16271,7.47705516 79.4621143,10.5075253 C78.8522175,10.4449728 78.2740368,10.791557 78.0422715,11.3586349 C77.9230749,11.607313 77.7968666,11.8524886 77.6741642,12.1011667 C77.5633484,12.2453534 77.4812329,12.409431 77.432265,12.5845128 C74.93892,17.592733 72.0059454,22.370186 68.6678034,26.8607372 C67.1568103,28.8851871 64.6466685,31.12329 65.4144353,33.9252967 C65.7369675,35.1056421 66.4135839,36.117867 66.6765178,37.3332375 C66.927273,38.7194047 67.0271849,40.1286074 66.9745095,41.5362476 C66.9745095,44.1456164 66.8272665,46.8635629 67.6406086,49.385369 C68.4180253,51.659224 69.8273627,53.6649546 71.7038129,55.1680104 C73.5759019,56.7336317 75.6828785,57.9490021 77.7162336,59.2834578 C79.664051,60.5707138 81.4650536,62.0670148 83.0870956,63.7456536 C80.3560894,65.3287874 78.0913525,67.7840458 79.4551027,71.2024941 C79.6374035,71.6543176 80.0160283,72.0991362 80.0545919,72.6034974 C80.1036729,73.254964 79.5707936,73.8048578 79.2026862,74.3547517 C78.5435987,75.3459615 77.8529592,76.3196589 77.1272617,77.2618337 C75.8674261,78.8891817 74.5142624,80.4422284 73.0745747,81.9131649 C70.9122607,81.2174891 68.8933131,80.1377683 67.1147409,78.7258822 C65.447861,77.3149098 63.70775,75.9926324 61.9016391,74.7645451 C58.2411933,72.3255073 54.1806572,70.5472746 49.9048441,69.5107825 C45.9089741,68.5478884 41.7486745,68.4856738 37.7257483,69.328652 C37.1893633,69.4477373 36.6144146,69.6789029 36.071018,69.7489531 C35.2401471,69.8435208 34.9982479,69.5878377 34.3181257,69.2270793 C33.4055009,68.69452 32.4044384,68.3302982 31.3627493,68.1518092 C30.8480662,68.0713419 30.326547,68.043178 29.8061809,68.067749 C29.6238801,68.067749 28.9297347,68.2638895 28.8070323,68.1938393 C28.6843298,68.1237891 28.6457662,65.2026971 28.5861678,64.7718886 C28.0708175,60.8595866 26.8823565,55.4342011 23.2643868,53.1750831 C19.646417,50.9159652 14.9416541,52.5481341 11.1238546,53.3992437 C7.30605516,54.2503532 1.54254523,54.4184736 0.378624739,59.0032572 C-0.715180063,63.3043375 1.95272204,67.8330809 3.43917472,71.6928452 C5.39561803,76.8539324 6.5232027,82.2915424 6.78018746,87.8043841 C6.88886679,89.8463465 7.23243368,91.8042487 9.07647639,92.984594 C10.3350531,93.790171 12.8697354,93.8146885 13.7111237,95.0860991 C13.9761815,95.5086784 14.4207628,95.786282 14.9171136,95.8391384 L14.9977466,95.891676 C16.1875448,96.5444937 17.3403646,97.2624326 18.4509445,98.0422162 C19.4325642,98.7427179 21.4589077,99.831998 21.2766069,101.169956 C21.1293639,102.220709 20.3510797,103.096336 20.2704467,104.213636 C20.1757905,105.593624 20.7472334,106.85803 21.3572399,108.066395 C23.9830726,113.2396 26.9349433,118.521383 30.5704419,123.064137 C34.2059406,127.60689 39.1035217,130.009611 44.7513407,131.214474 C50.525368,132.447357 56.0259441,132.77309 61.5580722,130.401892 C66.7501393,128.174296 71.4934659,124.752346 76.1842057,121.502018 C76.391047,123.179719 76.9449609,124.874933 77.0326056,126.647203 C77.1342733,128.72419 76.5593246,130.780163 76.0965611,132.783597 C75.6337975,134.787032 75.1605166,136.716914 74.6521778,138.671314 C72.8209174,145.69694 70.6387569,152.626569 68.1138895,159.434184 C67.9649944,159.563318 67.8382771,159.715947 67.7387705,159.886008 C66.0244418,162.789587 64.6817263,166.127478 64.3732173,169.510901 C64.2505148,170.869874 64.4818966,172.27438 65.4004122,173.332138 C65.8000716,173.794469 66.8483012,174.235785 67.1077293,174.775171 C67.4197441,175.419633 66.9359458,176.501908 66.7255988,177.111344 C64.2715495,184.221436 60.7272013,191.023308 56.7025605,197.373356 C55.5421458,199.198162 58.4554528,200.875864 59.5983386,199.065067 L59.7841452,198.760349 C60.0057764,198.853875 60.2447816,198.899243 60.4853021,198.893444 L124.767369,198.04934 C125.519807,198.040944 126.177231,197.539432 126.383536,196.816457 L128.136428,187.783487 C128.65879,185.118079 129.005863,182.337087 129.794664,179.727718 C130.611512,177.041294 132.574751,176.715561 134.772878,175.493185 C136.778187,174.379388 137.784347,172.530063 138.366308,170.372518 C139.831726,164.964645 139.56178,159.276571 139.540745,153.7321 C139.512699,147.949459 140.164775,142.555596 142.057899,137.070668 C143.856366,131.869443 146.163173,126.853851 147.554969,121.516028 C151.48618,106.256635 149.566809,90.0802732 142.17359,76.162046 L142.19813,76.169051 Z M25.8236095,83.9481223 C24.9191171,85.7554166 22.528172,86.2422653 20.7226929,86.515461 C18.7419246,86.8131742 16.5402919,86.8061692 14.6892376,87.1283999 C13.6375022,87.3105304 12.6103073,87.5066708 11.6988033,86.7781491 C10.7066662,85.9900847 10.5278712,84.5820763 10.2964894,83.422746 C9.54975732,79.4929315 9.02739541,75.521087 8.28416907,71.58777 C7.54094273,67.654453 6.80823374,63.7911862 6.27535448,59.8578692 C6.04397269,58.1276301 8.16497239,57.2099728 9.10101689,58.106615 C10.7943109,56.7056116 13.7882509,57.0313449 15.790054,56.9647973 C17.6551314,56.9017521 20.6981524,55.2625782 22.2687439,57.1013951 C22.9979471,57.9595096 23.0119703,59.2029001 23.1346727,60.2536527 C23.3029504,61.7247062 23.6745636,63.1642372 23.8603702,64.6352907 C24.3476742,68.4530249 24.0812346,72.3408093 24.8630246,76.1235184 C25.3433171,78.4071539 26.9594838,81.6784968 25.8236095,83.9481223 Z M58.1504496,101.012343 C54.3747195,102.676035 50.4622639,102.651517 46.5568198,101.520207 C44.8039275,101.015846 42.9844253,100.332857 41.6487213,99.0684512 C41.2109064,98.6560284 40.854191,98.1654091 40.596986,97.6219152 C40.2155106,97.3100629 39.9078277,96.9177451 39.6959993,96.4730924 C39.2192126,95.4748775 39.5768026,94.6798081 39.6959993,93.8216936 C39.6493072,93.563333 39.6600791,93.2978733 39.7275514,93.0441367 C39.7228309,92.9783707 39.7146394,92.9128995 39.7030109,92.8479962 C39.4260539,91.3138975 41.2771082,89.8953816 42.5076386,91.2158273 C42.7572304,91.4831957 42.9803057,91.7740955 43.1737377,92.0844494 C43.534349,92.0312663 43.9015176,92.1204601 44.1974268,92.3331275 C45.7610067,93.4083976 46.9144099,95.0720891 48.9232244,95.2016819 C49.7124123,95.272626 50.5079305,95.208665 51.2756059,95.0125464 C51.9767629,94.823411 52.5797578,94.5046827 53.2949379,94.4066125 C54.4869046,94.2384921 55.6332962,94.6622956 55.9698515,95.9126911 C56.0645077,96.2629419 55.9102532,96.9284185 56.0680135,97.2471468 C56.3449705,97.8005431 57.1863588,97.8390707 57.7262496,97.9476485 C59.0794825,98.2488642 59.4791419,100.427424 58.1504496,101.012343 L58.1504496,101.012343 Z" id="Shape" fill="#F6921E" fill-rule="nonzero"></path>
                        <path d="M90.1722863,71.1254389 C90.1722863,71.1254389 89.9689508,60.8770992 79.8793027,56.660079 C69.7896545,52.4430589 68.6888382,51.5043866 70.0070132,40.1457517 C70.0070132,40.1457517 71.1989799,35.5924908 67.9035424,33.5365183 C64.6081049,31.4805458 72.8361814,28.3142782 74.2139547,24.1603032 C75.2481612,21.0710908 79.907349,10.9733589 87.0661612,8.77028113 C94.2249734,6.56720332 102.880756,0.283703184 105.955329,1.62866642 C109.029902,2.97362966 105.569692,4.75290395 108.265641,7.93318161 C110.961589,11.1134593 119.869788,7.93318161 121.549059,10.4339726 C123.22833,12.9347637 122.842693,13.5477026 119.564785,21.2917488 C119.564785,21.2917488 118.144942,22.5421443 121.608657,23.256656 C125.072372,23.9711678 126.043475,24.8853225 124.784898,27.2355056 C123.957439,28.7248548 122.891622,30.0688956 121.629692,31.2143552 C121.629692,31.2143552 125.454503,33.3158603 118.611211,37.7115084 C111.76792,42.1071565 108.88967,47.931828 109.390998,51.1226132 C109.892325,54.3133984 112.518158,62.2080524 116.076529,64.961024" id="Path" stroke="#00555B" stroke-width="3" stroke-linecap="round"></path>
                        <path d="M81.989785,50.8038849 C81.989785,50.8038849 89.7445806,53.2346258 98.0918538,44.0370386" id="Path" stroke="#00555B" stroke-width="3" stroke-linecap="round"></path>
                        <path d="M111.585619,58.3027555 C112.851207,57.700324 114.642663,57.700324 115.361349,58.7055439 C116.434119,59.7107639 116.434119,61.3884654 117.867985,62.0574445 C124.318629,64.4041252 131.484452,66.0818267 136.85882,70.4389472 C141.160418,76.4702667 142.233188,83.8465495 144.74333,90.883089 C145.049495,92.9316087 145.529173,94.9504645 146.177196,96.917911 C146.545495,97.2808687 146.790701,97.749999 146.878353,98.2593717 C147.57951,101.611272 147.954629,104.626932 147.57951,107.642592 C146.506739,113.004932 143.639008,118.034534 143.281418,123.40388 C143.225629,126.542356 142.991534,129.675137 142.580261,132.7871 C142.229682,134.801042 141.503985,137.14422 141.146395,139.158163 C140.070119,142.510063 138.278663,145.525723 137.921073,148.877624 C137.202387,156.232891 138.271651,163.959425 135.772027,170.999467 C134.695751,173.346148 131.828019,175.356588 128.963793,175.356588 C128.245107,175.706838 128.245107,176.698048 127.887517,177.367027 C126.096061,183.734588 124.304605,189.76941 122.87074,196.13697 C102.446038,196.13697 81.6637471,196.487221 61.2320343,195.958342 C62.3153217,193.590646 61.4844508,195.958342 61.2320343,195.958342 L64.4818966,188.855255 L69.6879868,177.472103 L70.8799535,174.869739 C69.0567269,174.25151 67.6291698,172.814914 67.0235905,170.988959 C65.9052452,166.978587 68.4259043,162.954205 70.2033371,159.266064 C76.2963908,144.853242 80.8293703,131.067368 79.9494184,115.733386" id="Path" stroke="#00555B" stroke-width="3" stroke-linecap="round"></path>
                        <path d="M73.2183119,85.4997335 C73.6775697,81.8326072 81.5690909,75.9133679 82.9118064,72.8907031 C84.2510161,70.5440225 81.0151769,68.9293661 82.6909419,66.5861879 C84.366707,64.2430098 83.3920989,65.4058426 86.4351199,64.3831101" id="Path" stroke="#00555B" stroke-width="3" stroke-linecap="round"></path>
                        <path d="M123.38609,90.6168983 C123.38609,90.6168983 115.554167,105.618142 101.068265,100.521992 C86.5823629,95.4258424 67.1182466,81.9341799 62.44153,78.3441088 C57.7648133,74.7540376 52.9759115,68.887336 37.7397715,71.2795492 C37.7397715,71.2795492 34.5845653,72.0395936 34.9106033,74.3232291 C35.2366413,76.6068646 37.8484508,76.6068646 40.8949777,76.8240201 C43.9415045,77.0411756 44.7057655,78.1269532 44.3762218,78.8905001 C44.046678,79.6540469 41.003657,85.303593 42.8547113,88.5644284 C44.7057655,91.8252637 49.8171995,92.9110414 53.1897643,91.6081082 C56.5623291,90.3051751 59.8297204,90.9566417 59.8297204,91.8252637 C59.8297204,92.6938858 57.5439488,94.9775213 58.4274066,96.063299 C59.3108643,97.1490766 61.4739334,96.1753792 62.2381944,97.0440013 C63.0024555,97.9126234 76.8152469,116.609013 85.0853928,120.199085 C93.3555388,123.789156 100.647571,127.372222 114.246509,124.328542" id="Path" stroke="#00555B" stroke-width="3" stroke-linecap="round"></path>
                        <path d="M34.5495075,72.2777641 C32.0078136,70.4214347 27.9270803,68.3759697 25.4660195,71.5072123 C22.7630596,74.9501781 30.5108436,77.3739139 30.9876303,80.4456138 C31.1909658,81.762557 28.7123761,81.955195 28.7018587,83.3772134" id="Path" stroke="#00555B" stroke-width="3" stroke-linecap="round"></path>
                        <path d="M64.2119512,99.4467221 C59.5212114,102.171674 56.2292796,105.632152 50.5393912,105.632152 C43.8293194,105.982403 36.446137,100.269812 37.1192476,92.8935288 C37.7888525,87.5311884 41.1438884,82.5050888 39.3243861,77.3809189" id="Path" stroke="#00555B" stroke-width="3" stroke-linecap="round"></path>
                        <path d="M13.5253171,91.4610029 C13.5253171,91.4610029 14.9030904,93.5625079 19.1345725,95.8321334 C23.3660545,98.1017589 24.2495123,99.205049 24.1408329,100.290827 C24.0321536,101.376604 21.9637407,103.008773 22.5071373,104.311706 C23.0505339,105.614639 30.6686039,127.901101 45.9012381,129.098959 C61.1338723,130.296816 75.1710339,118.444328 78.7609574,118.661483" id="Path" stroke="#00555B" stroke-width="3" stroke-linecap="round"></path>
                        <line x1="84.6156177" y1="20.8294177" x2="82.3613982" y2="24.8748149" id="Path" stroke="#00555B" stroke-width="3" stroke-linecap="round"></line>
                        <line x1="92.0408695" y1="22.1708784" x2="89.78665" y2="26.2127732" id="Path" stroke="#00555B" stroke-width="3" stroke-linecap="round"></line>
                        <path d="M26.4125814,70.4004196 L24.0812346,56.4674411 C23.8783993,55.2482874 22.7590077,54.398775 21.5290234,54.5305539 L5.73546365,56.2082554 C5.09371342,56.2756785 4.50837748,56.6050526 4.11802499,57.1184038 C3.72767249,57.631755 3.56700654,58.2834452 3.67406229,58.919197 L8.86612932,89.664216 C9.07922334,90.924434 10.2663974,91.7796491 11.5305256,91.5835907 L27.1523019,89.1493473 C27.7693767,89.0531145 28.3222763,88.7142594 28.6877745,88.2083036 C29.0532727,87.7023478 29.2009929,87.0713413 29.0980124,86.4559183 L27.4467878,76.554327 C26.6769267,76.5712251 25.9914136,76.0701339 25.7745286,75.3319515" id="Path" stroke="#00555B" stroke-width="3" stroke-linecap="round"></path>
                        <path d="M8.11589141,57.686314 L20.5123458,56.2572905 C21.5159077,56.1772853 22.401903,56.9074321 22.5141489,57.906972 L26.451145,83.4332535 C26.6459315,84.4849993 25.9689727,85.5010398 24.9226229,85.7273966 L12.6523767,87.8008815 C12.1550537,87.8701439 11.6508443,87.7353614 11.254592,87.4272333 C10.8583398,87.1191052 10.6037844,86.6638677 10.5489059,86.1652101 L6.49972469,59.9979696 C6.40003866,59.4764604 6.51544865,58.9368341 6.81976074,58.5015667 C7.12407282,58.0662993 7.59147779,57.7723064 8.11589141,57.686314 L8.11589141,57.686314 Z" id="Path" stroke="#00555B" stroke-width="3" stroke-linecap="round"></path>
                        <path d="M85.9583332,68.8733259 C85.9583332,68.8733259 96.7281036,86.8096717 117.945112,64.961024" id="Path" stroke="#FFFFFF" stroke-width="3" stroke-linecap="round"></path>
                        <path d="M33.4066217,96.5956802 C33.4066217,96.5956802 34.7107736,97.5728801 19.0329047,100.833715" id="Path" stroke="#FFFFFF" stroke-width="3" stroke-linecap="round"></path>
                        <path d="M69.961438,82.8973697 C69.961438,82.8973697 68.9833241,89.0933072 61.4739334,93.9863115" id="Path" stroke="#FFFFFF" stroke-width="3" stroke-linecap="round"></path>
                    </g>
                </g>
            </g>
        </g>
    </g>
</svg>