<?xml version="1.0" encoding="UTF-8"?>
<svg width="209px" height="238px" viewBox="0 0 209 238" version="1.1" xmlns="http://www.w3.org/2000/svg" xmlns:xlink="http://www.w3.org/1999/xlink">
    <title>Group 4</title>
    <g id="Page-1" stroke="none" stroke-width="1" fill="none" fill-rule="evenodd">
        <g id="Onboarding-4" transform="translate(-154.000000, -465.000000)">
            <g id="Group-3" transform="translate(19.000000, 174.000000)">
                <g id="Group" transform="translate(85.000000, 248.000000)">
                    <g id="Group-4" transform="translate(50.938333, 43.783761)">
                        <g id="Group" transform="translate(78.061667, 52.216239)">
                            <g id="Group" transform="translate(0.000000, -0.000000)">
                                <path d="M116.394066,20.4874328 C114.87468,16.5251272 112.783642,12.7971354 109.817077,9.74204464 C106.633886,6.48868838 102.617289,4.3858727 98.3660138,2.91690575 C94.0671288,1.39850431 89.570558,0.510095862 85.0164694,0.279374083 C80.5485692,0.0931246944 75.752722,0.615824592 71.561621,2.24400473 C66.6333917,4.15456298 62.5114904,7.44697153 60.5558439,12.4576809 C58.6001973,17.4683903 60.0383497,22.9717593 61.8014403,27.7781951 C62.5024644,29.6857493 64.4791717,31.1847565 66.6002961,30.4998394 C68.4747081,29.8990349 70.0783383,27.757167 69.3261666,25.7084237 C69.1426366,25.209756 68.9621154,24.7080842 68.7906203,24.2064125 C69.6150005,23.5875839 70.4002678,22.9146829 71.1614656,22.2177497 C71.4984386,21.9173474 71.8324028,21.5989211 72.1753932,21.2985188 C72.2325582,21.2474504 72.7259829,20.8599315 72.7049221,20.8629356 C72.8974781,20.7277546 73.090034,20.5985816 73.3066595,20.4814247 C73.523285,20.3642678 73.7068149,20.2621311 73.9083969,20.1569903 L73.9986575,20.1089259 L74.070866,20.1089259 C74.5642907,20.0007811 75.0456806,19.8085237 75.542114,19.7033829 L75.9512954,19.6252783 L76.5530328,19.5501778 C77.127692,19.4991094 77.7053599,19.4720732 78.2830278,19.4570531 C80.8704987,19.3909646 83.4760217,19.4570531 86.0574751,19.586226 C87.2158196,19.6493105 88.3651381,19.7514473 89.5174652,19.8866283 L89.6468388,19.9046524 C90.0078812,19.9677369 90.365915,20.0278173 90.7239487,20.1059219 C91.259495,20.2260828 91.7769892,20.4063242 92.297492,20.5595293 C92.3856079,20.5898093 92.4719877,20.6249093 92.5562391,20.6646701 C92.7909167,20.7788229 93.0225856,20.9019879 93.2512458,21.0341648 C93.431767,21.1393056 93.6122883,21.2504545 93.7867921,21.3646073 L94.0876608,21.5778929 C94.2260604,21.6920457 94.4908249,21.8993233 94.4968422,21.9053313 C94.6563027,22.0435164 94.797711,22.1877094 94.9631887,22.3349065 C95.3844049,22.7404496 95.7544734,23.1850449 96.1456027,23.6206281 L96.1456027,23.6206281 C96.1666635,23.6476643 96.1847157,23.6807086 96.2087852,23.7137528 C96.326124,23.8909901 96.4494801,24.0622194 96.5668189,24.2394567 C96.8827311,24.7261084 97.1685563,25.2277801 97.4393382,25.7414679 C97.5506596,25.9577576 97.6499463,26.1800552 97.7642764,26.3963448 L97.854537,26.5735821 C97.854537,26.5946103 97.8725891,26.6156385 97.8816152,26.6426747 C98.1223101,27.2735194 98.353979,27.90136 98.5525524,28.5472249 C98.8700796,29.5917835 99.135174,30.65152 99.3468457,31.7224765 C99.4671932,32.323281 99.5694886,32.9240855 99.6687753,33.5459181 C99.6687753,33.5999905 99.6868274,33.6450509 99.6928447,33.6871072 C99.7409837,34.0956542 99.786114,34.5042013 99.8192096,34.9157523 C99.9229722,36.0903251 99.9501077,37.2703929 99.9004442,38.4484827 C99.9004442,38.6948125 99.8763747,38.9411424 99.8583225,39.1874722 C99.8583225,39.160436 99.8312444,39.4638423 99.8131922,39.6891439 C99.7951401,39.9144456 99.7108969,40.3770651 99.7169142,40.3470248 C99.6507231,40.7105116 99.575506,41.0709942 99.488254,41.4314769 C99.3419535,42.0298626 99.1652148,42.6204178 98.9587251,43.2008461 C98.8985514,43.3690714 98.4803439,44.2732821 98.8985514,43.3931036 C98.7691778,43.6694736 98.642813,43.9458437 98.498396,44.2132017 C98.2635118,44.6638162 98.0054223,45.1019884 97.7251634,45.5259595 C97.613842,45.6941847 97.4934945,45.8594059 97.3761557,46.0246272 C97.2588169,46.1898484 97.1505042,46.2919852 97.0361741,46.4211581 C96.921844,46.5503311 96.825566,46.6434558 96.7353054,46.7516006 C95.1306723,47.7529414 93.4829147,48.6731736 91.7920326,49.5122972 C90.0590289,50.3804597 89.4873783,52.6995649 90.1974285,54.3758094 C90.6288704,55.4046183 91.4861571,56.1959133 92.5472131,56.5447136 C92.3860783,57.1003012 92.3359853,57.6821121 92.3997874,58.2570064 C92.5742912,59.8491383 93.2392111,61.158892 94.806737,61.8167729 C96.2600896,62.430038 97.9401714,62.1113648 99.0670378,61.0086909 C99.1964114,60.882522 99.7710706,60.4078864 99.7139056,60.4078864 C100.029818,60.1855888 100.351747,59.9783112 100.685711,59.7830498 L100.875259,59.677909 C101.32957,59.6268406 101.777865,59.5637561 102.232177,59.4706314 C104.029428,59.062334 105.743849,58.3512162 107.301814,57.3678158 C110.569248,55.3761489 113.448562,52.6184563 114.676106,48.9205048 C114.775393,48.6201025 114.856627,48.3197003 114.928836,48.0192981 C115.229705,47.4965982 115.530573,46.9618822 115.786312,46.4151501 C119.667518,38.3643701 119.577257,28.7965587 116.394066,20.4874328 Z" id="Path" fill="#00DACE" fill-rule="nonzero"></path>
                                <polygon id="Rectangle" fill="#FFFFFF" fill-rule="nonzero" transform="translate(14.206511, 74.193332) rotate(-7.200000) translate(-14.206511, -74.193332) " points="6.91415803 61.3374016 21.4939003 61.3402124 21.4988641 87.0492631 6.91912187 87.0464523"></polygon>
                                <path d="M122.065442,77.5818825 C119.658492,73.1239132 116.421145,69.8615449 111.893071,67.5574597 C107.226597,65.178274 102.427741,63.027394 97.6770244,60.8074214 L97.6770244,60.8074214 C97.8214414,57.6441858 95.1286665,54.1985721 96.6420361,51.1945497 C98.056119,48.3767767 101.455935,47.0459948 103.817755,45.1684808 C105.01925,44.2533951 106.010313,43.0917768 106.724146,41.7619194 C107.142354,40.9388173 107.428179,40.0526306 107.825326,39.2205164 C108.195394,38.4454787 108.682802,37.7185052 108.962609,36.8954031 C109.967511,33.9664813 108.315742,30.1153246 106.883607,27.3786601 C107.223588,25.1406635 107.515431,22.7404496 106.2578,20.7187425 C105.123525,18.8892928 103.249113,18.1953637 101.17011,18.510786 C98.9557164,18.8502406 97.0542262,19.0244739 95.3783875,17.2430886 C94.0395218,15.8011578 94.3313645,13.1936664 92.2433357,12.4967332 C90.3478628,11.8598804 87.4896102,12.6409263 85.6001547,13.013425 C83.2647359,13.4718136 80.9779784,14.1497366 78.7704351,15.0381361 C74.9546395,16.567597 71.3977359,18.675126 68.2249871,21.2865027 C67.7011102,21.2307827 67.2037581,21.5287313 67.0064689,22.0164802 C66.9011648,22.2297658 66.7928521,22.4400473 66.687548,22.6503289 C66.5944867,22.7748301 66.5251376,22.9153498 66.4829573,23.064884 C64.3424104,27.3608611 61.8253566,31.4593084 58.9612397,35.3122833 C57.6675043,37.0486082 55.5132844,38.9651745 56.1721869,41.3713965 C56.4489861,42.380748 57.0296627,43.2519145 57.2553142,44.2913063 C57.4717825,45.4850762 57.556532,46.6989419 57.5080439,47.9111532 C57.5080439,50.1461459 57.3846877,52.4802713 58.0827031,54.6401634 C58.7485535,56.5911266 59.9570243,58.3124553 61.5667627,59.6028084 C63.1734016,60.9426024 64.9846312,61.9849982 66.7296696,63.1295307 C68.4022227,64.2302288 69.9497826,65.5094686 71.3449955,66.9446392 C68.9982197,68.3024573 67.0576165,70.408277 68.2279958,73.3402029 C68.3814388,73.7277217 68.706377,74.1092326 68.7394726,74.5418118 C68.7846029,75.10056 68.3242738,75.5751955 68.0113703,76.043823 C67.4457372,76.8939614 66.8530258,77.7290796 66.2302276,78.5401656 C65.1482399,79.9343055 63.9869819,81.2652746 62.7521854,82.5265034 C60.8964735,81.929838 59.1637996,81.0037858 57.6374174,79.792843 C56.2050013,78.5850346 54.7117513,77.4510418 53.1634998,76.3952936 C50.0213756,74.3026824 46.5354823,72.7774901 42.8647641,71.88926 C39.4367954,71.0618621 35.867253,71.0074733 32.4155941,71.7300468 C31.9522563,71.8321836 31.4588316,72.0304491 30.9924851,72.0905295 C30.282435,72.1746422 30.0748356,71.9523445 29.4881416,71.6429302 C28.7040947,71.1879261 27.8453021,70.8756598 26.9518184,70.7206953 C26.5101141,70.6516803 26.062543,70.6275248 25.6159614,70.6485988 C25.4595097,70.6485988 24.8607809,70.816824 24.7584856,70.7567436 C24.6561902,70.6966631 24.6170773,68.1913085 24.5689383,67.8218137 C24.1266613,64.4663207 23.1067164,59.81309 19.9987427,57.8754955 C16.890769,55.9379011 12.8591284,57.3377755 9.5796595,58.067753 C6.30019064,58.7977304 1.35691785,58.9419235 0.358033757,62.8741888 C-0.559615788,66.5691364 1.72999504,70.4413212 3.00868703,73.7517539 C4.68771933,78.1783019 5.65541979,82.8420172 5.87596577,87.570257 C5.97224376,89.318598 6.26709508,91.0008505 7.84665578,92.0102021 C8.92677442,92.7011272 11.1050638,92.7221554 11.82414,93.8126155 C12.0525823,94.1740832 12.4336052,94.4118532 12.8591284,94.4584803 L12.9283282,94.5035407 C13.9494206,95.0634476 14.9387781,95.6792076 15.8918849,96.3480104 C16.7373259,96.9488149 18.4763471,97.8830659 18.3168866,99.0306024 C18.1935305,99.9318091 17.5225933,100.682815 17.4564021,101.641098 C17.3721589,102.827687 17.8625749,103.909135 18.3860864,104.945523 C20.6426017,109.385468 23.1729075,113.912529 26.2959246,117.808746 C29.4189418,121.704963 33.6160602,123.768727 38.463055,124.799107 C43.4213712,125.856522 48.1389925,126.135897 52.8867006,124.102173 C57.3425661,122.191615 61.4163283,119.256685 65.4419516,116.468952 C65.6194641,117.907879 66.0948367,119.361826 66.1670452,120.884865 C66.2542971,122.663247 65.7608724,124.426608 65.3667344,126.144909 C64.9725964,127.863209 64.563415,129.518426 64.1241467,131.19467 C62.553612,137.226747 60.6641566,143.171708 58.4979019,149.017535 C58.3693245,149.126349 58.2604302,149.256413 58.1759724,149.40205 C56.7017158,151.892385 55.5493886,154.755218 55.2876329,157.657104 C55.1823288,158.822664 55.3809022,160.030281 56.1661695,160.934492 C56.5091598,161.331023 57.4117659,161.70953 57.6344088,162.172149 C57.8991732,162.724889 57.4869831,163.653132 57.3064619,164.175832 C55.2003809,170.273998 52.1555897,176.110813 48.701617,181.554102 C47.7087502,183.122201 50.2059605,184.558124 51.1898011,183.005045 L51.3492615,182.743695 C51.5393316,182.824355 51.7445448,182.863285 51.950999,182.857847 L107.109258,182.115854 C107.754168,182.109044 108.318108,181.680332 108.496263,181.061442 L110.000607,173.311064 C110.445892,171.025003 110.746761,168.639809 111.423715,166.401813 C112.121731,164.097728 113.806596,163.818353 115.693042,162.76995 C117.414011,161.814671 118.280513,160.228547 118.779955,158.381073 C120.034578,153.739858 119.805918,148.861326 119.784857,144.105959 C119.763796,139.146318 120.320403,134.520123 121.948103,129.815824 C123.48855,125.354851 125.471275,121.056095 126.662715,116.477965 C130.035845,103.389602 128.389788,89.5151629 122.047389,77.5758744 L122.065442,77.5818825 Z M22.1920755,84.2538162 C21.4128256,85.8038918 19.3639097,86.2214509 17.8144359,86.4557647 C16.1145277,86.7141106 14.2250723,86.7050985 12.6364855,86.9814686 C11.7338794,87.1406818 10.8523341,87.305903 10.0670668,86.6810663 C9.21861706,86.0051613 9.06517402,84.8005483 8.86359199,83.8032129 C8.22274165,80.4326997 7.77444729,77.0261383 7.13660564,73.6526212 C6.49876399,70.279104 5.88198314,66.9686713 5.41563665,63.5951542 C5.21405462,62.1141711 7.03731896,61.3241133 7.8406384,62.093143 C9.29082555,60.891534 11.863253,61.1739121 13.5812133,61.1138317 C15.1788261,61.0597593 17.7933751,59.6568808 19.1382582,61.2309886 C19.7640651,61.9669741 19.7760999,63.033402 19.8814039,63.9346087 C20.0288296,65.1932941 20.3447417,66.4279473 20.5072108,67.6896367 C20.9224096,70.9670252 20.6937494,74.298486 21.3646866,77.5428302 C21.7798854,79.5044568 23.1668901,82.3102137 22.1920755,84.2538162 Z M49.9442047,98.8894134 C46.7038488,100.316324 43.346154,100.295296 39.9944767,99.3249966 C38.5051766,98.8924174 36.9316333,98.306633 35.7823149,97.2221809 C35.4058237,96.8691194 35.0995775,96.4481741 34.8797087,95.9815197 C34.5533801,95.7130205 34.2895234,95.3767917 34.1064762,94.9962003 C33.6972947,94.1400539 34.0041808,93.4611449 34.1064762,92.7251594 C34.0633333,92.5027865 34.0726038,92.2734407 34.1335544,92.0552624 C34.1335544,92.00119 34.1335544,91.9441136 34.1094849,91.8870371 C33.8717986,90.5742794 35.4603853,89.3546463 36.5164345,90.4871627 C36.7322901,90.7161632 36.9238583,90.9668293 37.088085,91.2351643 C37.3981511,91.1878793 37.7144551,91.2633297 37.9696303,91.4454459 C39.3084961,92.3676807 40.2983541,93.7945914 42.0253404,93.9057402 C42.7016222,93.9680912 43.3836096,93.9132103 44.0411607,93.743523 C44.6428982,93.5843098 45.1603923,93.3079397 45.7741645,93.2238271 C46.7971181,93.079634 47.7839674,93.4431208 48.0728014,94.5155567 C48.1510272,94.815959 48.018645,95.3867232 48.1540359,95.6600893 C48.3917222,96.1347248 49.1168158,96.1677691 49.5771449,96.2608938 C50.7324807,96.5192397 51.0724623,98.3877416 49.9442047,98.8894134 Z" id="Shape" fill="#00DACE" fill-rule="nonzero"></path>
                                <path d="M94.6593113,58.4372477 C95.0895536,61.1739121 96.5969058,65.6078492 99.6507231,67.9660068" id="Path" stroke="#00555B" stroke-width="3" stroke-linecap="round"></path>
                                <path d="M77.416526,73.2560902 C77.416526,73.2560902 77.2420221,64.4663207 68.5800122,60.8614938 C59.9180022,57.2566669 58.9702658,56.4275567 60.1075495,46.6855121 C60.1075495,46.6855121 61.1305031,42.780283 58.3023373,41.0169218 C55.4741715,39.2535607 62.5385686,36.5379244 63.7179739,32.9751539 C64.62058,30.3256061 68.601073,21.6650095 74.7478206,19.7784835" id="Path" stroke="#00555B" stroke-width="3" stroke-linecap="round"></path>
                                <path d="M70.4032765,55.8297563 C70.4032765,55.8297563 77.0554835,57.9115438 84.222176,50.025985" id="Path" stroke="#00555B" stroke-width="3" stroke-linecap="round"></path>
                                <path d="M95.7996037,62.2583642 C96.8887484,61.7416724 98.4261875,61.7416724 99.0399597,62.6068308 C99.9636266,63.4689853 99.9636266,64.904908 101.19418,65.4786762 C106.727155,67.4913712 112.87992,68.930298 117.492237,72.6673018 C121.180888,77.8402284 122.104554,84.1666996 124.255766,90.2017806 C124.519607,91.9585399 124.931247,93.689976 125.486319,95.3777112 C125.806932,95.6877097 126.022565,96.089951 126.1031,96.5282518 C126.704837,99.4031012 127.023758,101.989564 126.704837,104.576028 C125.78117,109.175186 123.323073,113.488962 123.013178,118.094129 C122.965188,120.786922 122.764286,123.474831 122.411441,126.144909 C122.110572,127.869217 121.487774,129.881912 121.180888,131.606221 C120.260229,134.481071 118.719782,137.067534 118.412895,139.942383 C117.811158,146.250831 118.713764,152.880708 116.56857,158.915789 C115.644903,160.928484 113.186806,162.652793 110.7257,162.652793 C110.123963,162.953195 110.123963,163.803333 109.802033,164.377102 C108.264594,169.841418 106.727155,175.014345 105.496602,180.475658 C87.9710001,180.475658 70.1324947,180.77606 52.6008754,180.325457 C53.5305596,178.294737 52.8144921,180.325457 52.6008754,180.325457 L55.3899282,174.230295 L59.8728719,164.461214 L60.8928168,162.23223 C59.3282027,161.700144 58.1034058,160.467241 57.5832611,158.900769 C56.6204812,155.461163 58.7867359,152.009541 60.3121402,148.84931 C65.5382296,136.487758 69.4284619,124.660922 68.6762902,111.509311" id="Path" stroke="#00555B" stroke-width="3" stroke-linecap="round"></path>
                                <path d="M62.8635068,85.5845982 C63.2576448,82.4423907 70.0301993,77.3625888 71.1825264,74.7701175 C72.3348536,72.7574225 69.5548268,71.3755722 70.9959879,69.3628772 C72.4371489,67.3501822 71.5977253,68.3475176 74.2062569,67.4703431" id="Path" stroke="#00555B" stroke-width="3" stroke-linecap="round"></path>
                                <path d="M105.920827,89.9734749 C105.920827,89.9734749 99.1964114,102.839703 86.7765513,98.4568341 C74.3566913,94.0739655 57.6434348,82.5144873 53.6268376,79.4383683 C49.6102404,76.3622494 45.5033826,71.3275078 32.4306375,73.3762511 C32.4306375,73.3762511 29.7228192,74.031128 30.0026271,75.9867466 C30.282435,77.9423652 32.5239068,77.9453692 35.1384558,78.1316186 C37.7530049,78.317868 38.4058899,79.2521189 38.126082,79.9039918 C37.8462742,80.5558647 35.2317251,85.4043568 36.8173032,88.1980976 C38.4028813,90.9918385 42.7955643,91.9290935 45.6899212,90.8085931 C48.5842782,89.6880928 51.3853658,90.2498449 51.3853658,90.9948425 C51.3853658,91.7398401 49.4237018,93.6984627 50.181891,94.6327136 C50.9400801,95.5669646 52.79644,94.7258383 53.4493251,95.4708359 C54.1022102,96.2158334 65.9624545,112.254309 73.0599472,115.330428 C80.1574399,118.406547 86.4125002,121.482666 98.0862059,118.87217" id="Path" stroke="#00555B" stroke-width="3" stroke-linecap="round"></path>
                                <path d="M29.6776889,74.2444136 C27.4963908,72.6552857 23.9972878,70.8979326 21.8851895,73.5865327 C19.5654918,76.5364827 26.2116814,78.6152662 26.6208628,81.2497938 C26.7983754,82.3793063 24.6712336,82.5475315 24.6591989,83.7641606" id="Path" stroke="#00555B" stroke-width="3" stroke-linecap="round"></path>
                                <path d="M55.1371985,97.5466153 C51.1115753,99.8837448 48.2864181,102.851719 43.4033191,102.851719 C37.6446921,103.152121 31.3114059,98.2525606 31.8860651,91.9290935 C32.4607244,87.3269311 35.3400379,83.016159 33.7785293,78.6242783" id="Path" stroke="#00555B" stroke-width="3" stroke-linecap="round"></path>
                                <path d="M11.6376014,90.7004483 C11.6376014,90.7004483 12.8200154,92.5028617 16.4515007,94.4494683 C20.0829859,96.3960748 20.8411751,97.3393378 20.7479058,98.2705847 C20.6546365,99.2018317 18.8795111,100.601706 19.3488663,101.722206 C19.8182215,102.842707 26.350081,121.954297 39.4228262,122.978669 C52.4955713,124.003041 64.5423542,113.840433 67.6262584,114.026682" id="Path" stroke="#00555B" stroke-width="3" stroke-linecap="round"></path>
                                <line x1="72.647757" y1="30.1183286" x2="70.7131713" y2="33.5879744" id="Path" stroke="#00555B" stroke-width="3" stroke-linecap="round"></line>
                                <line x1="79.0201562" y1="31.2688692" x2="77.0855704" y2="34.738515" id="Path" stroke="#00555B" stroke-width="3" stroke-linecap="round"></line>
                                <path d="M22.697535,72.6462737 L20.6967581,60.6932686 C20.5198798,59.6480157 19.5592368,58.9204273 18.5034252,59.0320442 L4.9643336,60.4709709 C4.41412465,60.5295637 3.91256132,60.8123837 3.57819871,61.2525803 C3.2438361,61.6927769 3.10634861,62.2512832 3.19823431,62.7960842 L7.64808243,89.1413607 C7.83248638,90.2185953 8.84633665,90.9504272 9.9286672,90.7875649 L23.3353766,88.6997694 C23.8645816,88.6164721 24.3385758,88.3256621 24.6521024,87.8919176 C24.965629,87.4581731 25.0927361,86.9173971 25.0051979,86.3896762 L23.5850976,77.9123249 C22.9240671,77.9278688 22.3351832,77.4976762 22.1499539,76.8639211" id="Path" stroke="#00555B" stroke-width="3" stroke-linecap="round"></path>
                                <path d="M6.99519735,61.7296563 L17.630906,60.5040151 C18.4927816,60.4353044 19.2540432,61.0611756 19.351875,61.9189097 L22.7276218,83.8122249 C22.8966338,84.7136763 22.3165685,85.5857539 21.418843,85.7798596 L10.8884384,87.5582409 C10.4616325,87.6176457 10.0289167,87.5020457 9.6888505,87.2377712 C9.34878426,86.9734967 9.13032323,86.5830498 9.08322614,86.1553624 L5.60819262,63.7123111 C5.52264142,63.2650244 5.62168703,62.8021992 5.88284963,62.4288801 C6.14401223,62.0555611 6.54514219,61.80341 6.99519735,61.7296563 L6.99519735,61.7296563 Z" id="Path" stroke="#00555B" stroke-width="3" stroke-linecap="round"></path>
                                <path d="M73.7970755,71.3275078 C73.7970755,71.3275078 83.0427707,86.7111066 101.251345,67.9690108" id="Path" stroke="#FFFFFF" stroke-width="3" stroke-linecap="round"></path>
                                <path d="M28.6938482,95.1073492 C28.6938482,95.1073492 29.8160885,95.9454714 16.3582314,98.7422163" id="Path" stroke="#FFFFFF" stroke-width="3" stroke-linecap="round"></path>
                                <path d="M60.0714452,83.3526095 C60.0714452,83.3526095 59.2290129,88.6667251 52.7874139,92.8633444" id="Path" stroke="#FFFFFF" stroke-width="3" stroke-linecap="round"></path>
                                <path d="M65.5412383,28.3880117 C65.5412383,28.3880117 58.2541983,19.9046524 62.9658022,13.2327187 C67.8489012,6.32346715 76.637276,3.57178263 80.2777873,3.21730799 C83.9182986,2.86283335 110.638448,2.15388406 116.135319,24.4016739 C121.632191,46.6494638 106.549642,57.0193492 103.086644,58.0827731 C99.6236449,59.146197 90.7510269,60.6542163 91.9003453,52.2339415 C91.9003453,52.2339415 85.154869,44.522616 90.3027325,37.3430024 C90.3027325,37.3430024 85.9521711,33.26354 89.0601448,24.7561486 C89.0601448,24.7561486 77.1637963,25.6423352 73.6135456,17.7537724" id="Path" stroke="#00555B" stroke-width="3" stroke-linecap="round"></path>
                            </g>
                        </g>
                        <g id="Speech_bubble" transform="translate(0.061667, 0.216239)" fill="#00DACE" fill-rule="nonzero">
                            <path d="M69.2798385,0 C102.814721,0 130,18.9419293 130,42.3054135 C130,65.6688978 102.814721,84.6108271 69.2798385,84.6108271 C58.7664376,84.6108271 48.8795025,82.7477611 40.2561171,79.4725915 C23.2368762,85.8862756 0,98 0,98 C0,98 15.1519783,89.4134982 21.3984341,78.9882247 C22.9941776,76.3234483 23.9285673,73.5296086 24.4640211,70.8466115 C14.5892209,63.3229835 8.55967702,53.3046388 8.55967702,42.3054135 C8.55967702,18.9419293 35.7449564,0 69.2798385,0 M69.2975207,3.23076923 C37.603391,3.23076923 11.8181818,20.6529069 11.8181818,42.0689745 C11.8181818,51.5592913 17.0065393,60.7194311 26.4270641,67.8621592 L28.1053373,69.1359154 L27.6933699,71.1957352 C27.016892,74.5732339 25.8433168,77.6659927 24.2060883,80.3876811 C23.6877086,81.2464442 23.1161228,82.0946053 22.5034922,82.9230769 C28.0141268,80.4300891 33.7847113,77.9613345 39.0217144,75.9969328 L40.2150518,75.5486191 L41.4083892,75.999962 C49.8970467,79.209343 59.5410372,80.9056652 69.2975207,80.9056652 C100.99165,80.9056652 126.77686,63.4835276 126.77686,42.0674599 C126.77686,20.6513923 100.99165,3.23076923 69.2975207,3.23076923 L69.2975207,3.23076923 Z" id="path5" transform="translate(65.000000, 49.000000) scale(-1, 1) translate(-65.000000, -49.000000) "></path>
                        </g>
                        <text id="Staff" font-family="ComicSansMS-Bold, Comic Sans MS" font-size="18" font-weight="bold" fill="#FFFFFF">
                            <tspan x="34.0616667" y="48.2162389">Staff</tspan>
                        </text>
                    </g>
                </g>
            </g>
        </g>
    </g>
</svg>