<?xml version="1.0" encoding="UTF-8"?>
<svg width="201px" height="239px" viewBox="0 0 201 239" version="1.1" xmlns="http://www.w3.org/2000/svg" xmlns:xlink="http://www.w3.org/1999/xlink">
    <title>Group 5</title>
    <g id="Page-1" stroke="none" stroke-width="1" fill="none" fill-rule="evenodd">
        <g id="Onboarding-4" transform="translate(-79.000000, -194.000000)">
            <g id="Group-3" transform="translate(19.000000, 174.000000)">
                <g id="Group-5" transform="translate(60.500000, 20.783761)">
                    <text id="Student" font-family="ComicSansMS-Bold, Comic Sans MS" font-size="18" font-weight="bold" fill="#FFFFFF">
                        <tspan x="106.5" y="47.2162389">Student</tspan>
                    </text>
                    <g id="Group" transform="translate(0.000000, 53.216239)">
                        <path d="M52.1258395,4.95287213 C52.0143144,2.44604289 50.2323381,0.851008956 47.8272761,0.639472444 C40.9369674,0.0340403583 33.8648245,-0.201810695 27.1175588,1.61205411 C23.9657639,2.45333725 20.7533575,3.72985068 18.1349432,5.71148582 C14.9831483,8.08701654 13.0702512,11.2357497 11.7101305,14.8975196 C9.22506136,21.591313 8.99231342,28.9999538 8.86624163,36.0511708 C8.73774537,43.4209084 8.82987476,50.7955089 9.04080258,58.162815 C9.28324834,66.5878037 9.67843494,75.005498 10.076046,83.4231923 C10.160902,85.2565087 11.3440373,87.1506115 13.2278409,87.5809789 C14.9904217,87.9846003 17.233045,87.3524222 18.0767562,85.5993437 C22.128025,77.2521616 29.3650311,70.2447107 31.1227629,60.8520033 C31.7240284,57.6400523 31.5543163,54.4961821 29.910534,51.6003202 C28.5795068,49.2612613 26.535689,47.2237027 24.5767272,45.3976806 C23.6069441,44.4980426 22.5741252,43.4282028 21.3885654,42.8422223 C20.1559518,42.2088509 18.7319864,42.0597137 17.3954836,42.4240122 C17.3954836,41.9547416 17.3954836,41.4854709 17.3954836,41.0162002 C17.4124548,37.4978861 17.4439728,33.9771404 17.6185337,30.4636892 C17.6961164,28.9026956 17.8100659,27.3441335 17.9822024,25.7928657 C17.9822024,25.7539625 18.0670584,25.1266473 18.0816052,24.9783286 C18.1300943,24.6500823 18.1785835,24.321836 18.234346,24.0057469 C18.3725401,23.1717582 18.5349787,22.3377694 18.7192375,21.5135064 C19.045244,20.0494131 19.4672078,18.6084843 19.98238,17.2001067 C20.0235957,17.0882598 20.3824155,16.2712912 20.2248257,16.5898117 C20.3363508,16.3466663 20.4503003,16.1035209 20.5739476,15.8603755 C20.7436597,15.5345606 20.9206451,15.2136087 21.1121772,14.9023826 C21.1897599,14.7735155 21.7619319,13.9978816 21.698896,14.0416478 C22.0358956,13.6647724 22.3995642,13.3122115 22.753535,12.9572192 C22.811722,12.8988643 22.8553623,12.8502352 22.8917291,12.811332 L23.0371966,12.7189367 C23.3475272,12.5146946 23.6481599,12.3055895 23.9657639,12.1135046 C24.4942956,11.7949841 25.0397986,11.5080725 25.5949994,11.243044 C25.6531864,11.216298 26.2350562,10.9682897 26.2714231,10.9464066 C26.6690342,10.7907936 27.0690697,10.6400434 27.4836519,10.503882 C29.1235219,9.95294614 30.8051029,9.53580993 32.5119771,9.25654599 C32.5847108,9.24438872 33.2393144,9.14956201 33.2999258,9.13740474 C33.7120836,9.08877565 34.1242414,9.04500948 34.5363992,9.00853767 C35.3445518,8.93721501 36.145431,8.88777544 36.9390368,8.86021896 C40.5757232,8.72162608 44.2124097,8.95261422 47.8272761,9.27113472 C50.0723239,9.4632196 52.2252422,7.14118087 52.1258395,4.95287213 Z" id="Path" fill="#53C9FF" fill-rule="nonzero"></path>
                        <path d="M127.407674,57.55252 C127.31312,55.9428973 126.607603,55.0213762 125.569935,54.4451216 C125.755795,53.6120065 125.297489,52.7697006 124.498325,52.4756437 C119.58389,50.6302186 114.515339,49.2274015 109.352738,48.2838167 C107.473783,47.9434132 104.855369,47.0048718 103.291594,48.5731598 C102.460005,49.4120115 101.836919,50.5839724 101.155647,51.5443968 L98.8524118,54.8195655 C95.8679044,59.062453 92.8397568,63.2931833 90.3061986,67.8302767 C89.7243287,68.8709391 89.1715524,69.9245693 88.6478695,70.9911671 C88.1096399,72.1023417 87.7314245,73.5514884 86.9822671,74.5313644 C86.271901,75.4601799 85.011183,76.0631805 84.0559467,76.7196732 L83.2510268,77.2789076 C82.7855309,75.7252084 81.8472658,74.314965 80.8871806,72.8877014 C79.2967364,70.5170336 77.5438535,68.1220512 75.4733667,66.1477105 C73.0125421,63.7964943 69.9116608,62.7290859 66.6580386,62.2889927 C63.7632362,62.113928 60.8732827,61.8634882 57.9736313,61.851331 C57.7601541,61.8541253 57.550171,61.796845 57.3675169,61.6859921 C56.0292163,61.8294479 55.5128068,59.7408287 56.9117189,59.4125824 C59.3798168,58.8338963 61.855188,56.5361722 62.4879715,54.0487946 C63.1328772,51.4933362 61.6369868,48.9427408 62.7304172,46.4067341 C63.5498839,44.4883168 65.4215652,42.8641054 64.8954579,40.5882643 C64.6530122,39.5111301 63.8990058,38.6114921 63.3583518,37.6705193 C62.8010259,36.7329438 62.4159046,35.7027152 62.2212811,34.6287702 C61.7363896,31.8350293 60.9314697,29.0850547 60.7981245,26.2791566 C60.6599304,23.3249398 61.4527281,20.3658601 61.283016,17.4067803 C60.99693,12.5001058 60.9411675,7.78551622 56.531079,4.66839199 C55.0060952,3.58882634 50.692985,1.58773957 50.7123807,1.49534431 C49.1825479,1.25219889 48.7849368,0.765908061 47.2478307,0.790222602 C46.1277313,0.731867703 45.1700705,1.77496154 44.8864089,1.70201791 C43.6741801,1.39322323 36.7281089,0.226125237 32.5992576,1.36890869 C30.1602532,2.04485295 27.7891336,3.16575332 25.4131651,4.05566554 C23.1026569,4.91883177 17.9143176,6.94180163 16.1711325,10.5184707 C15.9044422,11.0655479 15.5868382,11.1725319 15.1625581,11.6077622 C14.7382781,12.0429925 14.3164224,12.1183675 13.625452,11.960323 C13.3999774,11.960323 13.1817762,11.960323 12.9635751,11.960323 C9.62024796,15.220903 10.1802977,20.0084363 9.54024085,24.3315618 C9.11111185,27.2225608 8.48802623,30.1184227 8.63349369,33.0556193 C8.71107634,34.6676734 8.97776668,36.2627074 9.21293907,37.8577413 C9.89485601,38.186458 10.5123836,38.6352927 11.0361312,39.1828838 C12.2847269,40.5615183 12.5295971,42.540722 13.1308626,44.3010948 C14.0085163,44.9673133 14.997695,45.8183222 15.5286512,46.8298071 C16.3258363,47.3481246 17.0894556,47.9166039 17.8149148,48.5318251 C19.1604888,49.7062174 20.6781993,50.7882145 22.1037804,51.9553125 C22.7967273,52.3987865 23.4153397,52.9494304 23.9366704,53.5868183 C24.4268353,54.067932 24.8844571,54.5812977 25.306489,55.1234973 C27.1175588,57.4917336 27.9733924,60.9006324 27.5491123,63.8524177 C27.1830192,66.4273277 25.4349852,67.8229824 23.6918002,69.5468834 L23.6627067,69.5711979 C22.9790096,70.7237072 22.1789386,71.820293 21.4322056,72.9217418 C20.731115,74.002255 19.9351522,75.0177782 19.0538127,75.9561965 C15.1043712,80.9066372 11.0870448,85.852215 7.58855245,91.1065874 C3.30211132,97.5426466 0.800071025,104.78838 0.6812726,112.559307 C0.677828018,112.810289 0.740555611,113.05773 0.863106923,113.276586 C0.176270893,116.79852 -0.0906760084,120.389849 0.0678848142,123.974985 C0.0628883633,124.669885 0.516533804,125.28442 1.18071088,125.482486 C0.831588974,133.190196 2.75175943,140.800648 6.27207194,147.715703 C8.36252308,151.771296 10.9341285,155.558603 13.9309337,158.995219 C14.6461487,159.824345 15.6571475,160.643745 15.0655798,161.747625 C14.5467459,162.720207 13.3684595,163.580942 12.709007,164.487874 C11.394951,166.311465 10.7136784,168.305257 11.2276634,170.537332 C11.3351117,170.99239 11.6492899,171.370491 12.0762236,171.558543 C11.9709272,172.759984 12.1255765,173.970061 12.5295971,175.106034 C13.4193731,177.430505 15.4656154,178.590308 17.7009653,179.380531 C22.8577867,181.204121 28.3006942,182.310433 33.719357,182.986377 C44.6208405,184.329893 55.6791549,183.519561 66.2701254,180.601121 C69.1677167,179.801869 72.0184795,178.840755 74.8090653,177.722279 C77.3329257,176.708363 80.3707711,175.81845 81.9757621,173.479391 C82.61097,172.553007 82.1066828,171.658232 81.318734,171.291083 C83.9856375,166.67132 84.5844785,161.229725 84.3444572,155.848917 C84.0583712,149.395838 83.2825447,142.92817 82.4533802,136.511562 C85.2269598,137.240999 88.4417906,136.710942 90.938982,135.592473 C95.1890563,133.695939 98.2778153,130.031737 99.9094753,125.725632 C103.366752,116.653876 100.229504,107.163911 97.7904993,98.1407843 C97.9672256,98.0405046 98.1235063,97.9076951 98.2511463,97.7493202 C102.651537,92.4317299 116.109701,91.5661323 114.676847,82.5016711 C113.037913,71.9370028 128.023486,67.895926 127.407674,57.55252 Z" id="Path" fill="#53C9FF" fill-rule="nonzero"></path>
                        <path d="M120.711322,55.6486914 C118.941468,55.3058564 117.125549,55.0432593 115.377515,54.5593999 C113.811315,54.1217382 112.528777,53.2075114 111.074103,52.5242728 C109.951579,51.9966472 108.596307,51.4325499 107.437416,52.140103 C107.330103,52.2050188 107.227969,52.2781817 107.131935,52.3589339 C106.557338,51.7729535 105.645742,51.5905944 104.976592,52.4099944 C102.603048,55.3131507 100.345878,58.2236013 98.7893759,61.6495203 C98.0820494,63.26127 97.267201,64.8233727 96.3503715,66.3252066 C95.8943657,67.0190034 95.5193486,67.7630437 95.2326965,68.5426928 C95.1055046,68.9199613 95.0177528,69.3094652 94.9708551,69.7049279 L94.9150925,70.2106704 C94.9150925,70.2714567 94.9150925,70.3200858 94.9150925,70.363852 C94.4241387,70.8939506 94.3365358,71.6836647 94.6993158,72.3090153 C95.4605955,73.4420729 95.6400054,74.497324 95.2375454,75.8103093 C94.8229632,77.1597664 96.4352275,78.399808 97.6304851,77.655783 C98.7019251,76.9459064 100.020807,76.7184041 101.267172,77.0284678 C102.183617,77.23271 101.732667,76.9944275 101.839344,77.575545 C101.941171,78.1177593 101.793279,78.7450745 101.907228,79.326192 C102.051219,79.885431 102.486669,80.3221382 103.044299,80.466544 C104.203653,80.6786216 105.30459,81.1361823 106.273677,81.8087067 C106.974345,82.2949975 108.118689,81.9691827 108.501753,81.2227263 C110.649823,77.045488 113.268237,73.1527299 115.852709,69.2405202 C118.277166,65.5933389 120.604646,61.8878028 121.848393,57.6522096 C122.083565,56.8595556 121.567155,55.8140303 120.711322,55.6486914 Z M105.769389,77.7749243 C105.983965,77.9252083 106.226297,78.0310182 106.48218,78.0861504 L106.448238,78.1517997 C106.205792,78.0375213 105.963346,77.9378317 105.7209,77.843005 L105.769389,77.7749243 Z" id="Shape" fill="#FFFFFF" fill-rule="nonzero"></path>
                        <path d="M71.131163,87.0071557 C71.131163,87.0071557 73.4562179,94.4960345 75.570345,97.8174009 C77.684472,101.138767 81.3454031,105.024231 82.0509203,107.990605 C82.8163035,111.36635 82.4189193,114.902562 80.9235475,118.022785 C79.3040097,121.34172 77.8250906,124.10142 79.6555561,134.556673 C81.4860216,145.011926 82.9673652,162.532985 78.1063277,171.293514" id="Path" stroke="#1B1464" stroke-width="3" stroke-linecap="round"></path>
                        <path d="M15.7613992,175.388083 C15.7613992,175.388083 13.366035,171.573131 15.4098528,168.395221 C17.4536706,165.21731 19.2889851,160.976854 18.8622805,158.080992" id="Path" stroke="#1B1464" stroke-width="3" stroke-linecap="round"></path>
                        <path d="M48.2370094,62.2111862 C48.2370094,62.2111862 51.1245385,63.6943732 53.5902119,63.8353975 C56.0558853,63.9764219 67.6811598,64.1879584 70.5614155,66.4492108 C73.4416711,68.7104631 81.0568926,76.4181728 82.1842654,82.8396433" id="Path" stroke="#1B1464" stroke-width="3" stroke-linecap="round"></path>
                        <path d="M25.9853371,68.8125842 C25.9853371,68.8125842 62.8540646,86.7469901 51.5003294,63.7746112" id="Path" stroke="#FFFFFF" stroke-width="3" stroke-linecap="round"></path>
                        <path d="M81.8399924,99.0185393 C81.8399924,99.0185393 85.2342332,94.0729615 84.7275215,91.9527335 C84.2208099,89.8325054 80.5720011,82.9806676 83.3237605,80.4981529 C86.07552,78.0156382 91.5669165,74.2809246 92.0518081,73.0092741 C92.5366996,71.7376236 96.7722271,70.6775096 96.1370192,74.6334855 C95.5018113,78.5894614 91.2056723,80.3571286 91.3462909,81.4877548 C91.4869094,82.6183809 92.0518081,84.7459033 92.5366996,85.3124322" id="Path" stroke="#1B1464" stroke-width="3" stroke-linecap="round"></path>
                        <path d="M79.3040097,132.222477 C79.3040097,132.222477 81.2750938,134.410786 85.4330387,134.201681 C89.5909835,133.992576 96.5637238,134.272193 99.240325,122.530701 C101.916926,110.789209 94.3089781,100.008141 96.634033,96.5457504 C98.9590879,93.0833597 104.028629,91.6001726 107.340438,90.8926195 C110.652247,90.1850663 115.018695,84.0407816 112.412403,80.2258301" id="Path" stroke="#1B1464" stroke-width="3" stroke-linecap="round"></path>
                        <path d="M88.7424234,75.9148618 L103.422514,50.523186 C103.858355,49.7580559 104.763245,49.3960638 105.604526,49.650294 L123.273974,55.031102 C123.820067,55.196993 124.262277,55.6012997 124.477352,56.1313346 C124.692427,56.6613695 124.657369,57.2604586 124.381951,57.7616251 L108.780566,86.1804613 C108.321304,87.0165581 107.313983,87.380032 106.428842,87.0290388 L91.5644921,81.4366942" id="Path" stroke="#1B1464" stroke-width="3" stroke-linecap="round"></path>
                        <path d="M34.5703416,48.9281521 C34.5703416,48.9281521 42.4619513,58.4667468 51.6894371,53.4506568" id="Path" stroke="#1B1464" stroke-width="3" stroke-linecap="round"></path>
                        <path d="M94.801143,77.4709925 L96.9564859,78.1226222 C97.3468236,77.1500405 98.5008654,76.5300197 99.8003747,76.6637497 C101.327783,76.8072055 102.467278,77.9354002 102.355753,79.1851677 C102.318577,79.5504923 102.179045,79.8978008 101.953293,80.1869268 L106.70523,82.1320901 C107.407729,82.4223615 108.21465,82.1215409 108.557516,81.4415571 L120.856789,58.2649361 C121.07535,57.8591173 121.104393,57.3773037 120.936171,56.9480353 C120.767948,56.5187669 120.419572,56.185712 119.983985,56.0377241 L106.062749,51.6611066 C105.392162,51.4549945 104.669723,51.7521306 104.336535,52.3710912 L93.8143888,71.5479701" id="Path" stroke="#1B1464" stroke-width="3" stroke-linecap="round"></path>
                        <line x1="43.938446" y1="32.7492561" x2="43.938446" y2="36.8462564" id="Path" stroke="#1B1464" stroke-width="3" stroke-linecap="round"></line>
                        <line x1="53.9272115" y1="30.7311491" x2="53.9272115" y2="34.8281494" id="Path" stroke="#1B1464" stroke-width="3" stroke-linecap="round"></line>
                        <path d="M40.1199252,108.253202 C40.1199252,108.253202 48.9207065,113.986571 57.1129489,113.395728" id="Path" stroke="#FFFFFF" stroke-width="3" stroke-linecap="round"></path>
                        <path d="M86.4028217,95.1136239 C86.4028217,95.1136239 95.2011786,100.844561 103.395845,100.253718" id="Path" stroke="#FFFFFF" stroke-width="3" stroke-linecap="round"></path>
                        <path d="M12.624151,86.3336429 C13.3369415,77.9815979 11.2179655,32.1316667 11.2179655,32.1316667 C9.25900377,-4.1164519 42.8935047,3.0393177 48.1860958,4.23559315 C54.2132975,5.59477603 58.5336811,11.1871206 59.7386365,14.5109184 C60.943592,17.8347163 58.8658317,22.4666365 58.8658317,22.4666365 C58.8658317,22.4666365 56.8123161,30.4904352 60.7860022,36.9848492 C62.6382879,40.0120097 62.1970366,42.1127861 60.7181174,43.3844366 C59.2391982,44.6560871 59.5058886,47.3744529 59.5058886,47.3744529 C62.0418713,57.4066327 55.2800589,58.8898198 53.2362411,59.6678851 C51.1924233,60.4459504 48.7267499,61.08056 48.234585,61.8561939 C47.74242,62.6318277 48.9401021,67.0133081 48.9401021,67.0133081" id="Path" stroke="#1B1464" stroke-width="3" stroke-linecap="round"></path>
                        <path d="M17.6645984,126.005249 C17.6645984,126.005249 17.5942892,126.571778 19.4247547,126.924339 C21.2552202,127.2769 28.7952835,121.200696 31.1179139,118.871362 C33.0356599,116.948082 42.0279734,108.131629 42.3892176,107.353564 C42.7504617,106.575499 41.247298,95.215745 41.6861248,93.5769449 C42.9541162,88.8453351 47.2502551,87.0776679 52.8168099,83.8997573 C58.3833647,80.7218467 60.2138302,83.121692 60.2841395,84.0407816 C60.3544487,84.9598713 57.7481568,87.4326602 55.3527926,89.1273837 C52.9574285,90.8221073 54.787894,94.0729615 54.787894,94.0729615 C68.0327061,101.420816 55.6340297,108.625215 56.4850143,111.452996 C56.9699059,113.077207 56.0607342,118.657395 54.5115058,122.897851 C52.9622774,127.138307 54.7927429,128.976486 42.9589651,145.080007 C31.1251873,161.183528 17.0342395,158.080992 17.0342395,158.080992 C0.409733343,143.249122 4.35432594,120.35455 4.63556303,105.517816 C4.91680011,90.6810829 24.6373386,73.4469358 24.6373386,73.4469358 C24.0748645,69.6319843 28.7249742,68.6448139 29.5686855,67.5141877 C30.4123968,66.3835615 29.5686855,61.5790081 29.5686855,61.5790081" id="Path" stroke="#1B1464" stroke-width="3" stroke-linecap="round"></path>
                        <path d="M29.6026279,61.4574354 L26.3877971,32.03684 C49.8298781,26.0749144 52.8143855,19.9452185 54.2132975,13.5991231 C54.2132975,13.5991231 56.3831871,21.136631 58.8658317,22.4617735" id="Path" stroke="#1B1464" stroke-width="3" stroke-linecap="round"></path>
                    </g>
                    <g id="Speech_bubble" transform="translate(134.500000, 49.216239) scale(-1, 1) translate(-134.500000, -49.216239) translate(69.500000, 0.216239)" fill="#53C9FF" fill-rule="nonzero">
                        <path d="M69.2798385,0 C102.814721,0 130,18.9419293 130,42.3054135 C130,65.6688978 102.814721,84.6108271 69.2798385,84.6108271 C58.7664376,84.6108271 48.8795025,82.7477611 40.2561171,79.4725915 C23.2368762,85.8862756 0,98 0,98 C0,98 15.1519783,89.4134982 21.3984341,78.9882247 C22.9941776,76.3234483 23.9285673,73.5296086 24.4640211,70.8466115 C14.5892209,63.3229835 8.55967702,53.3046388 8.55967702,42.3054135 C8.55967702,18.9419293 35.7449564,0 69.2798385,0 M69.2975207,3.23076923 C37.603391,3.23076923 11.8181818,20.6529069 11.8181818,42.0689745 C11.8181818,51.5592913 17.0065393,60.7194311 26.4270641,67.8621592 L28.1053373,69.1359154 L27.6933699,71.1957352 C27.016892,74.5732339 25.8433168,77.6659927 24.2060883,80.3876811 C23.6877086,81.2464442 23.1161228,82.0946053 22.5034922,82.9230769 C28.0141268,80.4300891 33.7847113,77.9613345 39.0217144,75.9969328 L40.2150518,75.5486191 L41.4083892,75.999962 C49.8970467,79.209343 59.5410372,80.9056652 69.2975207,80.9056652 C100.99165,80.9056652 126.77686,63.4835276 126.77686,42.0674599 C126.77686,20.6513923 100.99165,3.23076923 69.2975207,3.23076923 L69.2975207,3.23076923 Z" id="path5" transform="translate(65.000000, 49.000000) scale(-1, 1) translate(-65.000000, -49.000000) "></path>
                    </g>
                </g>
            </g>
        </g>
    </g>
</svg>