<svg width="375" height="812" viewBox="0 0 375 812" fill="none" xmlns="http://www.w3.org/2000/svg">
<path d="M338.442 190.615C359.147 237.328 325.06 318.38 277.085 344.893C229.11 371.153 167.247 343.125 113.718 303.988C60.1875 265.103 14.7375 215.108 25.09 182.535C35.4425 149.963 101.598 134.56 172.045 133.045C242.745 131.53 317.99 143.903 338.442 190.615Z" fill="#093280"/>
<mask id="mask0" mask-type="alpha" maskUnits="userSpaceOnUse" x="-82" y="-23" width="505" height="505">
<path d="M341.442 190.615C362.147 237.328 328.06 318.38 280.085 344.893C232.11 371.153 170.247 343.125 116.717 303.988C63.1875 265.103 17.7375 215.108 28.09 182.535C38.4425 149.963 104.597 134.56 175.045 133.045C245.745 131.53 320.99 143.903 341.442 190.615Z" fill="#004494"/>
</mask>
<g mask="url(#mask0)">
<g opacity="0.25">
<path opacity="0.25" d="M147 101.51C142.35 99.88 131.07 95.75 129.34 103.41C128.77 105.89 132.59 106.95 133.15 104.41C134.04 100.51 143.73 104.5 145.95 105.28C148.36 106.13 149.39 102.28 146.95 101.46L147 101.51Z" fill="#87CEE0"/>
</g>
<g opacity="0.25">
<path opacity="0.25" d="M149.54 215.53L134.13 213L133.07 216.81H133.26C135.75 217.22 136.82 213.4 134.26 213H134.08C131.58 212.59 130.51 216.4 133.02 216.81L148.44 219.32C150.93 219.72 152 215.91 149.44 215.5L149.54 215.53Z" fill="#87CEE0"/>
</g>
<g opacity="0.25">
<path opacity="0.25" d="M147 334.7L129.23 331.82C126.74 331.41 125.67 335.22 128.18 335.63L146 338.52C148.49 338.93 149.56 335.11 147 334.7Z" fill="#87CEE0"/>
</g>
<g opacity="0.25">
<path opacity="0.25" d="M187.61 45.33L172.38 42.86C169.89 42.45 168.82 46.27 171.38 46.67L186.61 49.15C189.1 49.56 190.18 45.74 187.66 45.33H187.61Z" fill="#87CEE0"/>
</g>
<g opacity="0.25">
<path opacity="0.25" d="M185.07 161.51L172.38 159.45C169.89 159.05 168.82 162.86 171.38 163.27L184.07 165.33C186.56 165.74 187.64 161.92 185.12 161.51H185.07Z" fill="#87CEE0"/>
</g>
<g opacity="0.25">
<path opacity="0.25" d="M188.23 279.44C185.34 282.44 180.85 281.25 177.46 279.86C175.1 278.86 174.08 282.73 176.41 283.68C181.19 285.68 187.13 286.32 191.02 282.24C192.79 280.4 190.02 277.6 188.23 279.44Z" fill="#87CEE0"/>
</g>
<g opacity="0.25">
<path opacity="0.25" d="M106.39 35.12L93.7 33.06C91.21 32.65 90.13 36.47 92.65 36.87L105.34 38.94C107.83 39.34 108.9 35.53 106.34 35.12H106.39Z" fill="#87CEE0"/>
</g>
<g opacity="0.25">
<path opacity="0.25" d="M107.87 143.16C103.43 143.96 98.18 144.5 93.7 143.67C91.21 143.21 90.14 147.03 92.65 147.49C97.89 148.49 103.71 147.92 108.93 146.98C111.43 146.52 110.37 142.71 107.87 143.16Z" fill="#87CEE0"/>
</g>
<g opacity="0.25">
<path opacity="0.25" d="M108.93 262.74L93.7 260.27C91.21 259.86 90.13 263.68 92.65 264.09L107.87 266.56C110.37 266.97 111.44 263.15 108.93 262.74Z" fill="#87CEE0"/>
</g>
<g opacity="0.25">
<path opacity="0.25" d="M68.32 79.75C62.23 77.66 54.85 76.75 49.02 80.06C46.81 81.32 48.8 84.74 51.02 83.47C55.91 80.68 62.23 81.84 67.26 83.57C69.68 84.4 70.71 80.57 68.32 79.75Z" fill="#87CEE0"/>
</g>
<g opacity="0.25">
<path opacity="0.25" d="M61.71 198.71C57.27 201.1 52.62 200.71 48.01 199.03C45.61 198.15 44.58 202.03 47.01 202.85C52.64 204.91 58.41 205.01 63.76 202.13C66.01 200.92 64.01 197.51 61.76 198.71H61.71Z" fill="#87CEE0"/>
</g>
<g opacity="0.25">
<path opacity="0.25" d="M65.78 303.56L45.4699 300.26C42.9799 299.86 41.91 303.67 44.42 304.08L64.7199 307.38C67.2199 307.79 68.29 303.97 65.78 303.56Z" fill="#87CEE0"/>
</g>
<g opacity="0.25">
<path opacity="0.25" d="M25.78 19.85C22.9 22.85 18.4 21.65 15.01 20.27C12.65 19.27 11.63 23.13 14.01 24.08C18.79 26.08 24.73 26.72 28.63 22.65C30.39 20.81 27.63 18 25.83 19.85H25.78Z" fill="#87CEE0"/>
</g>
<g opacity="0.25">
<path opacity="0.25" d="M27.7 135.93C22.42 133.93 15.76 132.99 10.95 136.65C8.95001 138.17 10.95 141.65 12.95 140.07C16.95 137.01 22.27 138.07 26.65 139.75C29.04 140.65 30.07 136.83 27.7 135.93Z" fill="#87CEE0"/>
</g>
<g opacity="0.25">
<path opacity="0.25" d="M21.0999 248.91C17.0499 251.8 11.77 250.8 7.4 249.23C4.99 248.37 3.96 252.23 6.34 253.05C11.65 254.95 18.2299 255.8 23.0999 252.33C25.1599 250.87 23.1799 247.43 21.0999 248.91Z" fill="#87CEE0"/>
</g>
<g opacity="0.25">
<path opacity="0.25" d="M96.94 373.84C94.2311 374.553 91.426 374.83 88.63 374.66C86.86 374.66 84.48 374.94 82.77 374.36C80.35 373.54 79.31 377.36 81.77 378.18C83.77 378.86 86.59 378.61 88.68 378.62C91.76 378.62 95.1 378.62 98.05 377.62C100.46 376.83 99.42 373 96.99 373.8L96.94 373.84Z" fill="#87CEE0"/>
</g>
<g opacity="0.25">
<path opacity="0.25" d="M103.07 470.34C96.9379 468.422 90.3614 468.457 84.25 470.44C81.85 471.24 82.88 475.06 85.31 474.26C90.7304 472.467 96.5785 472.432 102.02 474.16C104.47 474.87 105.52 471.05 103.07 470.34Z" fill="#87CEE0"/>
</g>
<g opacity="0.25">
<path opacity="0.25" d="M149.78 424.56C144.01 427.13 136.78 425.9 130.99 424.05C128.56 423.27 127.52 427.1 129.99 427.87C136.93 430.09 144.99 431.02 151.82 427.98C154.15 426.98 152.14 423.53 149.82 424.56H149.78Z" fill="#87CEE0"/>
</g>
<g opacity="0.25">
<path opacity="0.25" d="M65 416.32L49.77 413.84C47.28 413.43 46.21 417.25 48.77 417.66L64 420.13C66.49 420.54 67.56 416.72 65 416.32Z" fill="#87CEE0"/>
</g>
<g opacity="0.25">
<path opacity="0.25" d="M14.24 360.23L-3.53001 357.34C-6.03001 356.94 -7.10001 360.75 -4.59001 361.16L13.18 364.05C15.68 364.45 16.75 360.64 14.24 360.23Z" fill="#87CEE0"/>
</g>
<g opacity="0.25">
<path opacity="0.25" d="M21.85 463.11C16.2 461.11 10.49 461.06 5.09004 463.83C2.83004 464.99 4.83004 468.41 7.09004 467.25C11.55 464.96 16.18 465.31 20.8 466.93C23.21 467.78 24.24 463.93 21.85 463.11Z" fill="#87CEE0"/>
</g>
<g opacity="0.25">
<path opacity="0.25" d="M381.81 7.47001C377.17 5.84001 365.88 1.71 364.15 9.37C363.59 11.85 367.4 12.91 367.97 10.42C368.85 6.52002 378.55 10.51 380.76 11.29C383.17 12.13 384.21 8.29001 381.76 7.47001H381.81Z" fill="#87CEE0"/>
</g>
<g opacity="0.25">
<path opacity="0.25" d="M384.35 121.49L368.94 119C366.45 118.6 365.37 122.41 367.94 122.82H368.12C370.61 123.23 371.69 119.41 369.12 119H368.94L367.94 122.82L383.35 125.33C385.84 125.73 386.91 121.92 384.35 121.51V121.49Z" fill="#87CEE0"/>
</g>
<g opacity="0.25">
<path opacity="0.25" d="M381.81 240.66L364.05 237.77C361.55 237.37 360.48 241.18 362.99 241.59L380.76 244.48C383.25 244.88 384.33 241.07 381.76 240.66H381.81Z" fill="#87CEE0"/>
</g>
<g opacity="0.25">
<path opacity="0.25" d="M342.69 49.12C338.25 49.92 332.99 50.46 328.51 49.63C326.02 49.17 324.95 52.98 327.51 53.45C332.76 54.45 338.58 53.88 343.79 52.93C346.29 52.48 345.23 48.66 342.79 49.12H342.69Z" fill="#87CEE0"/>
</g>
<g opacity="0.25">
<path opacity="0.25" d="M343.74 168.7L328.51 166.23C326.02 165.82 324.95 169.63 327.51 170.04L342.74 172.52C345.23 172.92 346.3 169.11 343.74 168.7Z" fill="#87CEE0"/>
</g>
<g opacity="0.25">
<path opacity="0.25" d="M296.53 104.67C292.08 107.06 287.44 106.67 282.82 104.99C280.43 104.11 279.39 107.93 281.82 108.8C287.45 110.86 293.22 110.97 298.57 108.09C300.82 106.88 298.82 103.46 296.57 104.67H296.53Z" fill="#87CEE0"/>
</g>
<g opacity="0.25">
<path opacity="0.25" d="M300.59 209.52L280.28 206.22C277.79 205.81 276.72 209.63 279.28 210.04L299.59 213.34C302.08 213.74 303.15 209.93 300.59 209.52Z" fill="#87CEE0"/>
</g>
<g opacity="0.25">
<path opacity="0.25" d="M262.52 41.89C257.23 39.89 250.52 38.95 245.76 42.61C243.76 44.13 245.76 47.61 247.76 46.02C251.76 43.02 257.08 44.02 261.46 45.71C263.85 46.61 264.88 42.78 262.52 41.89Z" fill="#87CEE0"/>
</g>
<g opacity="0.25">
<path opacity="0.25" d="M255.91 154.87C251.86 157.76 246.58 156.76 242.21 155.19C239.81 154.32 238.77 158.19 241.21 159C246.52 160.91 253.09 161.76 257.96 158.29C260.02 156.83 258.05 153.39 255.96 154.87H255.91Z" fill="#87CEE0"/>
</g>
<g opacity="0.25">
<path opacity="0.25" d="M227 98.9C222.2 97.7 214 96.42 209.85 99.9C207.85 101.54 210.7 104.33 212.64 102.7C213.87 101.7 216.64 101.84 218.12 101.82C220.758 101.762 223.391 102.058 225.95 102.7C228.42 103.32 229.47 99.5 226.95 98.88L227 98.9Z" fill="#87CEE0"/>
</g>
<g opacity="0.25">
<path opacity="0.25" d="M219.47 205.14C219.54 205.6 219.29 206.22 219.58 206.02C219.13 206.33 218.08 206.02 217.58 205.95C215.574 205.492 213.613 204.857 211.72 204.05C209.34 203.13 208.31 206.96 210.72 207.87C213.54 208.96 217.05 210.57 220.16 209.94C223.11 209.35 223.73 206.72 223.31 204.09C222.89 201.46 219.09 202.65 219.49 205.09L219.47 205.14Z" fill="#87CEE0"/>
</g>
<g opacity="0.25">
<path opacity="0.25" d="M331.76 279.8C329.051 280.509 326.245 280.783 323.45 280.61C321.67 280.61 319.29 280.9 317.58 280.32C315.16 279.5 314.12 283.32 316.58 284.13C318.58 284.82 321.4 284.57 323.5 284.57C326.57 284.57 329.91 284.57 332.86 283.57C335.27 282.77 334.24 278.95 331.86 279.75L331.76 279.8Z" fill="#87CEE0"/>
</g>
<g opacity="0.25">
<path opacity="0.25" d="M337.89 376.3C331.758 374.382 325.181 374.417 319.07 376.4C316.66 377.19 317.69 381.02 320.07 380.21C325.492 378.428 331.337 378.393 336.78 380.11C339.24 380.82 340.28 377 337.84 376.3H337.89Z" fill="#87CEE0"/>
</g>
<g opacity="0.25">
<path opacity="0.25" d="M384.59 330.52C378.82 333.09 371.59 331.86 365.81 330.01C363.38 329.23 362.33 333.01 364.81 333.83C371.74 336.05 379.81 336.98 386.64 333.94C388.96 332.94 386.95 329.49 384.64 330.52H384.59Z" fill="#87CEE0"/>
</g>
<g opacity="0.25">
<path opacity="0.25" d="M382.52 431.56C376.99 433.86 371.42 433.56 365.81 431.66C363.38 430.85 362.35 434.66 364.81 435.48C371 437.48 377.52 437.92 383.63 435.37C385.94 434.37 384.93 430.58 382.57 431.56H382.52Z" fill="#87CEE0"/>
</g>
<g opacity="0.25">
<path opacity="0.25" d="M299.81 322.27L284.58 319.8C282.09 319.39 281.02 323.21 283.58 323.62L298.81 326.09C301.3 326.5 302.38 322.68 299.81 322.27Z" fill="#87CEE0"/>
</g>
<g opacity="0.25">
<path opacity="0.25" d="M301.83 424.26C295.06 424.587 288.277 424.483 281.52 423.95C278.98 423.76 278.99 427.72 281.52 427.95C288.277 428.483 295.06 428.587 301.83 428.26C304.36 428.13 304.38 424.17 301.83 424.26Z" fill="#87CEE0"/>
</g>
<g opacity="0.25">
<path opacity="0.25" d="M249.05 266.19L231.28 263.3C228.79 262.89 227.72 266.71 230.28 267.12L248 270C250.49 270.4 251.56 266.59 249 266.18L249.05 266.19Z" fill="#87CEE0"/>
</g>
<g opacity="0.25">
<path opacity="0.25" d="M256.66 369.07C251.01 367.07 245.3 367.02 239.91 369.79C237.64 370.95 239.64 374.37 241.91 373.2C246.36 370.92 251 371.27 255.61 372.89C258.02 373.74 259.05 369.89 256.66 369.07Z" fill="#87CEE0"/>
</g>
<g opacity="0.25">
<path opacity="0.25" d="M259.2 471.13C254.36 469.23 248.6 468.68 244.58 472.57C242.75 474.34 245.58 477.14 247.38 475.37C250.33 472.51 254.74 473.62 258.15 474.95C260.52 475.88 261.55 472.05 259.15 471.13H259.2Z" fill="#87CEE0"/>
</g>
<g opacity="0.25">
<path opacity="0.25" d="M216.05 305.67L198.28 302.78C195.79 302.37 194.72 306.19 197.28 306.6L215.05 309.49C217.54 309.89 218.61 306.08 216.05 305.67Z" fill="#87CEE0"/>
</g>
<g opacity="0.25">
<path opacity="0.25" d="M217.06 407.93C212.62 410.32 207.97 409.93 203.36 408.24C200.96 407.36 199.93 411.24 202.31 412.06C207.93 414.12 213.71 414.23 219.06 411.35C221.31 410.14 219.31 406.72 217.06 407.93Z" fill="#87CEE0"/>
</g>
<g opacity="0.25">
<path opacity="0.25" d="M162.75 252.16L147.52 249.68C145.03 249.28 143.95 253.09 146.52 253.5L161.69 256C164.19 256.4 165.26 252.59 162.75 252.18V252.16Z" fill="#87CEE0"/>
</g>
<g opacity="0.25">
<path opacity="0.25" d="M168.84 358.23C163.96 361.23 157.65 359.95 152.59 358.14C150.19 357.27 149.16 361.14 151.54 361.95C157.61 364.13 165.06 365.18 170.84 361.65C173.01 360.33 171.02 356.9 168.84 358.23Z" fill="#87CEE0"/>
</g>
<g opacity="0.25">
<path opacity="0.25" d="M175.44 457.52C169.91 455.71 162.17 456.14 156.62 457.62C154.16 458.27 155.2 462.09 157.62 461.44C162.47 460.14 169.5 459.75 174.34 461.33C176.76 462.13 177.8 458.33 175.39 457.52H175.44Z" fill="#87CEE0"/>
</g>
</g>
<path d="M131.485 156.923C131.349 153.877 129.173 151.939 126.235 151.682C117.819 150.947 109.181 150.66 100.94 152.864C97.0901 153.886 93.1664 155.437 89.9683 157.845C86.1186 160.731 83.7822 164.557 82.1209 169.006C79.0856 177.139 78.8013 186.14 78.6473 194.707C78.4903 203.661 78.6029 212.621 78.8605 221.573C79.1566 231.809 79.6393 242.036 80.125 252.264C80.2286 254.491 81.6737 256.792 83.9746 257.315C86.1275 257.806 88.8667 257.038 89.8972 254.908C94.8455 244.766 103.685 236.252 105.832 224.84C106.566 220.937 106.359 217.118 104.351 213.599C102.725 210.757 100.229 208.282 97.8364 206.063C96.6519 204.97 95.3904 203.67 93.9423 202.958C92.4368 202.189 90.6975 202.007 89.0651 202.45C89.0651 201.88 89.0651 201.31 89.0651 200.74C89.0858 196.465 89.1243 192.187 89.3375 187.918C89.4323 186.022 89.5715 184.128 89.7817 182.243C89.7817 182.196 89.8853 181.434 89.9031 181.254C89.9623 180.855 90.0216 180.456 90.0897 180.072C90.2585 179.059 90.4569 178.045 90.6819 177.044C91.0801 175.265 91.5955 173.514 92.2248 171.803C92.2751 171.667 92.7134 170.675 92.5209 171.062C92.6571 170.766 92.7963 170.471 92.9473 170.175C93.1546 169.78 93.3708 169.39 93.6047 169.012C93.6995 168.855 94.3983 167.913 94.3214 167.966C94.733 167.508 95.1772 167.079 95.6095 166.648C95.6806 166.577 95.7339 166.518 95.7783 166.471L95.956 166.359C96.335 166.111 96.7022 165.856 97.0902 165.623C97.7357 165.236 98.402 164.887 99.0801 164.565C99.1512 164.533 99.8619 164.232 99.9063 164.205C100.392 164.016 100.881 163.833 101.387 163.667C103.39 162.998 105.444 162.491 107.529 162.152C107.618 162.137 108.417 162.022 108.491 162.007C108.994 161.948 109.498 161.895 110.001 161.851C110.988 161.764 111.967 161.704 112.936 161.67C117.378 161.502 121.82 161.783 126.235 162.17C128.977 162.403 131.607 159.582 131.485 156.923Z" fill="#FBED21"/>
<path d="M223.436 220.831C223.321 218.875 222.459 217.756 221.191 217.056C221.301 216.566 221.229 216.054 220.988 215.614C220.747 215.173 220.355 214.835 219.883 214.663C213.88 212.42 207.689 210.716 201.383 209.57C199.088 209.156 195.89 208.016 193.98 209.921C192.965 210.94 192.203 212.364 191.371 213.531L188.558 217.511C184.913 222.666 181.214 227.806 178.12 233.318C177.409 234.583 176.734 235.863 176.094 237.159C175.437 238.509 174.975 240.27 174.06 241.46C173.192 242.589 171.652 243.321 170.485 244.119L169.502 244.798C168.934 242.911 167.788 241.197 166.615 239.463C164.672 236.583 162.531 233.673 160.003 231.274C156.997 228.417 153.209 227.12 149.235 226.586C145.7 226.373 142.17 226.069 138.628 226.054C138.367 226.057 138.111 225.988 137.888 225.853C136.253 226.027 135.622 223.49 137.331 223.091C140.346 222.388 143.369 219.596 144.142 216.574C144.93 213.469 143.103 210.37 144.438 207.289C145.439 204.958 147.725 202.985 147.082 200.22C146.786 198.911 145.865 197.818 145.205 196.675C144.524 195.535 144.054 194.284 143.816 192.979C143.224 189.585 142.241 186.243 142.078 182.834C141.909 179.245 142.877 175.65 142.67 172.054C142.321 166.093 142.253 160.365 136.866 156.577C135.003 155.266 129.735 152.834 129.759 152.722C127.89 152.427 127.405 151.836 125.527 151.865C124.159 151.794 122.989 153.062 122.643 152.973C121.162 152.598 112.678 151.18 107.635 152.568C104.656 153.39 101.76 154.752 98.858 155.833C96.0359 156.882 89.6988 159.339 87.5696 163.685C87.2439 164.35 86.8559 164.48 86.3377 165.009C85.8195 165.537 85.3042 165.629 84.4603 165.437C84.1849 165.437 83.9184 165.437 83.6518 165.437C79.5682 169.399 80.2523 175.215 79.4705 180.468C78.9464 183.98 78.1853 187.499 78.363 191.068C78.4578 193.026 78.7835 194.964 79.0707 196.902C79.9036 197.301 80.6579 197.847 81.2976 198.512C82.8227 200.187 83.1218 202.592 83.8562 204.731C84.9282 205.54 86.1364 206.574 86.7849 207.803C87.7586 208.433 88.6913 209.123 89.5774 209.871C91.2209 211.298 93.0746 212.612 94.8159 214.03C95.6622 214.569 96.4178 215.238 97.0546 216.013C97.6533 216.597 98.2122 217.221 98.7277 217.88C100.94 220.757 101.985 224.899 101.467 228.485C101.02 231.614 98.8847 233.31 96.7555 235.404L96.72 235.434C95.8849 236.834 94.9077 238.166 93.9956 239.504C93.1393 240.817 92.1671 242.051 91.0906 243.191C86.2667 249.206 81.3598 255.215 77.0867 261.599C71.8511 269.419 68.7951 278.222 68.65 287.664C68.6458 287.969 68.7224 288.269 68.8721 288.535C68.0332 292.814 67.7071 297.178 67.9008 301.534C67.8978 301.945 68.0288 302.345 68.2739 302.676C68.519 303.006 68.8651 303.248 69.26 303.365C68.8336 312.73 71.1789 321.977 75.4787 330.378C78.032 335.306 81.173 339.907 84.8334 344.083C85.707 345.09 86.9418 346.086 86.2193 347.427C85.5856 348.609 84.1464 349.654 83.3409 350.756C81.7359 352.972 80.9038 355.395 81.5316 358.106C81.5963 358.379 81.7236 358.633 81.9035 358.848C82.0833 359.064 82.3108 359.235 82.568 359.347C82.4394 360.807 82.6283 362.277 83.1218 363.657C84.2086 366.482 86.7079 367.891 89.4382 368.851C95.7368 371.066 102.385 372.411 109.003 373.232C122.319 374.864 135.825 373.88 148.762 370.334C152.301 369.363 155.783 368.195 159.191 366.836C162.274 365.604 165.984 364.523 167.945 361.681C168.721 360.555 168.105 359.468 167.142 359.022C170.4 353.409 171.131 346.798 170.838 340.26C170.488 332.42 169.541 324.562 168.528 316.765C171.916 317.652 175.842 317.008 178.893 315.649C184.084 313.345 187.856 308.893 189.849 303.661C194.072 292.639 190.24 281.108 187.261 270.145C187.477 270.024 187.668 269.862 187.824 269.67C193.198 263.209 209.637 262.157 207.886 251.144C205.885 238.308 224.188 233.398 223.436 220.831Z" fill="#FBED21"/>
<path d="M215.257 218.518C213.095 218.101 210.877 217.782 208.742 217.194C206.829 216.663 205.263 215.552 203.486 214.722C202.115 214.081 200.46 213.395 199.044 214.255C198.913 214.334 198.788 214.423 198.671 214.521C197.969 213.809 196.856 213.587 196.038 214.583C193.139 218.11 190.382 221.646 188.481 225.809C187.617 227.767 186.622 229.665 185.502 231.49C184.945 232.333 184.487 233.237 184.137 234.184C183.982 234.642 183.874 235.116 183.817 235.596L183.749 236.211C183.749 236.284 183.749 236.343 183.749 236.397C183.457 236.71 183.274 237.109 183.226 237.535C183.179 237.96 183.27 238.39 183.486 238.76C184.415 240.137 184.635 241.419 184.143 243.014C183.637 244.654 185.606 246.16 187.066 245.256C187.713 244.83 188.442 244.542 189.207 244.411C189.971 244.279 190.755 244.308 191.508 244.494C192.627 244.742 192.076 244.453 192.207 245.159C192.331 245.818 192.15 246.58 192.289 247.286C192.376 247.619 192.55 247.924 192.794 248.168C193.039 248.411 193.344 248.585 193.678 248.671C195.094 248.929 196.439 249.485 197.623 250.302C198.478 250.893 199.876 250.497 200.344 249.59C202.968 244.515 206.166 239.785 209.323 235.032C212.284 230.601 215.127 226.098 216.646 220.952C216.933 219.989 216.302 218.719 215.257 218.518ZM197.007 245.401C197.269 245.584 197.565 245.712 197.877 245.779L197.836 245.859C197.54 245.72 197.244 245.599 196.948 245.484L197.007 245.401Z" fill="white"/>
<path d="M154.699 256.618C154.699 256.618 157.539 265.717 160.121 269.752C162.703 273.788 167.175 278.509 168.037 282.113C168.971 286.214 168.486 290.511 166.66 294.302C164.681 298.334 162.875 301.687 165.111 314.39C167.347 327.093 169.156 348.381 163.219 359.025" stroke="#1B1464" stroke-width="3" stroke-miterlimit="10" stroke-linecap="round"/>
<path d="M87.0692 364C87.0692 364 84.1434 359.365 86.6398 355.504C89.1362 351.643 91.3778 346.491 90.8567 342.972" stroke="#1B1464" stroke-width="3" stroke-miterlimit="10" stroke-linecap="round"/>
<path d="M126.736 226.491C126.736 226.491 130.262 228.293 133.274 228.465C136.286 228.636 150.485 228.893 154.003 231.64C157.521 234.388 166.822 243.753 168.199 251.555" stroke="#1B1464" stroke-width="3" stroke-miterlimit="10" stroke-linecap="round"/>
<path d="M99.5569 234.512C99.5569 234.512 144.589 256.302 130.721 228.391" stroke="white" stroke-width="3" stroke-miterlimit="10" stroke-linecap="round"/>
<path d="M167.779 271.212C167.779 271.212 171.925 265.203 171.306 262.627C170.687 260.051 166.23 251.726 169.591 248.71C172.952 245.694 179.66 241.156 180.252 239.611C180.844 238.066 186.017 236.778 185.242 241.584C184.466 246.391 179.218 248.538 179.39 249.912C179.562 251.286 180.252 253.871 180.844 254.559" stroke="#1B1464" stroke-width="3" stroke-miterlimit="10" stroke-linecap="round"/>
<path d="M164.681 311.554C164.681 311.554 167.089 314.213 172.168 313.959C177.246 313.705 185.763 314.045 189.032 299.779C192.301 285.513 183.009 272.414 185.849 268.207C188.689 264.001 194.881 262.199 198.926 261.339C202.971 260.479 208.304 253.014 205.121 248.379" stroke="#1B1464" stroke-width="3" stroke-miterlimit="10" stroke-linecap="round"/>
<path d="M176.21 243.141L194.14 212.29C194.399 211.839 194.803 211.488 195.287 211.296C195.771 211.103 196.306 211.08 196.805 211.23L218.387 217.768C218.717 217.867 219.019 218.039 219.274 218.27C219.528 218.501 219.727 218.786 219.857 219.104C219.987 219.422 220.044 219.765 220.023 220.108C220.003 220.451 219.907 220.784 219.741 221.085L200.685 255.614C200.414 256.105 199.972 256.48 199.443 256.67C198.915 256.86 198.335 256.851 197.812 256.645L179.657 249.85" stroke="#1B1464" stroke-width="3" stroke-miterlimit="10" stroke-linecap="round"/>
<path d="M110.043 210.352C110.043 210.352 119.682 221.942 130.952 215.847" stroke="#1B1464" stroke-width="3" stroke-miterlimit="10" stroke-linecap="round"/>
<path d="M183.61 245.032L186.242 245.823C186.719 244.642 188.129 243.889 189.716 244.051C191.582 244.225 192.973 245.596 192.837 247.114C192.792 247.558 192.621 247.98 192.346 248.332L198.15 250.695C198.563 250.865 199.026 250.873 199.446 250.718C199.865 250.562 200.21 250.254 200.412 249.856L215.435 221.697C215.567 221.453 215.644 221.184 215.66 220.907C215.677 220.631 215.633 220.354 215.532 220.097C215.43 219.839 215.274 219.606 215.073 219.415C214.872 219.224 214.632 219.079 214.369 218.991L197.365 213.673C196.968 213.552 196.541 213.571 196.156 213.728C195.772 213.886 195.454 214.171 195.257 214.536L182.405 237.835" stroke="#1B1464" stroke-width="3" stroke-miterlimit="10" stroke-linecap="round"/>
<path d="M121.485 190.695V195.673" stroke="#1B1464" stroke-width="3" stroke-miterlimit="10" stroke-linecap="round"/>
<path d="M133.686 188.243V193.221" stroke="#1B1464" stroke-width="3" stroke-miterlimit="10" stroke-linecap="round"/>
<path d="M116.821 282.432C116.821 282.432 127.571 289.398 137.577 288.68" stroke="white" stroke-width="3" stroke-miterlimit="10" stroke-linecap="round"/>
<path d="M173.352 266.467C173.352 266.467 184.099 273.43 194.108 272.713" stroke="white" stroke-width="3" stroke-miterlimit="10" stroke-linecap="round"/>
<path d="M83.2373 255.8C84.1079 245.652 81.5197 189.945 81.5197 189.945C79.127 145.904 120.209 154.598 126.673 156.051C134.035 157.703 139.312 164.498 140.784 168.536C142.256 172.574 139.718 178.202 139.718 178.202C139.718 178.202 137.21 187.951 142.063 195.842C144.326 199.519 143.787 202.072 141.98 203.617C140.174 205.162 140.5 208.465 140.5 208.465C143.597 220.654 135.338 222.456 132.842 223.401C130.345 224.347 127.334 225.118 126.733 226.06C126.131 227.002 127.594 232.326 127.594 232.326" stroke="#1B1464" stroke-width="3" stroke-miterlimit="10" stroke-linecap="round"/>
<path d="M89.3938 304C89.3938 304 89.3079 304.689 91.5437 305.117C93.7794 305.545 102.989 298.163 105.826 295.333C108.168 292.996 119.152 282.284 119.593 281.339C120.034 280.393 118.198 266.591 118.734 264.6C120.283 258.851 125.53 256.704 132.329 252.843C139.129 248.982 141.364 251.897 141.45 253.014C141.536 254.131 138.353 257.135 135.427 259.194C132.501 261.253 134.737 265.203 134.737 265.203C150.914 274.131 135.77 282.884 136.81 286.32C137.402 288.293 136.292 295.073 134.399 300.225C132.507 305.377 134.743 307.61 120.289 327.176C105.835 346.742 88.6238 342.972 88.6238 342.972C68.3183 324.952 73.1363 297.135 73.4798 279.108C73.8234 261.082 97.9104 240.143 97.9104 240.143C97.2234 235.507 102.903 234.308 103.934 232.934C104.964 231.561 103.934 225.723 103.934 225.723" stroke="#1B1464" stroke-width="3" stroke-miterlimit="10" stroke-linecap="round"/>
<path d="M103.975 225.575L100.048 189.83C128.681 182.586 132.326 175.139 134.035 167.428C134.035 167.428 136.685 176.586 139.718 178.196" stroke="#1B1464" stroke-width="3" stroke-miterlimit="10" stroke-linecap="round"/>
<g clip-path="url(#clip0)">
<path d="M232 384.545C236.24 366.812 240.089 348.831 240.374 330.592C240.737 307.464 235.599 282.932 245.603 262.111C248.556 255.963 252.78 248.715 249.184 242.925C247.646 240.444 244.953 238.932 243.14 236.644C241.167 234.148 240.393 230.928 239.674 227.824C238.828 224.178 237.983 220.536 237.139 216.9C236.665 214.859 236.189 212.767 236.427 210.683C236.83 207.169 239.177 204.228 240.402 200.917C242.503 195.236 241.197 188.827 242.587 182.923C244.568 174.509 251.94 168.188 260.055 165.378C268.17 162.568 276.987 162.739 285.538 163.415C289.893 163.757 294.367 164.261 298.224 166.333C303.461 169.143 306.88 174.479 309.381 179.902C316.934 196.274 317.783 216.477 308.466 231.899C307.391 233.681 306.151 235.503 306.057 237.586C305.894 241.212 309.113 243.92 311.692 246.455C323.38 257.948 325.87 275.838 325.993 292.298C326.073 303.344 325.381 314.383 323.92 325.331C322.244 337.91 319.269 350.952 310.983 360.51C303.445 369.204 292.395 373.955 281.377 377.116C265.473 381.672 248.92 383.49 232.415 382.495" fill="#00A89C"/>
<path d="M285.725 234.148C286.25 237.542 288.108 243.046 291.864 245.976" stroke="#00555B" stroke-width="3" stroke-miterlimit="10" stroke-linecap="round"/>
<path d="M264.522 252.543C264.522 252.543 264.307 241.633 253.655 237.142C243.003 232.65 241.848 231.653 243.236 219.56C243.236 219.56 244.495 214.714 241.003 212.527C237.51 210.339 246.21 206.966 247.675 202.543C248.766 199.253 253.681 188.506 261.24 186.161" stroke="#00555B" stroke-width="3" stroke-miterlimit="10" stroke-linecap="round"/>
<path d="M255.885 230.92C255.885 230.92 264.067 233.506 272.879 223.715" stroke="#00555B" stroke-width="3" stroke-miterlimit="10" stroke-linecap="round"/>
<path d="M303.37 307.037C302.614 307.39 304.727 364.924 304.348 365.638C302.456 372.418 300.566 378.841 299.053 385.621C277.498 385.621 255.567 385.974 234.004 385.43C235.147 382.909 234.269 385.43 234.004 385.43L237.426 377.873L242.921 365.753L244.176 362.985C243.227 362.66 242.365 362.118 241.658 361.401C240.951 360.685 240.419 359.812 240.103 358.853C238.92 354.582 241.566 350.299 243.459 346.374C249.886 331.026 254.67 316.353 253.743 300.03" stroke="#00555B" stroke-width="3" stroke-miterlimit="10" stroke-linecap="round"/>
<path d="M287.127 238.892C288.465 238.251 290.355 238.251 291.111 239.32C292.248 240.391 292.248 242.175 293.76 242.889C300.566 245.387 308.129 247.171 313.801 251.81C318.34 258.232 319.474 266.082 322.121 273.576C322.499 275.718 322.877 277.858 323.633 280C324.011 280.353 324.39 281.071 324.39 281.427C325.146 284.994 325.524 288.207 325.146 291.417C324.011 297.128 320.987 302.48 320.609 308.189C320.609 311.4 320.23 314.969 319.852 318.179C319.474 320.321 318.718 322.819 318.34 324.959C317.206 328.528 315.313 331.738 314.935 335.307C314.179 343.158 315.313 351.361 312.66 358.859" stroke="#00555B" stroke-width="3" stroke-miterlimit="10" stroke-linecap="round"/>
<path d="M244.106 339.989C238.652 278.199 255.439 257.639 256.857 254.427C258.274 251.929 254.858 250.212 256.627 247.723C258.397 245.234 257.38 246.465 260.576 245.373" stroke="#00555B" stroke-width="3" stroke-miterlimit="10" stroke-linecap="round"/>
<path d="M258.658 198.997L256.279 203.304" stroke="#00555B" stroke-width="3" stroke-miterlimit="10" stroke-linecap="round"/>
<path d="M266.493 200.425L264.114 204.731" stroke="#00555B" stroke-width="3" stroke-miterlimit="10" stroke-linecap="round"/>
<path d="M260.07 250.149C260.07 250.149 271.44 269.244 293.832 245.984" stroke="white" stroke-width="3" stroke-miterlimit="10" stroke-linecap="round"/>
<path d="M249.918 196.85C249.918 196.85 240.959 186.318 246.751 178.038C252.757 169.455 263.564 166.041 268.04 165.604C272.516 165.166 305.374 164.284 312.152 191.9C318.93 219.516 300.363 232.387 296.104 233.71C291.845 235.033 280.931 236.902 282.349 226.449C282.349 226.449 274.053 216.877 280.385 207.966C280.385 207.966 275.035 202.905 278.856 192.343C278.856 192.343 264.228 193.444 259.86 183.651" stroke="#00555B" stroke-width="3" stroke-miterlimit="10" stroke-linecap="round"/>
</g>
<defs>
<clipPath id="clip0">
<rect width="94" height="223" fill="white" transform="translate(232 163)"/>
</clipPath>
</defs>
</svg>
