<?xml version="1.0" encoding="UTF-8"?>
<svg width="270px" height="385px" viewBox="0 0 270 385" version="1.1" xmlns="http://www.w3.org/2000/svg" xmlns:xlink="http://www.w3.org/1999/xlink">
    <title>Group</title>
    <g id="Symbols" stroke="none" stroke-width="1" fill="none" fill-rule="evenodd">
        <g id="Group" transform="translate(0.000000, -0.000000)">
            <path d="M0.516234719,119.224914 C0.718679707,115.844083 2.20158924,113.910733 4.38799511,112.701125 C3.98173997,110.951138 4.94965064,109.174097 6.6401956,108.566186 C16.9864308,104.693605 27.656921,101.749904 38.5252812,99.7699511 C42.4780196,99.0563325 47.9946455,97.0824939 51.2691932,100.377286 C53.0203423,102.138557 54.346357,104.598264 55.768533,106.612592 C57.3813447,108.903594 58.9975306,111.194597 60.6170905,113.485599 C66.8979462,122.393178 73.2699022,131.275452 78.6043276,140.815672 C79.8291198,143.002078 80.9931785,145.218851 82.0965037,147.46599 C83.2301956,149.799169 84.0247922,152.840905 85.6038631,154.895721 C87.1222005,156.849315 89.7539853,158.119658 91.7632518,159.511467 L93.4587286,160.690709 C94.4355257,157.426284 96.4144254,154.465526 98.4338142,151.46934 C101.779218,146.494254 105.473839,141.468557 109.831467,137.298191 C115.014059,132.368655 121.537848,130.126577 128.390611,129.200391 C134.463961,128.83599 140.562616,128.309633 146.671394,128.284328 C147.118855,128.286634 147.558331,128.165821 147.941736,127.93511 C150.760782,128.238778 151.848924,123.850782 148.90335,123.162469 C143.705575,121.9478 138.497677,117.124548 137.171663,111.906528 C135.815281,106.541736 138.963301,101.207311 136.66555,95.867824 C134.944768,91.8189242 131.002152,88.4279707 132.110538,83.6502689 C132.61665,81.3879462 134.210905,79.5001467 135.349658,77.5313692 C136.522806,75.5624396 137.333593,73.3991976 137.74357,71.1442298 C138.755795,65.2783863 140.461394,59.503643 140.739756,53.617555 C141.033301,47.4176773 139.358068,41.2076773 139.727531,34.9976773 C140.329804,24.6982885 140.44621,14.7987286 149.733374,8.2597555 C152.947188,5.99237164 162.021785,1.79163814 161.996479,1.59425428 C165.220416,1.08814181 166.045379,0.0759168704 169.294621,0.116405868 C171.648044,-0.00506112469 173.667433,2.18640587 174.264645,2.03457213 C176.795208,1.38674817 191.437042,-1.06789731 200.126993,1.33107579 C205.258973,2.74819071 210.249242,5.10667482 215.254694,6.9691687 C220.118435,8.78611247 231.045403,13.0425183 234.714719,20.538044 C235.271443,21.6869193 235.939511,21.9096088 236.830269,22.8206112 C237.721027,23.7316137 238.616846,23.8935697 240.069389,23.5595355 C245.950416,23.336846 250.637017,25.0475061 255.591858,27.1023227 C261.417213,29.5367237 265.116895,34.6079707 267.328606,40.3928362 C269.606112,46.3649633 270.233692,53.0760147 268.487604,59.2708313 C266.812372,65.2328362 262.824205,70.0307824 257.859242,73.6545477 C254.083643,76.4179218 248.688484,77.1112958 245.484792,80.6338386 C242.858068,83.528802 242.341834,87.6839853 241.076553,91.3786064 C239.229242,92.7754768 237.14912,94.5620538 236.015428,96.6877262 C234.335774,97.7628161 232.727989,98.9462543 231.202298,100.230513 C228.368068,102.69022 225.174499,104.962665 222.168191,107.412249 C220.711889,108.344376 219.412021,109.500763 218.316675,110.838631 C217.27981,111.845291 216.31577,112.92434 215.431834,114.067628 C211.615746,119.037653 209.829169,126.189022 210.709804,132.3889 C211.479095,137.78912 215.158533,140.719511 218.807604,144.338215 L218.873399,144.393888 C220.310758,146.813105 221.991051,149.110856 223.565061,151.42379 C225.039131,153.693549 226.714364,155.826126 228.570513,157.795746 C236.885941,168.186235 245.343081,178.546357 252.707017,189.594792 C261.731002,203.107995 266.994572,218.316675 267.252689,234.638802 C267.259451,235.169842 267.126824,235.69337 266.868044,236.157139 C268.309419,243.546933 268.870051,251.081493 268.538215,258.603227 C268.55225,260.062969 267.595423,261.354583 266.194914,261.76643 C266.933839,277.962029 262.89,293.909633 255.470391,308.440122 C251.068135,316.950862 245.654011,324.898714 239.345648,332.111002 C237.827311,333.85709 235.71176,335.572812 236.956797,337.895868 C238.044939,339.920318 240.535012,341.737262 241.916699,343.645306 C244.685134,347.471516 246.117433,351.657066 245.034352,356.343667 C244.809989,357.297619 244.150141,358.090561 243.252836,358.484523 C243.477146,361.018174 243.149061,363.570327 242.291222,365.964866 C240.459095,370.869095 236.152078,373.288313 231.450293,374.948362 C220.594181,378.779633 209.135795,381.097628 197.72802,382.540049 C174.781375,385.350947 151.506418,383.643624 129.215575,377.514352 C123.114118,375.828409 117.112276,373.80076 111.23846,371.441002 C105.92934,369.31533 99.5320782,367.447775 96.1512469,362.538484 C94.81511,360.595012 95.8779462,358.712274 97.5379951,357.922738 C91.9454523,348.205379 90.6599267,336.807726 91.1660391,325.53154 C91.768313,311.98291 93.4030562,298.408973 95.1491443,284.936259 C89.3086064,286.454597 82.5368215,285.356333 77.2580685,283.007971 C68.3150611,279.029927 61.8115159,271.337017 58.3547677,262.297848 C51.0768704,243.252836 57.676577,223.327188 62.8186797,204.398582 C62.4439455,204.189824 62.112432,203.911559 61.8418826,203.57868 C52.5800244,192.413839 24.2478484,190.596895 27.2642787,171.572127 C30.766577,149.419584 -0.779413203,140.937139 0.516234719,119.224914 Z" id="Path" fill="#FF00FF" fill-rule="nonzero"></path>
            <path d="M14.6165281,115.226626 C18.3415159,114.507946 22.162665,113.956284 25.8218582,112.938998 C29.1217115,112.022934 31.819291,110.104768 34.8812714,108.672469 C37.2448166,107.564083 40.0942298,106.37978 42.5539364,107.862689 C42.7777419,108.002423 42.9924299,108.156254 43.1966993,108.323252 C44.4063081,107.088337 46.3244743,106.708753 47.7517115,108.429535 C52.7521027,114.528191 57.5044988,120.631907 60.7790465,127.849071 C62.2670809,131.231927 63.9816337,134.510544 65.9110269,137.662592 C66.8742761,139.118433 67.6657081,140.680917 68.269511,142.318826 C68.5351281,143.111017 68.7182985,143.928499 68.8161125,144.758289 L68.9325183,145.821125 C68.9325183,145.947653 68.9325183,146.048875 68.9325183,146.139976 C69.9512281,147.245789 70.1355672,148.884358 69.3880196,150.188875 C67.783643,152.562543 67.4040587,154.789438 68.2543276,157.537628 C69.1248411,160.371858 65.7237653,162.973276 63.1932029,161.409389 C60.9352817,159.918873 58.156487,159.441669 55.5306601,160.093496 C53.5973105,160.523692 54.548802,160.022641 54.3210513,161.247433 C54.1084841,162.381125 54.4172127,163.697017 54.1793399,164.916748 C53.8757721,166.090504 52.9591838,167.007092 51.7854279,167.31066 C49.3453791,167.757437 47.0283566,168.718406 44.9883374,170.129707 C43.510489,171.141932 41.1064548,170.463741 40.2966748,168.899853 C35.7720293,160.128924 30.2604645,151.960269 24.8197555,143.751125 C19.7586308,136.088582 14.8189731,128.314694 12.1973105,119.427359 C11.7266259,117.772372 12.8097066,115.575844 14.6165281,115.226626 Z M46.0714181,161.667506 C45.6137312,161.983889 45.0975572,162.205844 44.5530807,162.320391 L44.6289976,162.457042 C45.13511,162.219169 45.6412225,162.006601 46.147335,161.809218 L46.0714181,161.667506 Z" id="Shape" fill="#FFFFFF" fill-rule="nonzero"></path>
            <path d="M118.987042,181.076919 C118.987042,181.076919 114.092934,196.796773 109.644205,203.765941 C105.195477,210.73511 97.4975061,218.893643 95.9791687,225.123888 C94.3677328,232.208529 95.2044491,239.630149 98.3528362,246.178166 C101.764034,253.152396 104.876626,258.9322 101.020049,280.882298 C97.1634719,302.832396 94.0508802,339.591345 104.284474,357.998655" id="Path" stroke="#006837" stroke-width="3" stroke-linecap="round"></path>
            <path d="M167.17401,129.003007 C167.17401,129.003007 161.10066,132.115599 155.902885,132.414205 C150.70511,132.712812 126.239633,133.15313 120.161222,137.900465 C114.082812,142.6478 98.0643521,158.807971 95.6906846,172.316112" id="Path" stroke="#006837" stroke-width="3" stroke-linecap="round"></path>
            <path d="M256.011932,193.360269 C256.011932,193.360269 170.149951,190.693056 117.504132,135.820342" id="Path" stroke="#FFFFFF" stroke-width="3" stroke-linecap="round"></path>
            <path d="M96.4447922,206.261076 C96.4447922,206.261076 89.3237897,195.880709 90.3714425,191.43198 C91.4190954,186.983252 99.117066,172.599535 93.3372616,167.411883 C87.5574572,162.22423 75.982665,154.359242 74.9451345,151.692029 C73.9076039,149.024817 65.0101467,146.797922 66.3412225,155.103227 C67.6722983,163.408533 76.7215892,167.113276 76.4229829,169.486944 C76.1243765,171.860611 74.9400733,176.30934 73.8924205,177.493643" id="Path" stroke="#006837" stroke-width="3" stroke-linecap="round"></path>
            <path d="M101.784279,275.962885 C101.784279,275.962885 97.6290954,280.558386 88.8834719,280.113007 C80.1378484,279.667628 65.4504645,280.264841 59.8174328,255.647531 C54.184401,231.03022 70.1977995,208.341198 65.3036919,201.073423 C60.4095844,193.805648 49.7559169,190.693056 42.7614425,189.210147 C35.7669682,187.727237 26.5962103,174.82643 32.0824694,166.81467" id="Path" stroke="#006837" stroke-width="3" stroke-linecap="round"></path>
            <path d="M81.9092421,157.795746 L51.0363814,104.49198 C50.1139222,102.88179 48.2017335,102.121952 46.4256968,102.659853 L9.22643032,113.956284 C8.07761108,114.304717 7.14758244,115.153317 6.69563782,116.265494 C6.24369319,117.37767 6.31817329,118.634463 6.89831296,119.685477 L39.73489,179.315648 C40.7095534,181.067054 42.8338371,181.821392 44.6947922,181.076919 L75.982665,169.319927" id="Path" stroke="#006837" stroke-width="3" stroke-linecap="round"></path>
            <path d="M195.951565,101.111149 C195.951565,101.111149 179.340954,121.132958 159.916357,110.600758" id="Path" stroke="#006837" stroke-width="3" stroke-linecap="round"></path>
            <path d="M234.85643,28.1347922 C234.85643,28.1347922 250.399144,21.145379 261.108484,37.6547677 C267.991614,48.257824 268.345892,59.2404645 258.962567,67.7887042 C258.962567,67.7887042 251.983276,76.9847677 242.468362,71.5946699" id="Path" stroke="#006837" stroke-width="3" stroke-linecap="round"></path>
            <path d="M69.1602689,161.034866 L64.6052567,162.40643 C63.7853545,160.38198 61.3560147,159.061027 58.6179462,159.319144 C55.404132,159.617751 52.9950367,161.986357 53.2430318,164.613081 C53.3170832,165.379876 53.610526,166.10909 54.0882396,166.713447 L44.0874572,170.812958 C42.6068335,171.410712 40.914704,170.780828 40.1853301,169.360416 L14.328044,120.712885 C13.8666504,119.861826 13.8048327,118.850399 14.1591468,117.949484 C14.513461,117.04857 15.2477046,116.35022 16.1652323,116.041467 L45.4691443,106.83022 C46.8815848,106.395685 48.4040816,107.021224 49.1030318,108.323252 L71.2555746,148.574377" id="Path" stroke="#006837" stroke-width="3" stroke-linecap="round"></path>
            <line x1="176.228362" y1="67.1661858" x2="176.228362" y2="75.7650367" id="Path" stroke="#006837" stroke-width="3" stroke-linecap="round"></line>
            <line x1="155.199389" y1="62.9249633" x2="155.199389" y2="71.5288753" id="Path" stroke="#006837" stroke-width="3" stroke-linecap="round"></line>
            <path d="M184.270489,225.650244 C184.270489,225.650244 165.746773,237.680538 148.49846,236.440562" id="Path" stroke="#FFFFFF" stroke-width="3" stroke-linecap="round"></path>
            <path d="M86.8387775,198.067115 C86.8387775,198.067115 68.3150611,210.097408 51.0667482,208.857433" id="Path" stroke="#FFFFFF" stroke-width="3" stroke-linecap="round"></path>
            <path d="M231.541394,262.915306 C231.541394,262.915306 231.693227,264.099609 227.83665,264.838533 C223.980073,265.577457 208.098264,252.828484 203.21934,247.934377 C199.17044,243.885477 180.231711,225.392127 179.492787,223.762445 C178.753863,222.132763 181.896822,198.279682 180.975697,194.843178 C178.303423,184.908191 169.259193,181.203447 157.542689,174.527824 C145.826186,167.8522 141.969609,172.898142 141.822836,174.82643 C141.676064,176.754719 147.162323,181.942372 152.203203,185.500342 C157.244083,189.058313 153.392567,195.880709 153.392567,195.880709 C125.510831,211.307017 151.611051,226.429658 149.84978,232.361296 C148.837555,235.772494 150.740538,247.488998 154.004963,256.386455 C157.269389,265.283912 153.412812,269.140489 178.323667,302.948802 C203.234523,336.757115 232.897775,330.233325 232.897775,330.233325 C267.895452,299.092225 259.590147,251.041907 258.997995,219.900807 C258.405844,188.759707 216.879315,152.587848 216.879315,152.587848 C218.06868,144.581149 208.275403,142.506088 206.498949,140.132421 C204.722494,137.758753 206.498949,127.676993 206.498949,127.676993 C206.676088,109.522738 212.35467,104.901932 228.216235,95.7109291 C243.435037,86.8843276 242.488606,71.6047922 242.488606,71.6047922 C246.613423,-4.52464548 180.985819,3.7502934 169.846284,6.26061125 C157.158044,9.11508557 148.376993,20.983423 145.841369,27.9627139 C143.305746,34.9420049 144.829144,45.5855501 144.829144,45.5855501 C144.829144,45.5855501 149.151345,62.423912 140.780244,76.0585819 C136.878117,82.4153545 137.809364,86.8235941 140.927017,89.4908068 C144.04467,92.1580196 143.457579,97.8669682 143.457579,97.8669682 C138.123154,118.926308 152.355037,122.0389 156.656993,123.678704 C160.958949,125.318509 166.161785,126.62934 167.17401,128.259022 C168.186235,129.888704 165.701222,139.069584 165.701222,139.069584" id="Path" stroke="#006837" stroke-width="3" stroke-linecap="round"></path>
            <path d="M228.828631,22.2689487 C202.657555,10.0564548 185.75846,20.7860391 185.75846,20.7860391 C185.75846,20.7860391 198.04687,5.45589242 224.071174,15.4465526 C224.071174,15.4465526 232.315746,17.9771149 228.985526,22.1069927" id="Path" stroke="#006837" stroke-width="3" fill="#8BC53F" fill-rule="nonzero" stroke-linecap="round" stroke-linejoin="round"></path>
            <path d="M145.183423,31.3283619 C145.183423,31.3283619 137.313374,18.2504156 164.481491,4.31207824 C164.481491,4.31207824 168.241907,3.07716381 169.259193,5.12691932 C170.716797,8.10286064 153.67599,6.35171149 145.183423,31.3283619 Z" id="Path" stroke="#006837" stroke-width="3" fill="#8BC53F" fill-rule="nonzero" stroke-linecap="round"></path>
            <path d="M164.729471,22.4713936 C164.729471,22.4713936 164.567531,0.177139364 196.923301,2.87977995 C196.923301,2.87977995 203.528068,2.21677262 203.239584,6.56427873 C203.133301,8.15347188 183.744132,-0.536479218 164.729471,22.4713936 Z" id="Path" stroke="#006837" stroke-width="3" fill="#8BC53F" fill-rule="nonzero" stroke-linecap="round"></path>
            <path d="M240.828557,41.9364792 C227.24956,25.5890465 198.821222,26.3937653 198.821222,26.3937653 C198.821222,26.3937653 227.897384,16.9294621 241.218264,37.0727384 C241.19802,37.0727384 246.274328,48.4754523 240.828557,41.9364792 Z" id="Path" stroke="#006837" stroke-width="3" fill="#8BC53F" fill-rule="nonzero" stroke-linecap="round" stroke-linejoin="round"></path>
            <path d="M244.57379,57.9498778 C228.433863,32.8973105 203.340807,43.2321271 203.340807,43.2321271 C203.340807,43.2321271 228.727408,43.3586553 240.874108,60.9460636 C248.855501,72.5006112 244.57379,57.9498778 244.57379,57.9498778" id="Path" stroke="#006837" stroke-width="3" fill="#8BC53F" fill-rule="nonzero" stroke-linecap="round"></path>
        </g>
    </g>
</svg>