<?xml version="1.0" encoding="UTF-8"?>
<svg width="139px" height="200px" viewBox="0 0 139 200" version="1.1" xmlns="http://www.w3.org/2000/svg" xmlns:xlink="http://www.w3.org/1999/xlink">
    <title>Woman 4</title>
    <g id="Page-1" stroke="none" stroke-width="1" fill="none" fill-rule="evenodd">
        <g id="Onboarding-1" transform="translate(-35.000000, -225.000000)">
            <g id="Group" transform="translate(-25.000000, 201.000000)">
                <g transform="translate(60.125392, 24.000000)" id="Group">
                    <path d="M56.7086267,5.38355666 C56.5872966,2.65874227 54.6486529,0.925009735 52.0321432,0.695078744 C44.536054,0.0370003894 36.8421441,-0.219359452 29.5016739,1.75223273 C26.0727802,2.66667092 22.5779463,4.05418553 19.7293269,6.20813677 C16.3004332,8.79023537 14.2193584,12.2127714 12.7396589,16.1929561 C10.0361081,23.4688184 9.78289751,31.5216889 9.64574176,39.1860553 C9.5059484,47.1966396 9.6061776,55.2125097 9.83564972,63.2204511 C10.0994108,72.3780475 10.5293413,81.5277152 10.9619094,90.6773829 C11.0542258,92.6701182 12.3413797,94.7289255 14.3908031,95.1967162 C16.308346,95.6354351 18.7481358,94.948285 19.6660242,93.0427649 C24.0734714,83.9697409 31.9467389,76.3529464 33.8590066,66.1434818 C34.513134,62.6522308 34.3285012,59.2349806 32.5402013,56.0873046 C31.0921531,53.5448492 28.8686474,51.3301117 26.7374581,49.345305 C25.6824139,48.3674376 24.5587918,47.2045682 23.2690002,46.567633 C21.928018,45.8791857 20.3788608,45.7170802 18.9248557,46.1130567 C18.9248557,45.6029799 18.9248557,45.0929032 18.9248557,44.5828264 C18.9433189,40.7585718 18.9776079,36.9316744 19.1675158,33.1127056 C19.2519194,31.4159735 19.3758871,29.7218842 19.5631574,28.0357236 C19.5631574,27.9934375 19.6554738,27.3115732 19.6712994,27.1503572 C19.7240517,26.7935677 19.7768039,26.4367782 19.8374689,26.0932032 C19.9878127,25.1866936 20.1645326,24.2801841 20.364991,23.3842461 C20.7196593,21.7928404 21.1787211,20.2266133 21.7391861,18.6957682 C21.7840255,18.5741955 22.1743919,17.6861861 22.0029472,18.0324041 C22.1242772,17.7681156 22.2482449,17.5038271 22.3827631,17.2395386 C22.5673958,16.885392 22.7599414,16.5365312 22.9683126,16.1982419 C23.0527162,16.058169 23.6751923,15.2150887 23.6066144,15.2626606 C23.9732422,14.8530135 24.3688838,14.4697951 24.753975,14.0839339 C24.8172776,14.0205047 24.8647546,13.967647 24.9043188,13.9253608 L25.0625754,13.8249312 C25.4001895,13.6029289 25.7272533,13.3756408 26.0727802,13.1668529 C26.6477793,12.8206349 27.2412417,12.5087745 27.8452545,12.2207 C27.9085572,12.1916283 28.5415837,11.922054 28.5811479,11.8982681 C29.013716,11.7291234 29.4489217,11.5652646 29.8999531,11.417263 C31.6839968,10.8184197 33.5134187,10.3650108 35.3703574,10.061463 C35.4494857,10.0482486 36.1616406,9.9451761 36.2275808,9.93196167 C36.6759746,9.87910397 37.1243684,9.83153204 37.5727622,9.79188877 C38.4519657,9.71436414 39.3232564,9.66062548 40.1866343,9.63067279 C44.1430501,9.48002834 48.0994659,9.73110241 52.0321432,10.0773203 C54.4745706,10.2861083 56.8167687,7.76215312 56.7086267,5.38355666 Z" id="Path" fill="#53C9FF" fill-rule="nonzero"></path>
                    <path d="M138.609072,62.557087 C138.506205,60.8074971 137.73866,59.8058437 136.609763,59.17948 C136.811963,58.2739202 136.313364,57.3583702 135.443939,57.0387432 C130.097438,55.0328463 124.583272,53.5080452 118.966786,52.4824095 C116.922638,52.1124056 114.074018,51.092252 112.37276,52.7969128 C111.468059,53.7087081 110.790193,54.9825787 110.049025,56.0265182 L107.543295,59.5864843 C104.296396,64.1983185 101.002021,68.7969383 98.2457176,73.7285617 C97.612691,74.8597164 97.0113158,76.0049666 96.441592,77.1643121 C95.8560424,78.3721105 95.4445752,79.94727 94.6295535,81.0123526 C93.8567336,82.0219347 92.4851761,82.6773701 91.4459576,83.3909491 L90.5702709,83.9988126 C90.0638497,82.3100091 89.0430944,80.7771359 87.9986006,79.2257624 C86.2683281,76.6489495 84.3613357,74.0457079 82.1088163,71.8996853 C79.4316416,69.3440155 76.0581377,68.183789 72.5184643,67.7054269 C69.3691573,67.5151391 66.2251256,67.242922 63.0705433,67.2297076 C62.8382977,67.2327449 62.6098534,67.1704837 62.4111407,67.0499914 C60.9551797,67.2059216 60.3933686,64.9356834 61.9152699,64.5788939 C64.6003575,63.9498873 67.2933578,61.452361 67.9817742,58.7486897 C68.6833786,55.9710176 67.0559729,53.1986313 68.2455352,50.4421023 C69.1370476,48.3568661 71.1732829,46.5914189 70.6009215,44.1176786 C70.3371604,42.9468806 69.5168635,41.9690131 68.9286764,40.9462167 C68.3223517,39.9271128 67.9033713,38.8072992 67.691637,37.6399676 C67.1641149,34.6032928 66.2884282,31.6141899 66.1433596,28.5643006 C65.9930158,25.3531954 66.8555145,22.1368044 66.6708817,18.9204134 C66.3596437,13.5870716 66.2989787,8.46251764 61.5011651,5.07433912 C59.842108,3.9008982 55.1497989,1.72580388 55.1708998,1.62537425 C53.5065675,1.36108575 53.0739994,0.832508762 51.4017543,0.858937611 C50.1831782,0.795508372 49.1413221,1.92930602 48.8327216,1.85001947 C47.5139164,1.51437308 39.9571621,0.245788301 35.4653114,1.48794423 C32.8118752,2.22266625 30.2322921,3.44103622 27.6474337,4.40833211 C25.1337909,5.34655627 19.4893043,7.54543655 17.5928623,11.4331203 C17.3027252,12.0277694 16.9571982,12.1440564 16.4956163,12.6171328 C16.0340345,13.0902092 15.5750903,13.1721386 14.8233713,13.0003511 C14.5780735,13.0003511 14.3406885,13.0003511 14.1033036,13.0003511 C10.4660386,16.5444598 11.0753267,21.7483003 10.3789975,26.4473498 C9.91214043,29.58974 9.23427452,32.737416 9.39253115,35.930021 C9.47693469,37.6822537 9.76707185,39.4159863 10.0229201,41.1497188 C10.7647896,41.5070195 11.4366088,41.9948834 12.0064032,42.5900911 C13.3647726,44.0886069 13.6311713,46.2399152 14.2852987,48.1533639 C15.2401137,48.8775144 16.3162588,49.8025241 16.8938955,50.9019643 C17.7611673,51.4653528 18.5919223,52.0832651 19.3811623,52.7519838 C20.8450361,54.0284972 22.4961803,55.204581 24.0470953,56.4731658 C24.8009645,56.9552027 25.473964,57.5537287 26.0411289,58.2465416 C26.574388,58.7694913 27.0722429,59.3274975 27.5313789,59.9168449 C29.5016739,62.4910148 30.4327505,66.1963395 29.9711686,69.4048019 C29.5728894,72.203617 27.6711722,73.720633 25.7747302,75.5944385 L25.7430789,75.6208673 C24.9992727,76.8735948 24.1288613,78.0655359 23.3164772,79.2627628 C22.5537483,80.4372337 21.6878062,81.5410633 20.7289813,82.5610832 C16.4323137,87.941997 12.061793,93.317625 8.25572101,99.0288994 C3.59242556,106.024616 0.87041148,113.900413 0.741168563,122.347073 C0.737421142,122.61988 0.805663604,122.888837 0.938989354,123.126724 C0.191768235,126.954913 -0.0986480403,130.858531 0.0738530953,134.755418 C0.0684173676,135.510744 0.561946301,136.178718 1.28451634,136.394007 C0.904700417,144.771952 2.99368797,153.044182 6.82349848,160.560547 C9.0977374,164.9688 11.8954326,169.085438 15.1557102,172.82089 C15.9338053,173.722114 17.0336889,174.612766 16.3901119,175.812636 C15.8256633,176.86979 14.5437845,177.805371 13.8263545,178.791167 C12.3967696,180.773331 11.655601,182.940497 12.2147744,185.366665 C12.3316693,185.861293 12.6734694,186.272273 13.1379381,186.476677 C13.0233844,187.782591 13.19163,189.097892 13.6311713,190.332646 C14.5991744,192.859244 16.8253177,194.1199 19.2571946,194.978838 C24.8673922,196.961001 30.7888279,198.163514 36.6838875,198.898236 C48.543805,200.358579 60.5743417,199.477784 72.0964466,196.305566 C75.2487876,195.436814 78.3501831,194.392125 81.386111,193.17639 C84.1318635,192.074307 87.4367896,191.107011 89.1828877,188.564556 C89.8739417,187.557617 89.3253187,186.585035 88.4680953,186.18596 C91.3694669,181.164478 92.0209567,175.249702 91.7598332,169.400997 C91.4485952,162.38678 90.6045598,155.356706 89.702497,148.382133 C92.7199235,149.174999 96.2173951,148.59885 98.9341339,147.383123 C103.557865,145.321672 106.918181,141.338845 108.693293,136.658295 C112.454526,126.797692 109.041458,116.482512 106.388021,106.674766 C106.580285,106.565766 106.750306,106.421408 106.889167,106.249261 C111.67643,100.469272 126.317807,99.5284046 124.758979,89.6757295 C122.975954,78.1923944 139.279025,73.7999196 138.609072,62.557087 Z" id="Path" fill="#53C9FF" fill-rule="nonzero"></path>
                    <path d="M131.323991,60.487708 C129.398536,60.1150613 127.422965,59.8296297 125.521248,59.3036956 C123.817352,58.8279763 122.422056,57.8342515 120.83949,57.0916009 C119.618276,56.5180948 118.143852,55.9049455 116.883074,56.674025 C116.766325,56.7445857 116.655212,56.8241106 116.550735,56.9118847 C115.925621,56.2749494 114.933879,56.076733 114.205899,56.9673853 C111.623678,60.1229899 109.168063,63.2865232 107.474717,67.0103481 C106.705204,68.7622501 105.818716,70.4601877 104.821281,72.0926159 C104.325184,72.8467428 103.917196,73.6554823 103.605342,74.502927 C103.466968,74.9130014 103.371501,75.3363753 103.32048,75.766226 L103.259815,76.315946 C103.259815,76.3820182 103.259815,76.4348759 103.259815,76.4824478 C102.725698,77.0586419 102.630393,77.9170269 103.025068,78.5967558 C103.853278,79.8283402 104.048461,80.9753522 103.610617,82.4025101 C103.159586,83.8693113 104.913597,85.2171826 106.213939,84.4084598 C107.379578,83.6368548 108.814412,83.3895697 110.170355,83.7265955 C111.167372,83.9485978 110.676776,83.6895951 110.792831,84.3212446 C110.903611,84.9106079 110.742716,85.5924722 110.866684,86.2241218 C111.023334,86.8319902 111.497068,87.306672 112.103723,87.4636348 C113.365005,87.6941539 114.562734,88.1915025 115.617021,88.9225073 C116.37929,89.4510843 117.624242,89.0969377 118.040985,88.285572 C120.377908,83.7450957 123.226527,79.5138368 126.03822,75.2614349 C128.67583,71.2971075 131.207937,67.2693508 132.561031,62.6654452 C132.816879,61.8038647 132.255068,60.6674242 131.323991,60.487708 Z M115.068398,84.5379611 C115.301838,84.7013133 115.565476,84.8163241 115.843855,84.8762504 L115.806929,84.9476083 C115.543168,84.8233927 115.279406,84.7150344 115.015645,84.6119619 L115.068398,84.5379611 Z" id="Shape" fill="#FFFFFF" fill-rule="nonzero"></path>
                    <path d="M77.3848558,94.5729953 C77.3848558,94.5729953 79.9143243,102.713081 82.2143207,106.323262 C84.5143171,109.933443 88.497109,114.156773 89.2646537,117.381093 C90.0973277,121.05038 89.6650063,124.89409 88.0381648,128.285636 C86.2762409,131.893174 84.6672985,134.892848 86.6586945,146.257254 C88.6500904,157.621659 90.2616705,176.666288 84.9732613,186.188602" id="Path" stroke="#1B1464" stroke-width="3" stroke-linecap="round"></path>
                    <path d="M17.1471062,190.639221 C17.1471062,190.639221 14.5411469,186.492534 16.7646526,183.038284 C18.9881583,179.584033 20.9848295,174.974842 20.52061,171.827166" id="Path" stroke="#1B1464" stroke-width="3" stroke-linecap="round"></path>
                    <path d="M52.4778994,67.6208545 C52.4778994,67.6208545 55.6192936,69.2330144 58.3017435,69.3863017 C60.9841934,69.539589 73.631536,69.76952 76.7650173,72.227403 C79.8984986,74.685286 88.1832333,83.0632313 89.4097222,90.0430905" id="Path" stroke="#1B1464" stroke-width="3" stroke-linecap="round"></path>
                    <path d="M28.2699098,74.7962872 C28.2699098,74.7962872 68.3800534,94.2902066 56.0281232,69.3202296" id="Path" stroke="#FFFFFF" stroke-width="3" stroke-linecap="round"></path>
                    <path d="M89.0351816,107.628847 C89.0351816,107.628847 92.7278363,102.253219 92.1765757,99.9486233 C91.6253151,97.6440277 87.6557112,90.1963778 90.6493992,87.4979923 C93.6430872,84.7996068 99.6172751,80.7401355 100.144797,79.3579066 C100.672319,77.9756778 105.280225,76.82338 104.589171,81.1233538 C103.898117,85.4233276 99.2242711,87.344705 99.3772525,88.5736465 C99.5302339,89.802588 100.144797,92.1151123 100.672319,92.7309045" id="Path" stroke="#1B1464" stroke-width="3" stroke-linecap="round"></path>
                    <path d="M86.2762409,143.720084 C86.2762409,143.720084 88.4206183,146.09868 92.9441204,145.871392 C97.4676225,145.644104 105.05339,145.948036 107.965312,133.185545 C110.877234,120.423053 102.600413,108.704501 105.129881,104.941033 C107.65935,101.177565 113.174593,99.565405 116.777569,98.7963255 C120.380545,98.027246 125.130882,91.3486757 122.295451,87.2019892" id="Path" stroke="#1B1464" stroke-width="3" stroke-linecap="round"></path>
                    <path d="M96.5444588,82.5161542 L112.515191,54.9165065 C112.989349,54.0848433 113.973795,53.6913737 114.88904,53.9677108 L134.111946,59.8164153 C134.70605,59.9967315 135.187139,60.4361954 135.421122,61.0123203 C135.655106,61.5884451 135.616966,62.239629 135.317334,62.7843751 L118.34431,93.6744144 C117.844671,94.5832153 116.748788,94.9782956 115.785828,94.5967813 L99.6146374,88.5181459" id="Path" stroke="#1B1464" stroke-width="3" stroke-linecap="round"></path>
                    <path d="M37.6096888,53.182774 C37.6096888,53.182774 46.1951111,63.5508117 56.2338568,58.09854" id="Path" stroke="#1B1464" stroke-width="3" stroke-linecap="round"></path>
                    <path d="M103.135848,84.2076005 L105.480683,84.9158937 C105.905339,83.8587397 107.160841,83.184804 108.5746,83.3301627 C110.236295,83.4860929 111.475972,84.7123916 111.354642,86.0708344 C111.314197,86.4679264 111.162398,86.8454356 110.916799,87.159703 L116.086515,89.274011 C116.850776,89.5895234 117.72864,89.2625445 118.10165,88.5234317 L131.482248,63.3314522 C131.720024,62.8903449 131.751621,62.3666345 131.568608,61.9000384 C131.385596,61.4334423 131.006592,61.0714261 130.532708,60.9105696 L115.387549,56.1533767 C114.658005,55.9293418 113.872051,56.2523158 113.50957,56.9250991 L102.06234,77.7695328" id="Path" stroke="#1B1464" stroke-width="3" stroke-linecap="round"></path>
                    <line x1="47.8014159" y1="35.5970175" x2="47.8014159" y2="40.0502787" id="Path" stroke="#1B1464" stroke-width="3" stroke-linecap="round"></line>
                    <line x1="58.6683713" y1="33.403423" x2="58.6683713" y2="37.8566841" id="Path" stroke="#1B1464" stroke-width="3" stroke-linecap="round"></line>
                    <path d="M43.6471793,117.666524 C43.6471793,117.666524 53.2217056,123.898447 62.1341916,123.256226" id="Path" stroke="#FFFFFF" stroke-width="3" stroke-linecap="round"></path>
                    <path d="M93.9991646,103.384374 C93.9991646,103.384374 103.571053,109.613654 112.486177,108.971433" id="Path" stroke="#FFFFFF" stroke-width="3" stroke-linecap="round"></path>
                    <path d="M13.7340381,93.8409162 C14.5094956,84.7626064 12.204224,34.9257247 12.204224,34.9257247 C10.0730347,-4.47440423 46.6646058,3.3036062 52.4225096,4.6039056 C58.9796094,6.08127829 63.6798314,12.1599137 64.9907238,15.7727374 C66.3016163,19.3855612 64.041184,24.420257 64.041184,24.420257 C64.041184,24.420257 61.8071279,33.1417774 66.1301716,40.2009231 C68.145306,43.4913149 67.6652609,45.7747675 66.0563185,47.1569963 C64.4473761,48.5392251 64.7375132,51.4939705 64.7375132,51.4939705 C67.4964538,62.3985139 60.140158,64.0106737 57.9166523,64.8563969 C55.6931467,65.7021201 53.0106967,66.391913 52.4752618,67.2349933 C51.9398268,68.0780736 53.2428065,72.8405523 53.2428065,72.8405523" id="Path" stroke="#1B1464" stroke-width="3" stroke-linecap="round"></path>
                    <path d="M19.2176304,136.962227 C19.2176304,136.962227 19.1411397,137.578019 21.1325357,137.961238 C23.1239316,138.344456 31.3269004,131.739886 33.8537313,129.208003 C35.9400813,127.117481 45.7229788,117.53438 46.1159828,116.688657 C46.5089867,115.842933 44.8736682,103.495375 45.3510757,101.71407 C46.730546,96.5710164 51.4043919,94.649639 57.4603457,91.1953884 C63.5162995,87.7411377 65.5076955,90.3496652 65.5841862,91.3486757 C65.6606769,92.3476862 62.8252456,95.0355002 60.2192863,96.877591 C57.6133271,98.7196818 59.6047231,102.253219 59.6047231,102.253219 C74.0139895,110.240017 60.5252492,118.070885 61.4510505,121.144561 C61.9785726,122.910008 60.9894686,128.975429 59.3040355,133.58462 C57.6186024,138.193812 59.6099983,140.191833 46.7358212,157.69566 C33.8616442,175.199487 18.5318517,171.827166 18.5318517,171.827166 C0.445756182,155.705567 4.73714854,130.820163 5.04311136,114.693279 C5.34907418,98.5663945 26.8033984,79.8336259 26.8033984,79.8336259 C26.1914727,75.6869394 31.2504097,74.6139281 32.1682982,73.3849866 C33.0861867,72.1560451 32.1682982,66.9337044 32.1682982,66.9337044" id="Path" stroke="#1B1464" stroke-width="3" stroke-linecap="round"></path>
                    <path d="M32.2052248,66.8015602 L28.7077532,34.8226522 C54.2108095,28.3422983 57.4577081,21.6795853 58.9796094,14.7816556 C58.9796094,14.7816556 61.3402708,22.9745989 64.041184,24.4149712" id="Path" stroke="#1B1464" stroke-width="3" stroke-linecap="round"></path>
                </g>
            </g>
        </g>
    </g>
</svg>