<?xml version="1.0" encoding="UTF-8"?>
<svg width="193px" height="320px" viewBox="0 0 193 320" version="1.1" xmlns="http://www.w3.org/2000/svg" xmlns:xlink="http://www.w3.org/1999/xlink">
    <title>Woman 3</title>
    <g id="Page-1" stroke="none" stroke-width="1" fill="none" fill-rule="evenodd">
        <g id="Onboarding-5-(student)" transform="translate(-221.000000, -217.000000)">
            <g id="Group" transform="translate(92.000000, 181.000000)">
                <g transform="translate(129.000000, 36.000000)" id="Woman-3">
                    <g id="Group" transform="translate(0.000000, -0.000000)">
                        <path d="M0.430195599,99.4057079 C0.598899756,96.5868849 1.8346577,94.9749233 3.65666259,93.9663923 C3.31811664,92.5073121 4.12470887,91.0256757 5.53349633,90.5188199 C14.155359,87.2899925 23.0474342,84.8356346 32.104401,83.1848164 C35.3983496,82.5898253 39.9955379,80.9441053 42.7243276,83.6911918 C44.1836186,85.1596804 45.2886308,87.2105007 46.4737775,88.889979 C47.8177873,90.8001395 49.1646088,92.7103 50.5142421,94.6204605 C55.7482885,102.047299 61.0582518,109.453039 65.5036064,117.407353 C66.5242665,119.230304 67.4943154,121.078574 68.4137531,122.952163 C69.3584963,124.897489 70.0206601,127.433585 71.3365526,129.146822 C72.6018337,130.775663 74.7949878,131.834831 76.4693765,132.995275 L77.8822738,133.978487 C78.6962714,131.25672 80.3453545,128.78814 82.0281785,126.290021 C84.8160147,122.141963 87.8948655,117.951706 91.5262225,114.474595 C95.8450489,110.364515 101.28154,108.495146 106.992176,107.722924 C112.053301,107.419098 117.135513,106.98024 122.226161,106.959141 C122.599046,106.961063 122.965276,106.860334 123.28478,106.667975 C125.633985,106.921163 126.54077,103.2626 124.086125,102.688708 C119.754645,101.675958 115.414731,97.654493 114.309719,93.3038845 C113.179401,88.8309019 115.802751,84.3832381 113.887958,79.9313545 C112.453973,76.5555186 109.16846,73.7282561 110.092115,69.7447697 C110.513875,67.8585214 111.842421,66.2845379 112.791381,64.6430377 C113.769005,63.0014107 114.444661,61.1977726 114.786308,59.3176566 C115.629829,54.4269143 117.051161,49.6121283 117.28313,44.7045069 C117.527751,39.5352582 116.131724,34.3575699 116.439609,29.1798816 C116.941504,20.592599 117.038509,12.3386802 124.777812,6.88670524 C127.45599,4.99623713 135.018154,1.49380739 134.997066,1.32923539 C137.68368,0.907255898 138.371149,0.0632969231 141.078851,0.0970552821 C143.040037,-0.00421979488 144.722861,1.82295139 145.220538,1.69635754 C147.32934,1.1562238 159.530868,-0.890376719 166.772494,1.10980605 C171.049144,2.29134862 175.207702,4.25777303 179.378912,5.81065754 C183.432029,7.3255639 192.537836,10.8744114 195.595599,17.1239276 C196.059535,18.081821 196.616259,18.267492 197.358557,19.0270551 C198.100856,19.7866182 198.847372,19.9216516 200.057824,19.6431451 C204.95868,19.4574742 208.864181,20.8837648 212.993215,22.5970016 C217.847677,24.6267229 220.930746,28.8549574 222.773839,33.6781829 C224.67176,38.6575409 225.194743,44.2529889 223.73967,49.4180178 C222.343643,54.3889361 219.020171,58.3893017 214.882702,61.4106748 C211.736369,63.7146828 207.240403,64.2927947 204.57066,67.2297719 C202.381724,69.6434946 201.951528,73.1079462 200.897127,76.1883965 C199.357702,77.3530599 197.624267,78.8426474 196.679523,80.6149613 C195.279812,81.511335 193.939991,82.4980458 192.668582,83.5688177 C190.306724,85.619638 187.645416,87.5143259 185.140159,89.5567066 C183.926574,90.3338822 182.843351,91.2980383 181.930562,92.4135078 C181.066509,93.252827 180.263142,94.1525013 179.526528,95.1057369 C176.346455,99.2495755 174.857641,105.212146 175.591504,110.381394 C176.232579,114.883915 179.298778,117.327177 182.33967,120.34433 L182.394499,120.390748 C183.592298,122.40781 184.992543,124.323597 186.304218,126.252043 C187.532609,128.144492 188.928637,129.922562 190.475428,131.564765 C197.404951,140.228003 204.452567,148.865924 210.589181,158.077736 C218.109169,169.344588 222.495477,182.025072 222.710575,195.63391 C222.716209,196.076674 222.605687,196.513173 222.390037,196.899849 C223.591183,203.061209 224.058376,209.34327 223.781846,215.614639 C223.793542,216.831722 222.996186,217.908626 221.829095,218.252011 C222.444866,231.755354 219.075,245.051928 212.891993,257.166959 C209.223446,264.262926 204.711676,270.889577 199.454707,276.90294 C198.189425,278.358769 196.426467,279.789279 197.463998,281.726165 C198.370782,283.414083 200.445844,284.92899 201.597249,286.519852 C203.904279,289.710017 205.097861,293.199788 204.195293,297.107318 C204.008324,297.90269 203.458451,298.563818 202.710697,298.892291 C202.897621,301.004763 202.624218,303.132663 201.909352,305.129148 C200.382579,309.218129 196.793399,311.235191 192.875244,312.619284 C183.828484,315.813668 174.279829,317.746334 164.77335,318.948976 C145.651145,321.292608 126.255348,319.869099 107.679645,314.75872 C102.595099,313.353037 97.5935632,311.662452 92.6987164,309.694966 C88.2744499,307.922652 82.9433985,306.365548 80.1260391,302.272346 C79.0125917,300.651945 79.8982885,299.082182 81.2816626,298.423894 C76.6212103,290.321887 75.5499389,280.818909 75.9716993,271.417206 C76.4735941,260.120815 77.8358802,248.803326 79.2909535,237.570232 C74.4238386,238.83617 68.7806846,237.920475 64.3817237,235.96249 C56.9292176,232.645731 51.5095966,226.231643 48.6289731,218.695089 C42.5640587,202.816001 48.0638142,186.202669 52.3488998,170.420636 C52.0366213,170.246581 51.76036,170.014572 51.5349022,169.737029 C43.816687,160.428162 20.2065403,158.913255 22.7202323,143.051046 C25.6388142,124.581004 -0.649511002,117.508628 0.430195599,99.4057079 Z" id="Path" fill="#8BC53F" fill-rule="nonzero"></path>
                        <path d="M12.1804401,96.0720699 C15.2845966,95.472859 18.4688875,95.0129014 21.5182152,94.1647226 C24.2680929,93.4009398 26.5160758,91.8016375 29.0677262,90.6074356 C31.0373472,89.6833005 33.4118582,88.6958685 35.4616137,89.9322684 C35.6481183,90.0487731 35.8270249,90.1770326 35.9972494,90.3162697 C37.0052567,89.2866398 38.6037286,88.9701551 39.7930929,90.4048854 C43.9600856,95.4897382 47.9204156,100.578811 50.6492054,106.596238 C51.8892341,109.416749 53.3180281,112.15035 54.9258557,114.778421 C55.7285634,115.992252 56.3880901,117.294999 56.8912592,118.660632 C57.1126068,119.321133 57.2652488,120.002723 57.3467604,120.694573 L57.4437653,121.58073 C57.4437653,121.686225 57.4437653,121.770621 57.4437653,121.846577 C58.2926901,122.768567 58.446306,124.134751 57.8233496,125.222413 C56.4863692,127.201497 56.1700489,129.058206 56.8786064,131.349555 C57.6040342,133.71264 54.7698044,135.881615 52.6610024,134.577698 C50.7794014,133.334957 48.4637392,132.93708 46.2755501,133.480551 C44.6644254,133.839234 45.457335,133.421474 45.2675428,134.442665 C45.0904034,135.387899 45.3476773,136.485045 45.1494499,137.502016 C44.8964768,138.480654 44.1326531,139.244874 43.1545232,139.497979 C41.1211492,139.870486 39.1902972,140.67171 37.4902812,141.848405 C36.2587408,142.692364 34.255379,142.126911 33.5805623,140.822995 C29.8100244,133.51009 25.2170538,126.699341 20.6831296,119.854834 C16.4655257,113.466064 12.3491443,106.984459 10.1644254,99.5744997 C9.77218826,98.1946267 10.6747555,96.3632358 12.1804401,96.0720699 Z M38.3928484,134.792908 C38.0114426,135.056697 37.5812977,135.241756 37.1275672,135.337261 L37.1908313,135.451196 C37.6125917,135.252865 38.0343521,135.075634 38.4561125,134.911062 L38.3928484,134.792908 Z" id="Shape" fill="#FFFFFF" fill-rule="nonzero"></path>
                        <path d="M99.155868,150.975821 C99.155868,150.975821 95.077445,164.082504 91.3701711,169.893161 C87.6628973,175.703819 81.2479218,182.506128 79.9826406,187.700696 C78.6397774,193.607631 79.3370409,199.795527 81.9606968,205.255043 C84.8033619,211.06992 87.3971883,215.888926 84.1833741,234.190176 C80.9695599,252.491426 78.3757335,283.139797 86.9037286,298.48719" id="Path" stroke="#006837" stroke-width="3" stroke-linecap="round"></path>
                        <path d="M139.311675,107.558352 C139.311675,107.558352 134.25055,110.153525 129.919071,110.402493 C125.587592,110.651461 105.199694,111.018583 100.134352,114.976751 C95.0690098,118.934919 81.7202934,132.408724 79.7422372,143.671356" id="Path" stroke="#006837" stroke-width="3" stroke-linecap="round"></path>
                        <path d="M213.343276,161.217263 C213.343276,161.217263 141.791626,158.993431 97.92011,113.242415" id="Path" stroke="#FFFFFF" stroke-width="3" stroke-linecap="round"></path>
                        <path d="M80.3706601,171.97352 C80.3706601,171.97352 74.4364914,163.318721 75.3095355,159.609521 C76.1825795,155.900322 82.597555,143.907665 77.7810513,139.582375 C72.9645477,135.257085 63.3188875,128.699524 62.4542787,126.475692 C61.5896699,124.25186 54.1751222,122.39515 55.2843521,129.319834 C56.3935819,136.244517 63.9346577,139.333407 63.6858191,141.312491 C63.4369804,143.291575 62.4500611,147.000774 61.5770171,147.988206" id="Path" stroke="#006837" stroke-width="3" stroke-linecap="round"></path>
                        <path d="M84.8202323,230.088535 C84.8202323,230.088535 81.3575795,233.920109 74.0695599,233.548767 C66.7815403,233.177425 54.5420538,233.675361 49.8478606,213.150279 C45.1536675,192.625196 58.4981663,173.707856 54.4197433,167.648231 C50.3413203,161.588605 41.4632641,158.993431 35.6345355,157.757031 C29.8058068,156.520632 22.1635086,145.764374 26.7353912,139.084439" id="Path" stroke="#006837" stroke-width="3" stroke-linecap="round"></path>
                        <path d="M68.2577017,131.564765 L42.5303178,87.121885 C41.7616018,85.7793626 40.1681113,85.1458355 38.6880807,85.5943192 L7.68869193,95.0129014 C6.73134257,95.303413 5.9563187,96.0109473 5.57969818,96.9382428 C5.20307766,97.8655382 5.26514441,98.9134098 5.74859413,99.7897092 L33.1124083,149.507332 C33.9246278,150.967596 35.6948642,151.596537 37.2456601,150.975821 L63.3188875,141.173238" id="Path" stroke="#006837" stroke-width="3" stroke-linecap="round"></path>
                        <path d="M163.292971,84.303062 C163.292971,84.303062 149.450795,100.996571 133.263631,92.2151774" id="Path" stroke="#006837" stroke-width="3" stroke-linecap="round"></path>
                        <path d="M195.713692,23.4578397 C195.713692,23.4578397 208.665954,17.630303 217.590403,31.3952739 C223.326345,40.2357441 223.621577,49.392699 215.802139,56.5199326 C215.802139,56.5199326 209.986064,64.1872998 202.056968,59.6932183" id="Path" stroke="#006837" stroke-width="3" stroke-linecap="round"></path>
                        <path d="M57.6335575,134.265433 L53.8377139,135.408998 C53.1544621,133.72108 51.1300122,132.619713 48.8482885,132.834923 C46.17011,133.083891 44.1625306,135.058755 44.3691932,137.248828 C44.4309027,137.888156 44.6754384,138.49615 45.073533,139.000043 L36.7395477,142.418077 C35.5056946,142.916464 34.0955867,142.391287 33.4877751,141.206996 L11.9400367,100.646328 C11.555542,99.9367433 11.5040272,99.0934495 11.799289,98.3422974 C12.0945508,97.5911453 12.7064205,97.0088848 13.4710269,96.7514569 L37.8909535,89.0714302 C39.0679874,88.7091298 40.3367347,89.2306826 40.9191932,90.3162697 L59.3796455,123.876298" id="Path" stroke="#006837" stroke-width="3" stroke-linecap="round"></path>
                        <line x1="146.856968" y1="56.0008978" x2="146.856968" y2="63.1703293" id="Path" stroke="#006837" stroke-width="3" stroke-linecap="round"></line>
                        <line x1="129.332824" y1="52.4647097" x2="129.332824" y2="59.638361" id="Path" stroke="#006837" stroke-width="3" stroke-linecap="round"></line>
                        <path d="M153.558741,188.139555 C153.558741,188.139555 138.122311,198.170007 123.748716,197.136157" id="Path" stroke="#FFFFFF" stroke-width="3" stroke-linecap="round"></path>
                        <path d="M72.3656479,165.141672 C72.3656479,165.141672 56.9292176,175.172125 42.5556235,174.138275" id="Path" stroke="#FFFFFF" stroke-width="3" stroke-linecap="round"></path>
                        <path d="M192.951161,219.209904 C192.951161,219.209904 193.077689,220.197336 189.863875,220.813426 C186.650061,221.429516 173.41522,210.799853 169.34945,206.719311 C165.975367,203.343475 150.193093,187.924345 149.577323,186.565571 C148.961553,185.206797 151.580685,165.318904 150.813081,162.453663 C148.586186,154.170206 141.049328,151.081316 131.285575,145.515406 C121.521822,139.949497 118.308007,144.156633 118.185697,145.764374 C118.063386,147.372116 122.635269,151.697406 126.836002,154.663922 C131.036736,157.630438 127.827139,163.318721 127.827139,163.318721 C104.592359,176.180656 126.342543,188.789403 124.874817,193.735003 C124.031296,196.579144 125.617115,206.347969 128.337469,213.766369 C131.057824,221.184768 127.84401,224.400252 148.603056,252.588482 C169.362103,280.776711 194.081479,275.337396 194.081479,275.337396 C223.24621,249.372998 216.325122,209.310265 215.831663,183.345868 C215.338203,157.38147 180.732763,127.222596 180.732763,127.222596 C181.7239,120.54688 173.562836,118.816764 172.082457,116.837681 C170.602078,114.858597 172.082457,106.452765 172.082457,106.452765 C172.230073,91.3163611 176.962225,87.4636884 190.180196,79.8005409 C202.862531,72.4412186 202.073839,59.7016579 202.073839,59.7016579 C205.511186,-3.77249662 150.821516,3.126868 141.53857,5.21988626 C130.965037,7.59985057 123.647494,17.4952696 121.534474,23.3143667 C119.421455,29.1334638 120.690954,38.0076924 120.690954,38.0076924 C120.690954,38.0076924 124.292787,52.04695 117.31687,63.4150774 C114.065098,68.7151397 114.841137,72.3905811 117.439181,74.614413 C120.037225,76.8382449 119.547983,81.5981735 119.547983,81.5981735 C115.102628,99.15674 126.962531,101.751914 130.547494,103.119127 C134.132457,104.486341 138.468154,105.579268 139.311675,106.938042 C140.155196,108.296816 138.084352,115.951524 138.084352,115.951524" id="Path" stroke="#006837" stroke-width="3" stroke-linecap="round"></path>
                        <path d="M190.690526,18.5670975 C168.881296,8.38473242 154.798716,17.3306976 154.798716,17.3306976 C154.798716,17.3306976 165.039059,4.54893888 186.725978,12.878814 C186.725978,12.878814 193.596455,14.9887114 190.821271,18.432064" id="Path" stroke="#006837" stroke-width="3" fill="#8BC53F" fill-rule="nonzero" stroke-linecap="round" stroke-linejoin="round"></path>
                        <path d="M120.986186,26.1205303 C120.986186,26.1205303 114.427812,15.2165803 137.06791,3.59526523 C137.06791,3.59526523 140.201589,2.56563528 141.049328,4.27465221 C142.263998,6.75589159 128.063325,5.29584257 120.986186,26.1205303 Z" id="Path" stroke="#006837" stroke-width="3" fill="#8BC53F" fill-rule="nonzero" stroke-linecap="round"></path>
                        <path d="M137.274559,18.7358892 C137.274559,18.7358892 137.139609,0.147692821 164.102751,2.40106328 C164.102751,2.40106328 169.606724,1.84827016 169.36632,5.47307395 C169.277751,6.79808954 153.12011,-0.447298257 137.274559,18.7358892 Z" id="Path" stroke="#006837" stroke-width="3" fill="#8BC53F" fill-rule="nonzero" stroke-linecap="round"></path>
                        <path d="M200.690465,34.9652203 C189.374633,21.3352829 165.684352,22.0062303 165.684352,22.0062303 C165.684352,22.0062303 189.914487,14.1152139 201.01522,30.9099975 C200.99835,30.9099975 205.228606,40.4171953 200.690465,34.9652203 Z" id="Path" stroke="#006837" stroke-width="3" fill="#8BC53F" fill-rule="nonzero" stroke-linecap="round" stroke-linejoin="round"></path>
                        <path d="M203.811491,48.3166513 C190.361553,27.4286667 169.450672,36.0454878 169.450672,36.0454878 C169.450672,36.0454878 190.606174,36.1509827 200.728423,50.8147699 C207.379584,60.4485616 203.811491,48.3166513 203.811491,48.3166513" id="Path" stroke="#006837" stroke-width="3" fill="#8BC53F" fill-rule="nonzero" stroke-linecap="round"></path>
                    </g>
                </g>
            </g>
        </g>
    </g>
</svg>