<?xml version="1.0" encoding="UTF-8"?>
<svg width="492px" height="743px" viewBox="0 0 492 743" version="1.1" xmlns="http://www.w3.org/2000/svg" xmlns:xlink="http://www.w3.org/1999/xlink">
    <title>Fichier 3</title>
    <g id="Page-1" stroke="none" stroke-width="1" fill="none" fill-rule="evenodd">
        <g id="iPhone-11-Pro-Max" transform="translate(104.000000, -330.000000)">
            <g id="Fichier-3" transform="translate(-104.000000, 330.000000)">
                <path d="M200.987615,19.2421807 C200.556489,9.10418625 193.690207,2.64933938 184.410741,1.79205503 C157.858254,-0.658396099 130.590957,-1.60159566 104.587176,5.68251974 C92.4391379,9.08924448 80.0540742,14.257231 69.9590154,22.2697579 C57.846438,31.8847902 50.4277177,44.6245213 45.188888,59.4374236 C35.6145394,86.5193911 34.7093622,116.460841 34.2297116,145.03325 C33.7295312,174.857034 34.0878694,204.688288 34.9015957,234.497129 C35.8347681,268.581186 37.3614381,302.64283 38.8881081,336.700739 C39.2203175,344.115595 43.776065,351.780726 51.0585422,353.527046 C57.8557698,355.157567 66.5006786,352.593185 69.7798463,345.507048 C85.3955528,311.746107 113.288075,283.395956 120.066639,245.387816 C122.384639,232.390339 121.727686,219.676756 115.376515,207.953066 C110.245933,198.487451 102.371825,190.239591 94.8467226,182.858354 C91.1382956,179.218164 87.123788,174.898124 82.5531098,172.522381 C77.5363751,169.918777 72.1389061,169.347254 67.1594983,170.82649 C67.1594983,168.927017 67.1594983,167.027543 67.16883,165.12807 C67.2341521,150.897897 67.3554645,136.647179 68.029215,122.433815 C68.3296965,116.120915 68.7608221,109.813619 69.4252408,103.53247 C69.4420379,103.377449 69.7518512,100.841083 69.8134405,100.241544 C70.000075,98.9117259 70.1867095,97.5837756 70.3976064,96.2595608 C70.9388464,92.8789842 71.5622056,89.5114816 72.2882137,86.1738626 C73.5441886,80.2621764 75.169863,74.4352479 77.1556408,68.7274723 C77.3142801,68.2754836 78.7009742,64.9677482 78.1168083,66.2564763 C78.5498003,65.27779 78.9902576,64.3028392 79.4643092,63.3428301 C80.1156635,62.0354248 80.8043447,60.7280195 81.5396846,59.4654395 C81.8401661,58.9499482 84.0499183,55.8065723 83.7979617,55.989609 C85.104403,54.4636802 86.4985626,53.0666242 87.8703259,51.5967271 C88.092421,51.3595264 88.2641247,51.1690188 88.4003679,51.0102624 C88.5590072,50.9075377 88.7437753,50.7824004 88.9602713,50.6367181 C90.1491329,49.8130527 91.313732,48.9669747 92.5361878,48.1937378 C94.5705036,46.9068774 96.6776068,45.7432867 98.8201706,44.6693466 C99.0403992,44.559151 101.283746,43.5487135 101.419989,43.4684014 C102.955991,42.8371114 104.499458,42.2338372 106.059722,41.6772561 C112.342936,39.4599686 118.800656,37.773125 125.365192,36.634407 C125.645144,36.5858462 128.17964,36.2066987 128.405467,36.1562702 C129.99186,35.9595368 131.58012,35.7864613 133.170246,35.6370435 C136.253447,35.3531498 139.344114,35.157039 142.436647,35.0319016 C156.434233,34.471585 170.454215,35.405446 184.401409,36.701645 C193.074313,37.4916914 201.364616,28.0951825 200.987615,19.2421807 Z" id="Path" fill="#53C9FF" fill-rule="nonzero"></path>
                <path d="M491.92882,232.707471 C491.55487,226.18823 488.834383,222.460548 484.823769,220.123039 C485.367866,217.060547 484.210491,213.530926 480.686012,212.151964 C461.691219,204.715284 442.146719,198.978951 422.194614,195.189607 C414.943723,193.814382 404.826504,190.01009 398.822736,196.361164 C395.608635,199.75812 393.181699,204.500405 390.571528,208.386911 C387.608597,212.806566 384.643796,217.224976 381.677126,221.642139 C370.155725,238.815638 358.460437,255.944293 348.674164,274.302429 C346.430463,278.514056 344.297702,282.789213 342.275878,287.127899 C340.191107,291.627277 338.734571,297.494407 335.840198,301.455653 C333.091665,305.215101 328.224705,307.666589 324.541297,310.355379 L321.431902,312.625622 C319.633203,306.330603 316.009627,300.620428 312.305651,294.844856 C306.163522,285.253781 299.385677,275.556201 291.396234,267.564573 C281.886684,258.050107 269.916543,253.73758 257.348082,251.947545 C246.174454,251.241247 235.013915,250.228513 223.812241,250.174326 C222.984342,250.183637 222.171839,249.950441 221.475053,249.50353 C216.308933,250.090243 214.31204,241.629618 219.717488,240.302974 C229.253214,237.95986 238.805768,228.660273 241.232704,218.592727 C243.725081,208.246773 237.940074,197.964348 242.133924,187.655764 C245.297541,179.886489 252.525996,173.314931 250.499187,164.112506 C249.538135,159.747661 246.65311,156.109667 244.55712,152.305375 C242.438693,148.456239 240.881191,144.381014 240.172556,139.990009 C238.319633,128.679902 235.184062,117.55291 234.67362,106.188617 C234.138872,94.2301364 237.205262,82.2585764 236.543371,70.2795424 C235.438348,50.4191224 235.221457,31.3341351 218.191772,18.7085957 C212.298319,14.3418819 195.646323,6.2381429 195.691197,5.86257187 C189.780916,4.88160278 188.243982,2.91592756 182.307525,3.00935319 C177.984662,2.77578912 174.284426,6.996759 173.190622,6.70340253 C168.534944,5.45523613 141.683461,0.724162331 125.74384,5.35433646 C116.325907,8.08983885 107.166001,12.6284559 97.9873969,16.227211 C89.0705579,19.723198 69.026835,27.9091516 62.295734,42.3863869 C61.2673714,44.5968373 60.0520337,45.0303322 58.4066535,46.790471 C56.7238782,48.5935856 55.1327208,48.8458348 52.4645871,48.2142776 C51.5988928,48.1806443 50.7518959,48.1787758 49.912378,48.1899869 C37.0690634,61.3443153 39.2174065,80.7301332 36.7437269,98.2081996 C35.0852584,109.90322 32.6770201,121.626268 33.2379452,133.523087 C33.5464539,140.053538 34.5748166,146.501775 35.4816455,152.966829 C38.0992958,154.377556 40.5299712,156.040532 42.515646,158.327591 C47.3433412,163.910707 48.2838255,171.92102 50.6060554,179.045659 C53.9959126,181.741922 57.8176822,185.179985 59.8687982,189.277633 C62.9333189,191.422686 65.9398773,193.64061 68.6958892,196.159365 C73.8900554,200.909124 79.7517225,205.290786 85.2618766,210.016254 C87.9505774,211.884767 90.3550763,214.01674 92.3370116,216.617709 C94.2390764,218.570387 96.0063129,220.649838 97.6265351,222.841724 C104.62875,232.427194 107.910162,246.220554 106.289088,258.173428 C104.881166,268.592255 98.1220189,274.242636 91.3983969,281.217794 C91.3591322,281.258901 91.3161279,281.28506 91.2768632,281.322431 C88.6367758,285.993712 85.5554274,290.422087 82.6760119,294.885963 C79.7965965,299.34984 76.9190509,303.496069 73.4936684,307.167696 C58.2365062,327.205625 42.725058,347.219263 29.2161123,368.49041 C12.665083,394.548686 3.0022136,423.873122 2.53664578,455.3314 C2.52353204,456.34171 2.76531371,457.339042 3.23967188,458.231331 C0.591107816,472.499382 -0.438777401,487.020427 0.169541945,501.519162 C0.309773214,504.775979 2.10847297,506.870582 4.46996756,507.61425 C3.12187761,538.81841 10.5354374,569.59468 24.1490891,597.616763 C32.1404017,614.059673 42.2314439,629.317947 53.7266686,643.27013 C56.4957687,646.633453 60.3998073,649.944457 58.1093632,654.415808 C56.1106002,658.317262 51.5428003,661.831934 49.0148979,665.50543 C43.9347864,672.882317 41.3021781,680.952423 43.2934621,689.994155 C43.6796592,691.806336 44.889656,693.334759 46.5655251,694.127305 C46.2719743,699.020939 46.6309663,703.905231 48.3268298,708.546616 C51.7671703,717.95084 59.6687349,722.644544 68.2957626,725.843437 C88.216082,733.227799 109.243293,737.702886 130.16019,740.440257 C172.074381,745.918736 215.142209,742.559151 255.8635,730.785653 C267.075533,727.546039 278.088453,723.654139 288.845895,719.129872 C298.585424,715.030355 310.321846,711.425994 316.518199,701.954504 C318.969441,698.217479 317.021162,694.583222 313.977208,693.064121 C324.232788,674.324809 326.588674,652.330548 325.666887,630.558639 C324.559995,604.431228 321.553436,578.253367 318.358033,552.277306 C329.075442,555.222081 341.490583,553.086371 351.181499,548.557097 C367.586688,540.896195 379.517564,526.052732 385.854148,508.623247 C399.204165,471.899501 387.095662,433.492225 377.670251,396.964673 C378.361016,396.556553 378.967145,396.01996 379.455862,395.383911 C396.451892,373.85491 448.421601,370.357054 442.88714,333.665073 C436.432762,290.932191 494.303403,274.573363 491.92882,232.707471 Z" id="Path" fill="#53C9FF" fill-rule="nonzero"></path>
                <path d="M466.393674,224.488479 C459.558112,223.102545 452.53922,222.042604 445.8159,220.088512 C439.764163,218.328152 434.812402,214.641643 429.190928,211.892129 C424.847147,209.762933 419.616651,207.486574 415.106376,210.336679 C414.693336,210.604809 414.298966,210.900428 413.92596,211.221516 C411.709173,208.852016 408.186632,208.121793 405.601315,211.424563 C396.434852,223.14539 387.704263,234.882982 381.691811,248.764673 C378.85582,255.312465 375.915069,261.528676 372.270932,267.625667 C370.570459,270.470184 368.989712,273.385488 367.947728,276.567175 C367.458056,278.094115 367.119715,279.665133 366.937547,281.257741 C366.86646,281.939531 366.795997,282.622563 366.726157,283.306836 C366.709321,283.552728 366.698096,283.748323 366.688743,283.921565 C364.818036,285.734083 364.443895,289.562166 365.856278,291.745385 C368.797029,296.314868 369.492932,300.588164 367.936504,305.87483 C366.333308,311.321699 372.564633,316.328943 377.183408,313.326087 C381.701165,310.382841 386.106679,309.600459 391.254865,310.796385 C394.796113,311.617886 393.052614,310.662263 393.473523,313.011271 C393.864501,315.19449 393.295806,317.722328 393.72981,320.065749 C394.115175,322.142786 396.143022,324.27012 398.125971,324.670625 C402.632502,325.541897 406.890826,327.391449 410.597973,330.087689 C413.308627,332.013839 417.727237,330.732223 419.203224,327.721915 C427.505421,310.865309 437.622204,295.161786 447.608037,279.37071 C456.924157,264.643301 465.969024,249.697943 470.77487,232.614074 C471.697128,229.376503 469.697343,225.157229 466.393674,224.488479 Z M408.65805,313.763848 C409.48116,314.367528 410.420509,314.795586 411.417343,315.021248 C411.370575,315.1088 411.327549,315.207529 411.280781,315.28763 C410.360393,314.833104 409.421298,314.421422 408.474721,314.041408 C408.536454,313.953855 408.596317,313.856989 408.65805,313.763848 Z" id="Shape" fill="#FFFFFF" fill-rule="nonzero"></path>
                <path d="M274,352 C274,352 283.048127,382.298453 291.280037,395.732267 C299.511947,409.166082 313.770287,424.887734 316.513,436.892817 C319.255714,448.8979 318.431957,464.046192 312.124659,477.480007 C305.817361,490.913821 300.06049,502.061664 307.187775,544.3652 C314.31506,586.668735 320.077585,657.556245 301.15569,693" id="Path" stroke="#1B1464" stroke-width="3" stroke-linecap="round"></path>
                <path d="M60.6128905,710 C60.6128905,710 51.2258312,694.570766 59.2333894,681.714004 C67.2409476,668.857242 74.4135944,651.71427 72.7608496,640" id="Path" stroke="#1B1464" stroke-width="3" stroke-linecap="round"></path>
                <path d="M186,251 C186,251 197.14222,257.041083 206.655602,257.616245 C216.168984,258.191407 261.012448,259.05603 272.154668,268.260506 C283.296887,277.464981 312.651452,308.8226 317,335" id="Path" stroke="#1B1464" stroke-width="3" stroke-linecap="round"></path>
                <path d="M100,278.232609 C100,278.232609 242.484557,350.264925 198.609762,258" id="Path" stroke="#FFFFFF" stroke-width="3" stroke-linecap="round"></path>
                <path d="M316,400 C316,400 328.946224,379.965648 327.05916,371.387512 C325.172096,362.809376 311.145166,335.038431 321.6649,325.01284 C332.184634,314.987248 353.220395,299.824499 355.109313,294.674252 C356.998231,289.524004 373.179158,285.22839 370.752668,301.256994 C368.326178,317.285598 351.872757,324.4462 352.412183,329.018588 C352.951609,333.590976 355.109313,342.184073 356.996377,344.474942" id="Path" stroke="#1B1464" stroke-width="3" stroke-linecap="round"></path>
                <path d="M306,534.917993 C306,534.917993 313.621407,543.800879 329.681737,542.941426 C345.742067,542.081973 372.68825,543.227911 383.031589,495.656534 C393.374927,448.085158 363.97807,404.239951 372.959508,390.198474 C381.940946,376.156998 401.540721,370.138955 414.334733,367.272239 C427.128745,364.405523 444.002848,339.47577 433.932638,324" id="Path" stroke="#1B1464" stroke-width="3" stroke-linecap="round"></path>
                <path d="M342,306.528891 L398.859374,203.857624 C400.55664,200.755706 404.076828,199.292466 407.345707,200.332038 L475.799007,222.086529 C480.255035,223.503109 482.33489,228.855878 480.086246,233.124283 L419.609163,348.029651 C417.829377,351.411526 413.924726,352.882231 410.496435,351.460052 L352.920646,328.8097" id="Path" stroke="#1B1464" stroke-width="3" stroke-linecap="round"></path>
                <path d="M133,197 C133,197 163.42765,235.274248 199,215.154379" id="Path" stroke="#1B1464" stroke-width="3" stroke-linecap="round"></path>
                <path d="M365.803586,312.711736 L374.120314,315.355508 C375.614113,311.472002 380.074971,308.914115 385.086668,309.407021 C390.975971,309.991414 395.386414,314.552668 394.932672,319.606828 C394.796583,321.074589 394.259821,322.476753 393.380988,323.660239 L411.706171,331.559815 C414.396877,332.719266 417.459165,331.520606 418.855868,328.759209 L466.283994,235.021059 C468.046678,231.537106 466.414702,227.170027 462.922946,226.014311 L409.239535,208.271538 C406.675802,207.423888 403.91414,208.609478 402.588393,211.148694 L362,288.706809" id="Path" stroke="#1B1464" stroke-width="3" stroke-linecap="round"></path>
                <line x1="170" y1="132" x2="170" y2="149" id="Path" stroke="#1B1464" stroke-width="3" stroke-linecap="round"></line>
                <line x1="208" y1="123" x2="208" y2="140" id="Path" stroke="#1B1464" stroke-width="3" stroke-linecap="round"></line>
                <path d="M155,438 C155,438 189.175214,461.220746 221,458.826855" id="Path" stroke="#FFFFFF" stroke-width="3" stroke-linecap="round"></path>
                <path d="M333,384 C333,384 367.173333,407.220746 399,404.826855" id="Path" stroke="#FFFFFF" stroke-width="3" stroke-linecap="round"></path>
                <path d="M48.7357562,349 C51.4778482,315.178474 43.3168603,129.520837 43.3168603,129.520837 C35.7695786,-17.3431694 165.35674,11.6819584 185.747085,16.5176104 C208.969059,22.0243097 225.611878,44.6660776 230.256646,58.1281442 C234.901414,71.5902108 226.889656,90.3402788 226.889656,90.3402788 C226.889656,90.3402788 218.976762,122.825318 234.291439,149.130742 C241.428339,161.390905 239.725258,169.893952 234.022826,175.043632 C228.320394,180.193311 229.359404,191.201102 229.359404,191.201102 C239.139532,231.824692 213.084062,237.83234 205.212207,240.980094 C197.340351,244.127847 187.841894,246.701752 185.942948,249.847636 C184.044003,252.993521 188.65706,270.732345 188.65706,270.732345" id="Path" stroke="#1B1464" stroke-width="3" stroke-linecap="round"></path>
                <path d="M67.7195034,510.062689 C67.7195034,510.062689 67.4462538,512.352023 74.5264117,513.782857 C81.6065696,515.213692 110.745078,490.590253 119.730497,481.150489 C127.13818,473.364133 161.940066,437.640041 163.300699,434.490335 C164.661332,431.34063 158.881917,385.29957 160.577562,378.670974 C165.47921,359.492186 182.100643,352.336145 203.603137,339.454898 C225.105631,326.573651 232.197018,336.305193 232.468396,340.029102 C232.739774,343.753011 222.6651,353.76885 213.406432,360.638724 C204.147764,367.508598 211.227922,380.677882 211.227922,380.677882 C262.42291,410.446712 214.491944,439.645079 217.763453,451.095492 C219.635025,457.675458 216.12957,480.293859 210.138667,497.469479 C204.147764,514.645099 211.227922,522.087306 165.47921,587.352043 C119.730497,652.61678 65.2677437,640.02357 65.2677437,640.02357 C1.00169495,579.909836 16.2512658,487.163733 17.3405209,427.049998 C18.429776,366.936264 94.6776304,297.090988 94.6776304,297.090988 C92.4991203,281.632369 110.471829,277.626033 113.739594,273.045494 C117.007359,268.464954 113.739594,249 113.739594,249" id="Path" stroke="#1B1464" stroke-width="3" stroke-linecap="round"></path>
                <path d="M114.364706,248 L102,128.745512 C192.226012,104.577616 203.683165,79.7360496 209.096801,54 C209.096801,54 217.449267,84.5976985 227,89.9290448" id="Path" stroke="#1B1464" stroke-width="3" stroke-linecap="round"></path>
            </g>
        </g>
    </g>
</svg>