<svg id="Calque_1" data-name="Calque 1" xmlns="http://www.w3.org/2000/svg" viewBox="0 0 100 100"><defs><style>.cls-1{fill:#3fa9f5;}.cls-1,.cls-2{fill-rule:evenodd;}.cls-2{fill:#004494;}</style></defs><title>Plan de travail 3</title><path class="cls-1" d="M48.26,22.35H26.71a2.55,2.55,0,0,0-2.54,2.54V46.44H31.6a6.34,6.34,0,1,1,10.5,0h6.16V37.06h2.87a3.74,3.74,0,0,0,.53.66A3.82,3.82,0,1,0,51.13,33H48.26V22.35ZM50.8,73.07H69.6l-2.66-4.2a5,5,0,0,1,8-6.11V49H67.46A6.34,6.34,0,1,1,57,49H50.8v9.38H47.93a3.74,3.74,0,0,0-.53-.66,3.81,3.81,0,1,0,0,5.38,3.74,3.74,0,0,0,.53-.66H50.8V73.07Z"/><path class="cls-2" d="M74.89,46.44V24.89a2.55,2.55,0,0,0-2.54-2.54H50.8v7.43A6.34,6.34,0,0,1,60.69,35a6.35,6.35,0,0,1-9.89,5.26v6.15h9.38v2.87a3.74,3.74,0,0,0-.66.53,3.8,3.8,0,1,0,5.38,0,3.74,3.74,0,0,0-.66-.53V46.44ZM24.17,49V70.54a2.54,2.54,0,0,0,2.54,2.53H48.26V65.65a6.34,6.34,0,1,1-3.55-11.6,6.26,6.26,0,0,1,3.55,1.09V49H38.88V46.11a4.2,4.2,0,0,0,.66-.52,3.8,3.8,0,1,0-5.38,0,4.2,4.2,0,0,0,.66.52V49Z"/><path class="cls-2" d="M77.74,62.45l6.16,4.46A4.26,4.26,0,0,1,85.84,70l.93,12.71,2.32,4.56H77.72l-.62-1.71-2.67-3a3.89,3.89,0,0,1-1-2.09l-1.17-7.87-3.2-5.06a2.49,2.49,0,0,1,.77-3.46,2.52,2.52,0,0,1,3.47.82l4,6.35.53-1.14-.32-1.59-.21-.28v-6a1.66,1.66,0,0,1,.4.2Z"/></svg>