<svg id="Calque_1" data-name="Calque 1" xmlns="http://www.w3.org/2000/svg" viewBox="0 0 100 100"><defs><style>.cls-1,.cls-3{fill:#3fa9f5;}.cls-2{fill:#004494;}.cls-3{stroke:#fff;stroke-miterlimit:10;stroke-width:2px;}.cls-4{fill:#fff;}</style></defs><title>Plan de travail 2</title><path class="cls-1" d="M73.69,75.48l-7.61-5.94h-19A6.57,6.57,0,0,1,40.55,63V48.9a6.57,6.57,0,0,1,6.56-6.56H76.94A6.57,6.57,0,0,1,83.5,48.9V63a6.57,6.57,0,0,1-6.56,6.56H74.65V75a.6.6,0,0,1-1,.47Z"/><path class="cls-2" d="M26,69.1A.58.58,0,0,1,25.7,69a.59.59,0,0,1-.33-.53V63H23.08a6.57,6.57,0,0,1-6.56-6.56V42.4a6.57,6.57,0,0,1,6.56-6.56H52.91a6.58,6.58,0,0,1,6.56,6.56V56.48A6.58,6.58,0,0,1,52.91,63h-19L26.33,69A.63.63,0,0,1,26,69.1Z"/><path class="cls-3" d="M37,56.76a.62.62,0,0,1-.26-.06.6.6,0,0,1-.33-.54V50.69H34.1a6.56,6.56,0,0,1-6.56-6.56V30.06A6.56,6.56,0,0,1,34.1,23.5H63.93a6.56,6.56,0,0,1,6.56,6.56V44.13a6.56,6.56,0,0,1-6.56,6.56H45l-7.6,5.94A.58.58,0,0,1,37,56.76Z"/><circle class="cls-4" cx="41.5" cy="37.63" r="2.12"/><circle class="cls-4" cx="49.01" cy="37.63" r="2.12"/><circle class="cls-4" cx="56.53" cy="37.63" r="2.12"/></svg>