<svg id="Calque_1" data-name="Calque 1" xmlns="http://www.w3.org/2000/svg" viewBox="0 0 100 100"><defs><style>.cls-1{fill:#004494;}.cls-1,.cls-2,.cls-6{fill-rule:evenodd;}.cls-2,.cls-3,.cls-4,.cls-5{fill:#fff;}.cls-4,.cls-5{stroke:#004494;stroke-linecap:round;stroke-linejoin:round;}.cls-5{stroke-width:1.04px;}.cls-6{fill:#3fa9f5;}</style></defs><title>Plan de travail 4</title><path class="cls-1" d="M80.09,35.78c1.71-.82,3.62-1.3,5.41-.38,2.92,1.5,3.31,5.62,1.93,8.3a18.47,18.47,0,0,1-4.36,5A.65.65,0,0,1,82,48.15c.06-.61.08-1.2.08-1.75a.62.62,0,0,1,.2-.48,13.55,13.55,0,0,0,2.86-3.41c.7-1.35.8-4-.82-4.81-1-.52-2.31,0-3.23.49a.65.65,0,0,1-.91-.38l-.41-1.24a.65.65,0,0,1,.33-.79Z"/><path class="cls-2" d="M69.38,33.86l.16,0,5.78.91,1.16,1.92-.22,4-3,8.86L63.6,51.86l-8.75,2.59c-.22,0-5.51-1.32-5.67-1.43s-2.81-2.75-2.87-3.31a52.13,52.13,0,0,1,.28-6.16c.16-.06,7.82-6.28,7.82-6.28l9.24-3.35Z"/><path class="cls-1" d="M45,46.8l1.48,4.41C48.9,58.5,53.83,62.4,59.19,63.59c1.11,5.81,19.69-.42,17.07-5.72C79.82,53.68,81.4,47.6,79,40.32L77.48,35.9c-.67-2-3-3.09-6.38-3.3l0,0s-1.86-.37-8.43.87a37,37,0,0,0-11.27,4.48L51.3,38c-.57.34-.9.56-.9.56v0a22.28,22.28,0,0,0-2,1.44C45.64,42.29,44.28,44.73,45,46.8Zm5.18,3.51c5.53,1.37,15.1-1.8,19.63-4.26a.54.54,0,0,1,.51,1c-5,2.72-14,5.53-19.8,4.47a2.49,2.49,0,0,1-.77-.19C49.1,51,49.54,50,50.16,50.31ZM53.25,48a37,37,0,0,1,18.29-6.15A36.76,36.76,0,0,1,53.25,48Zm-2.78-6.81a37.63,37.63,0,0,1,9.45-4.72c1.95-.59,3.45-1,4.56-1.2a26.67,26.67,0,0,1,6.1-.54c5.57.23,5.92,2.46,3.47,5-7.31-.7-18.61,3.08-24,8C45.3,47,46.51,44.09,50.47,41.18Z"/><path class="cls-1" d="M65.58,39.23c-.57,0-1.41-.28-2.12-1.64-1.72-3.26-.44-6.47,3.6-9l.18-.12c.79-.49,1.86-1.16,2-1.85,0-.1.08-.4-.3-1a2.1,2.1,0,0,1-.17-2.22,2,2,0,0,1,1.71-1.09,1.89,1.89,0,0,1,1.55.87c3.12,4.48-.4,7.12-1.55,8-.25.18-.51.34-.77.52a15.36,15.36,0,0,0-2.32,1.76,2,2,0,0,0-.75,1.46,1.81,1.81,0,0,0,.38,1,2.23,2.23,0,0,1,.14,2.31,1.78,1.78,0,0,1-1.58,1Z"/><path class="cls-3" d="M70.48,23.34a.89.89,0,0,1,.73.44c2.22,3.2.61,5.16-1.33,6.62a23.18,23.18,0,0,0-3.2,2.38,3.05,3.05,0,0,0-1,2.2,2.79,2.79,0,0,0,.56,1.5c.49.69.07,1.75-.62,1.75-.37,0-.81-.3-1.24-1.11-1.81-3.44.65-6,3.26-7.7,1.39-.88,3.67-2.17,2.16-4.34a1.07,1.07,0,0,1,.72-1.74m0-2A3,3,0,0,0,67.88,23a3.15,3.15,0,0,0,.23,3.26,1,1,0,0,1,.13.22,6.24,6.24,0,0,1-1.53,1.17l-.18.12c-4.48,2.83-5.92,6.59-4,10.33a3.43,3.43,0,0,0,3,2.17,2.78,2.78,0,0,0,2.47-1.57,3.23,3.23,0,0,0-.22-3.34.88.88,0,0,1-.19-.41c0-.16.16-.42.46-.73a14.31,14.31,0,0,1,2.16-1.62L71,32l0,0,0,0c2.48-1.87,4.8-5,1.78-9.36a2.91,2.91,0,0,0-2.38-1.3Z"/><line class="cls-4" x1="40.52" y1="34.32" x2="38.49" y2="31.85"/><line class="cls-4" x1="45.17" y1="32.13" x2="44.35" y2="28.13"/><line class="cls-4" x1="50.21" y1="32.2" x2="51.53" y2="28.79"/><line class="cls-5" x1="46.42" y1="71.55" x2="45.42" y2="74.76"/><line class="cls-5" x1="51.6" y1="72.2" x2="52.3" y2="76.54"/><line class="cls-5" x1="56.31" y1="70.41" x2="58.81" y2="73.43"/><path class="cls-6" d="M18.25,40.79a.64.64,0,0,1,.34.79l-.42,1.24a.63.63,0,0,1-.9.37c-.93-.47-2.24-1-3.24-.49-1.61.83-1.51,3.46-.82,4.82a13.69,13.69,0,0,0,2.86,3.4.63.63,0,0,1,.21.48,15.05,15.05,0,0,0,.07,1.75.65.65,0,0,1-1.08.54,18.33,18.33,0,0,1-4.36-5c-1.38-2.68-1-6.79,1.93-8.3,1.79-.92,3.71-.44,5.41.39Z"/><path class="cls-2" d="M29,38.86l-.16,0L23,39.8l-1.16,1.93.22,4,3,8.86,9.68,2.25s8.54,2.54,8.76,2.59S49,58.13,49.17,58,52,55.27,52,54.72a52.41,52.41,0,0,0-.28-6.17c-.16,0-7.81-6.27-7.81-6.27l-9.25-3.36Z"/><path class="cls-6" d="M49.94,45a24.46,24.46,0,0,0-2-1.44v0s-.33-.22-.9-.56l-.13-.08a37.53,37.53,0,0,0-11.27-4.48c-6.57-1.24-8.42-.87-8.42-.87l0,0c-3.34.22-5.72,1.32-6.38,3.3l-1.49,4.42c-2.44,7.28-.85,13.37,2.7,17.55-2.62,5.3,16,11.53,17.07,5.73,5.36-1.2,10.29-5.1,12.73-12.38l1.48-4.42C54.06,49.73,52.7,47.3,49.94,45ZM48.61,56.28a2.75,2.75,0,0,1-.76.2C42.09,57.54,33.06,54.73,28,52a.54.54,0,0,1,.51-.95c4.54,2.45,14.1,5.62,19.63,4.25C48.8,55,49.24,56,48.61,56.28ZM26.8,46.84A37,37,0,0,1,45.09,53,36.66,36.66,0,0,1,26.8,46.84Zm21.51,6c-5.41-5-16.7-8.75-24-8-2.46-2.57-2.1-4.8,3.47-5a26.74,26.74,0,0,1,6.1.53c1.1.24,2.6.61,4.55,1.21a37.63,37.63,0,0,1,9.45,4.72C51.83,49.09,53,52,48.31,52.8Z"/><path class="cls-6" d="M32.76,44.24a1.79,1.79,0,0,1-1.58-1,2.25,2.25,0,0,1,.14-2.31A1.68,1.68,0,0,0,31.7,40,2,2,0,0,0,31,38.48a15.22,15.22,0,0,0-2.31-1.75l-.75-.51c-1.18-.88-4.69-3.53-1.58-8a1.89,1.89,0,0,1,1.55-.86,1.94,1.94,0,0,1,1.71,1.08,2.12,2.12,0,0,1-.16,2.22c-.39.56-.33.87-.31,1,.14.68,1.21,1.35,2,1.84l.18.12c4,2.55,5.32,5.75,3.6,9-.71,1.36-1.54,1.65-2.12,1.65Z"/><path class="cls-3" d="M27.86,28.35a1.07,1.07,0,0,1,.73,1.73c-1.51,2.18.76,3.46,2.16,4.34,2.6,1.65,5.06,4.26,3.25,7.71-.43.81-.87,1.11-1.24,1.11-.69,0-1.11-1.07-.62-1.76A2.64,2.64,0,0,0,32.7,40a3,3,0,0,0-1-2.2,23.74,23.74,0,0,0-3.19-2.38c-1.95-1.46-3.56-3.42-1.34-6.62a.9.9,0,0,1,.73-.43m0-2a2.87,2.87,0,0,0-2.37,1.29c-1.67,2.41-2.72,6,1.77,9.36l0,0,0,0,.76.52a14.35,14.35,0,0,1,2.16,1.63c.3.3.47.57.46.72a.88.88,0,0,1-.19.41,3.25,3.25,0,0,0-.22,3.35,2.81,2.81,0,0,0,2.47,1.57c.7,0,2-.29,3-2.18,2-3.74.52-7.5-4-10.33l-.18-.11a6.26,6.26,0,0,1-1.53-1.18l.13-.22A3.13,3.13,0,0,0,30.46,28a3,3,0,0,0-2.6-1.62Z"/></svg>